M48
;GenerationSoftware,Autodesk,EAGLE,9.6.2*%
;CreationDate,2023-04-01T14:46:51Z*%
FMAT,2
ICI,OFF
INCH,TZ,00.0000
T5C0.0276
T4C0.0320
T3C0.0400
T2C0.1180
T1C0.1220
%
G90
M72
T1
X15906Y5512
X15984Y17874
X1614Y16299
X1654Y7205
T2
X13000Y4102
X11819Y2252
X14181Y2252
T3
X7933Y7819
X14291Y7228
X14291Y8228
X14291Y9228
X15906Y21366
X15945Y7272
X15945Y8272
X1472Y9370
X15945Y9272
X15945Y10272
X1472Y14370
X1472Y13370
X1472Y12370
X1472Y11370
X1472Y10370
X15945Y11272
X15945Y12272
X15945Y13272
X15945Y14272
X15945Y15272
X15945Y16272
X1535Y22472
X1535Y21472
X1535Y20472
X1535Y19472
X1535Y18472
X15906Y19366
X15906Y20366
X15906Y22366
X2260Y2307
X2260Y3307
X2260Y4307
X10493Y6039
X7933Y6039
X10493Y7819
T4
X5067Y1260
X5067Y2260
X5067Y3921
X5067Y4921
X13650Y18689
X14650Y18689
X13654Y17339
X11398Y9831
X12398Y9831
X14654Y17339
X5417Y15634
X4417Y15634
X11839Y8335
X11839Y5335
X6398Y17374
X3398Y17374
X10484Y9335
X10484Y10335
X10484Y11335
X10484Y12335
X10484Y13335
X10484Y14335
X10484Y15335
X10484Y16335
X10484Y17335
X10484Y18335
X10484Y19335
X10484Y20335
X10484Y21335
X10484Y22335
X7484Y22335
X7484Y21335
X7484Y20335
X4390Y8161
X5390Y8161
X7484Y18335
X7484Y19335
X7484Y17335
X7484Y16335
X7484Y15335
X7484Y14335
X7484Y13335
X7484Y12335
X7484Y11335
X7484Y10335
X7484Y9335
X6264Y6508
X3264Y6508
T5
X12220Y16736
X12220Y18736
M30