G04 EAGLE Gerber X2 export*
%TF.Part,Single*%
%TF.FileFunction,Copper,L2,Bot,Mixed*%
%TF.FilePolarity,Positive*%
%TF.GenerationSoftware,Autodesk,EAGLE,9.6.2*%
%TF.CreationDate,2023-04-01T14:46:51Z*%
G75*
%MOIN*%
%FSLAX36Y36*%
%LPD*%
%INBottom Copper Layer*%
%AMOC8*
5,1,8,0,0,1.08239X$1,22.5*%
G01*
%ADD10P,0.067108X8X292.500000*%
%ADD11C,0.062000*%
%ADD12P,0.056284X8X22.500000*%
%ADD13C,0.170000*%
%ADD14C,0.060000*%
%ADD15P,0.056284X8X202.500000*%
%ADD16P,0.056284X8X292.500000*%
%ADD17C,0.064000*%
%ADD18P,0.071438X8X22.500000*%
%ADD19C,0.065000*%
%ADD20C,0.074000*%
%ADD21R,0.085039X0.055118*%
%ADD22C,0.040000*%
%ADD23C,0.016000*%
%ADD24C,0.024000*%
%ADD25C,0.006000*%

G36*
X1723723Y40008D02*
X1723723Y40008D01*
X1723792Y40002D01*
X1724510Y40086D01*
X1725231Y40158D01*
X1725297Y40178D01*
X1725366Y40186D01*
X1726053Y40410D01*
X1726747Y40623D01*
X1726808Y40656D01*
X1726874Y40677D01*
X1727502Y41032D01*
X1728141Y41378D01*
X1728194Y41422D01*
X1728254Y41456D01*
X1728803Y41929D01*
X1729359Y42393D01*
X1729402Y42446D01*
X1729455Y42492D01*
X1729900Y43065D01*
X1730352Y43628D01*
X1730384Y43689D01*
X1730427Y43744D01*
X1730750Y44394D01*
X1731083Y45035D01*
X1731102Y45101D01*
X1731133Y45164D01*
X1731322Y45865D01*
X1731522Y46558D01*
X1731527Y46627D01*
X1731546Y46694D01*
X1731653Y48000D01*
X1731653Y2314205D01*
X1731646Y2314274D01*
X1731652Y2314343D01*
X1731568Y2315061D01*
X1731496Y2315782D01*
X1731475Y2315849D01*
X1731467Y2315918D01*
X1731243Y2316604D01*
X1731031Y2317298D01*
X1730997Y2317359D01*
X1730976Y2317425D01*
X1730622Y2318053D01*
X1730276Y2318692D01*
X1730231Y2318745D01*
X1730197Y2318806D01*
X1729724Y2319354D01*
X1729261Y2319910D01*
X1729207Y2319953D01*
X1729161Y2320006D01*
X1728588Y2320451D01*
X1728026Y2320903D01*
X1727964Y2320935D01*
X1727909Y2320978D01*
X1727259Y2321301D01*
X1726619Y2321634D01*
X1726552Y2321653D01*
X1726490Y2321684D01*
X1725789Y2321873D01*
X1725095Y2322073D01*
X1725026Y2322079D01*
X1724959Y2322097D01*
X1723654Y2322204D01*
X48000Y2322204D01*
X47931Y2322197D01*
X47862Y2322203D01*
X47143Y2322119D01*
X46422Y2322047D01*
X46356Y2322027D01*
X46287Y2322018D01*
X45601Y2321795D01*
X44907Y2321582D01*
X44845Y2321549D01*
X44780Y2321527D01*
X44152Y2321173D01*
X43513Y2320827D01*
X43459Y2320782D01*
X43399Y2320748D01*
X42851Y2320275D01*
X42295Y2319812D01*
X42251Y2319758D01*
X42199Y2319713D01*
X41754Y2319139D01*
X41301Y2318577D01*
X41269Y2318515D01*
X41227Y2318460D01*
X40903Y2317811D01*
X40570Y2317170D01*
X40551Y2317104D01*
X40520Y2317041D01*
X40331Y2316340D01*
X40132Y2315647D01*
X40126Y2315577D01*
X40108Y2315510D01*
X40001Y2314205D01*
X40001Y48000D01*
X40008Y47931D01*
X40002Y47862D01*
X40086Y47143D01*
X40158Y46422D01*
X40178Y46356D01*
X40186Y46287D01*
X40410Y45601D01*
X40623Y44907D01*
X40656Y44845D01*
X40677Y44780D01*
X41032Y44152D01*
X41378Y43513D01*
X41422Y43459D01*
X41456Y43399D01*
X41929Y42851D01*
X42393Y42295D01*
X42446Y42251D01*
X42492Y42199D01*
X43065Y41754D01*
X43628Y41301D01*
X43689Y41269D01*
X43744Y41227D01*
X44394Y40903D01*
X45035Y40570D01*
X45101Y40551D01*
X45164Y40520D01*
X45865Y40331D01*
X46558Y40132D01*
X46627Y40126D01*
X46694Y40108D01*
X48000Y40001D01*
X1723654Y40001D01*
X1723723Y40008D01*
G37*
%LPC*%
G36*
X188823Y394708D02*
X188823Y394708D01*
X175592Y400189D01*
X165464Y410316D01*
X159984Y423548D01*
X159984Y437870D01*
X165464Y451101D01*
X175592Y461229D01*
X188823Y466709D01*
X191984Y466709D01*
X192054Y466716D01*
X192122Y466711D01*
X192841Y466795D01*
X193562Y466866D01*
X193628Y466887D01*
X193697Y466895D01*
X194384Y467119D01*
X195077Y467331D01*
X195139Y467365D01*
X195204Y467386D01*
X195832Y467740D01*
X196471Y468086D01*
X196525Y468131D01*
X196585Y468165D01*
X197133Y468638D01*
X197689Y469101D01*
X197733Y469155D01*
X197785Y469201D01*
X198231Y469774D01*
X198683Y470336D01*
X198715Y470398D01*
X198758Y470453D01*
X199081Y471103D01*
X199414Y471743D01*
X199433Y471810D01*
X199464Y471872D01*
X199653Y472573D01*
X199852Y473267D01*
X199858Y473336D01*
X199876Y473403D01*
X199984Y474709D01*
X199984Y497298D01*
X203942Y506854D01*
X211256Y514168D01*
X220812Y518127D01*
X477053Y518127D01*
X477157Y518137D01*
X477260Y518129D01*
X477944Y518215D01*
X478631Y518284D01*
X478730Y518314D01*
X478833Y518327D01*
X479485Y518546D01*
X480146Y518749D01*
X480238Y518798D01*
X480336Y518831D01*
X480933Y519175D01*
X481540Y519504D01*
X481620Y519570D01*
X481710Y519622D01*
X482710Y520469D01*
X485734Y523494D01*
X499333Y529127D01*
X514053Y529127D01*
X516073Y528290D01*
X516156Y528265D01*
X516234Y528225D01*
X516913Y528036D01*
X517591Y527831D01*
X517677Y527823D01*
X517761Y527800D01*
X518465Y527748D01*
X519169Y527681D01*
X519255Y527690D01*
X519342Y527683D01*
X520044Y527772D01*
X520746Y527845D01*
X520828Y527871D01*
X520915Y527881D01*
X521585Y528106D01*
X522259Y528316D01*
X522335Y528358D01*
X522418Y528386D01*
X523029Y528738D01*
X523650Y529077D01*
X523717Y529133D01*
X523792Y529176D01*
X524791Y530024D01*
X607682Y612915D01*
X607726Y612969D01*
X607779Y613014D01*
X608226Y613579D01*
X608686Y614141D01*
X608719Y614203D01*
X608762Y614257D01*
X609088Y614900D01*
X609429Y615542D01*
X609449Y615609D01*
X609480Y615670D01*
X609674Y616364D01*
X609881Y617062D01*
X609887Y617131D01*
X609906Y617197D01*
X609959Y617916D01*
X610025Y618640D01*
X610017Y618710D01*
X610022Y618779D01*
X609932Y619493D01*
X609854Y620216D01*
X609833Y620283D01*
X609824Y620352D01*
X609594Y621037D01*
X609376Y621728D01*
X609342Y621789D01*
X609320Y621854D01*
X608959Y622482D01*
X608609Y623115D01*
X608564Y623168D01*
X608529Y623228D01*
X607682Y624228D01*
X594377Y637532D01*
X594377Y664042D01*
X613123Y682788D01*
X639633Y682788D01*
X658379Y664042D01*
X658379Y637532D01*
X642721Y621875D01*
X642656Y621795D01*
X642577Y621727D01*
X642154Y621182D01*
X641717Y620649D01*
X641668Y620557D01*
X641605Y620475D01*
X641297Y619857D01*
X640974Y619248D01*
X640945Y619148D01*
X640898Y619055D01*
X640719Y618391D01*
X640522Y617729D01*
X640513Y617625D01*
X640486Y617524D01*
X640379Y616219D01*
X640379Y606012D01*
X566149Y531782D01*
X566127Y531755D01*
X566100Y531733D01*
X565627Y531144D01*
X565145Y530556D01*
X565128Y530525D01*
X565107Y530498D01*
X564759Y529829D01*
X564402Y529155D01*
X564392Y529122D01*
X564376Y529091D01*
X564168Y528370D01*
X563950Y527636D01*
X563947Y527601D01*
X563937Y527568D01*
X563876Y526821D01*
X563806Y526057D01*
X563810Y526022D01*
X563807Y525988D01*
X563895Y525240D01*
X563977Y524481D01*
X563988Y524448D01*
X563992Y524413D01*
X564227Y523692D01*
X564455Y522969D01*
X564472Y522939D01*
X564483Y522906D01*
X564855Y522246D01*
X565222Y521582D01*
X565245Y521555D01*
X565262Y521525D01*
X565762Y520946D01*
X566248Y520373D01*
X566274Y520352D01*
X566297Y520325D01*
X566903Y519855D01*
X567491Y519390D01*
X567522Y519374D01*
X567550Y519353D01*
X568234Y519012D01*
X568905Y518671D01*
X568938Y518662D01*
X568969Y518646D01*
X569705Y518448D01*
X570432Y518245D01*
X570466Y518243D01*
X570500Y518234D01*
X571805Y518127D01*
X871512Y518127D01*
X871581Y518133D01*
X871650Y518128D01*
X872368Y518212D01*
X873089Y518284D01*
X873156Y518304D01*
X873225Y518312D01*
X873911Y518536D01*
X874605Y518749D01*
X874666Y518782D01*
X874732Y518803D01*
X875360Y519158D01*
X875999Y519504D01*
X876052Y519548D01*
X876113Y519582D01*
X876661Y520055D01*
X877217Y520519D01*
X877260Y520572D01*
X877313Y520618D01*
X877758Y521191D01*
X878211Y521754D01*
X878242Y521815D01*
X878285Y521870D01*
X878609Y522520D01*
X878941Y523161D01*
X878960Y523227D01*
X878991Y523289D01*
X879180Y523991D01*
X879380Y524684D01*
X879386Y524753D01*
X879404Y524820D01*
X879511Y526126D01*
X879511Y1564657D01*
X879501Y1564760D01*
X879508Y1564864D01*
X879422Y1565547D01*
X879354Y1566234D01*
X879323Y1566334D01*
X879310Y1566437D01*
X879092Y1567089D01*
X878889Y1567750D01*
X878839Y1567842D01*
X878806Y1567940D01*
X878463Y1568537D01*
X878134Y1569144D01*
X878067Y1569224D01*
X878016Y1569314D01*
X877168Y1570313D01*
X841317Y1606165D01*
X841250Y1606220D01*
X841193Y1606286D01*
X840636Y1606722D01*
X840090Y1607169D01*
X840014Y1607209D01*
X839945Y1607263D01*
X839314Y1607581D01*
X838690Y1607912D01*
X838606Y1607937D01*
X838529Y1607976D01*
X837849Y1608162D01*
X837170Y1608364D01*
X837084Y1608372D01*
X837000Y1608395D01*
X836298Y1608443D01*
X835591Y1608507D01*
X835505Y1608498D01*
X835419Y1608504D01*
X834720Y1608413D01*
X834015Y1608336D01*
X833933Y1608310D01*
X833847Y1608299D01*
X832599Y1607898D01*
X831550Y1607464D01*
X779479Y1607464D01*
X779375Y1607453D01*
X779271Y1607461D01*
X778588Y1607375D01*
X777901Y1607307D01*
X777802Y1607276D01*
X777698Y1607263D01*
X777045Y1607044D01*
X776386Y1606842D01*
X776294Y1606792D01*
X776195Y1606759D01*
X775599Y1606415D01*
X774992Y1606087D01*
X774911Y1606020D01*
X774821Y1605968D01*
X773822Y1605121D01*
X769951Y1601249D01*
X755984Y1595464D01*
X740866Y1595464D01*
X726900Y1601249D01*
X716210Y1611939D01*
X710424Y1625906D01*
X710424Y1641023D01*
X716210Y1654990D01*
X726900Y1665680D01*
X740866Y1671465D01*
X756704Y1671465D01*
X756739Y1671469D01*
X756773Y1671465D01*
X757532Y1671548D01*
X758282Y1671622D01*
X758315Y1671632D01*
X758350Y1671636D01*
X759071Y1671865D01*
X759797Y1672087D01*
X759828Y1672104D01*
X759861Y1672114D01*
X760523Y1672480D01*
X761192Y1672842D01*
X761218Y1672864D01*
X761249Y1672881D01*
X761829Y1673374D01*
X762409Y1673857D01*
X762431Y1673884D01*
X762458Y1673907D01*
X762932Y1674507D01*
X763403Y1675092D01*
X763419Y1675123D01*
X763441Y1675150D01*
X763786Y1675830D01*
X764134Y1676499D01*
X764143Y1676533D01*
X764159Y1676564D01*
X764362Y1677293D01*
X764573Y1678023D01*
X764575Y1678057D01*
X764585Y1678091D01*
X764640Y1678848D01*
X764702Y1679603D01*
X764698Y1679637D01*
X764701Y1679672D01*
X764607Y1680418D01*
X764518Y1681177D01*
X764507Y1681211D01*
X764503Y1681245D01*
X764261Y1681965D01*
X764027Y1682685D01*
X764010Y1682714D01*
X763999Y1682748D01*
X763616Y1683412D01*
X763248Y1684065D01*
X763226Y1684091D01*
X763208Y1684122D01*
X762361Y1685121D01*
X754360Y1693121D01*
X754280Y1693187D01*
X754212Y1693266D01*
X753667Y1693688D01*
X753134Y1694125D01*
X753042Y1694174D01*
X752960Y1694238D01*
X752343Y1694545D01*
X751733Y1694868D01*
X751634Y1694898D01*
X751540Y1694944D01*
X750875Y1695124D01*
X750214Y1695320D01*
X750110Y1695330D01*
X750010Y1695357D01*
X748704Y1695464D01*
X740866Y1695464D01*
X726900Y1701249D01*
X716210Y1711939D01*
X710424Y1725906D01*
X710424Y1741023D01*
X716210Y1754990D01*
X726900Y1765680D01*
X740866Y1771465D01*
X755984Y1771465D01*
X769951Y1765680D01*
X780641Y1754990D01*
X786426Y1741023D01*
X786426Y1737910D01*
X786436Y1737806D01*
X786429Y1737703D01*
X786515Y1737019D01*
X786583Y1736332D01*
X786614Y1736233D01*
X786626Y1736130D01*
X786845Y1735478D01*
X787048Y1734817D01*
X787098Y1734725D01*
X787131Y1734627D01*
X787474Y1734030D01*
X787803Y1733423D01*
X787870Y1733343D01*
X787921Y1733253D01*
X788769Y1732254D01*
X927554Y1593468D01*
X931512Y1583912D01*
X931512Y1546650D01*
X931516Y1546616D01*
X931513Y1546581D01*
X931595Y1545822D01*
X931670Y1545072D01*
X931680Y1545039D01*
X931683Y1545005D01*
X931912Y1544283D01*
X932135Y1543557D01*
X932151Y1543526D01*
X932162Y1543493D01*
X932528Y1542831D01*
X932890Y1542163D01*
X932912Y1542136D01*
X932929Y1542106D01*
X933421Y1541525D01*
X933904Y1540945D01*
X933931Y1540923D01*
X933954Y1540897D01*
X934554Y1540422D01*
X935140Y1539951D01*
X935170Y1539935D01*
X935198Y1539914D01*
X935875Y1539569D01*
X936547Y1539220D01*
X936580Y1539211D01*
X936611Y1539195D01*
X937338Y1538992D01*
X938070Y1538782D01*
X938105Y1538779D01*
X938138Y1538769D01*
X938895Y1538714D01*
X939650Y1538652D01*
X939684Y1538656D01*
X939719Y1538653D01*
X940471Y1538748D01*
X941225Y1538836D01*
X941258Y1538847D01*
X941292Y1538851D01*
X942012Y1539093D01*
X942732Y1539327D01*
X942762Y1539344D01*
X942795Y1539355D01*
X943459Y1539738D01*
X944113Y1540106D01*
X944139Y1540129D01*
X944169Y1540146D01*
X945168Y1540994D01*
X951241Y1547067D01*
X951242Y1547068D01*
X959681Y1555507D01*
X969237Y1559465D01*
X1017371Y1559465D01*
X1017475Y1559476D01*
X1017579Y1559468D01*
X1018262Y1559554D01*
X1018949Y1559622D01*
X1019048Y1559653D01*
X1019152Y1559666D01*
X1019804Y1559885D01*
X1020464Y1560087D01*
X1020556Y1560137D01*
X1020655Y1560170D01*
X1021251Y1560513D01*
X1021859Y1560842D01*
X1021938Y1560909D01*
X1022029Y1560961D01*
X1023028Y1561808D01*
X1026900Y1565680D01*
X1040866Y1571465D01*
X1055984Y1571465D01*
X1069951Y1565680D01*
X1081650Y1553981D01*
X1081805Y1553792D01*
X1081877Y1553734D01*
X1081938Y1553663D01*
X1082492Y1553233D01*
X1083035Y1552791D01*
X1083117Y1552748D01*
X1083190Y1552691D01*
X1083819Y1552378D01*
X1084438Y1552052D01*
X1084526Y1552026D01*
X1084609Y1551985D01*
X1085287Y1551802D01*
X1085958Y1551605D01*
X1086051Y1551596D01*
X1086140Y1551572D01*
X1087445Y1551465D01*
X1534562Y1551465D01*
X1534666Y1551476D01*
X1534769Y1551468D01*
X1535453Y1551554D01*
X1536140Y1551622D01*
X1536239Y1551653D01*
X1536342Y1551666D01*
X1536996Y1551885D01*
X1537655Y1552087D01*
X1537747Y1552137D01*
X1537845Y1552170D01*
X1538442Y1552514D01*
X1539049Y1552842D01*
X1539129Y1552909D01*
X1539219Y1552961D01*
X1540218Y1553808D01*
X1544095Y1557685D01*
X1557327Y1563166D01*
X1631649Y1563166D01*
X1644881Y1557685D01*
X1655008Y1547558D01*
X1660489Y1534326D01*
X1660489Y1520004D01*
X1655008Y1506773D01*
X1644881Y1496645D01*
X1631649Y1491165D01*
X1557327Y1491165D01*
X1544095Y1496645D01*
X1533968Y1506773D01*
X1532414Y1510526D01*
X1532373Y1510602D01*
X1532346Y1510685D01*
X1532000Y1511298D01*
X1531665Y1511923D01*
X1531610Y1511990D01*
X1531567Y1512065D01*
X1531104Y1512601D01*
X1530655Y1513145D01*
X1530588Y1513200D01*
X1530531Y1513266D01*
X1529971Y1513701D01*
X1529424Y1514144D01*
X1529347Y1514185D01*
X1529279Y1514238D01*
X1528645Y1514553D01*
X1528021Y1514881D01*
X1527938Y1514905D01*
X1527860Y1514944D01*
X1527176Y1515128D01*
X1526499Y1515327D01*
X1526412Y1515334D01*
X1526329Y1515357D01*
X1525023Y1515464D01*
X1087445Y1515464D01*
X1087354Y1515455D01*
X1087261Y1515462D01*
X1086564Y1515376D01*
X1085868Y1515307D01*
X1085780Y1515280D01*
X1085688Y1515268D01*
X1085022Y1515047D01*
X1084352Y1514842D01*
X1084271Y1514798D01*
X1084183Y1514768D01*
X1083575Y1514420D01*
X1082958Y1514087D01*
X1082887Y1514028D01*
X1082807Y1513982D01*
X1082279Y1513521D01*
X1081741Y1513072D01*
X1081682Y1513000D01*
X1081613Y1512939D01*
X1081522Y1512820D01*
X1069951Y1501249D01*
X1055984Y1495464D01*
X1040866Y1495464D01*
X1026900Y1501249D01*
X1023028Y1505121D01*
X1022947Y1505187D01*
X1022879Y1505266D01*
X1022334Y1505689D01*
X1021801Y1506125D01*
X1021709Y1506174D01*
X1021627Y1506238D01*
X1021010Y1506545D01*
X1020401Y1506868D01*
X1020301Y1506898D01*
X1020208Y1506944D01*
X1019543Y1507123D01*
X1018881Y1507320D01*
X1018777Y1507330D01*
X1018677Y1507357D01*
X1017371Y1507464D01*
X988493Y1507464D01*
X988389Y1507453D01*
X988285Y1507461D01*
X987602Y1507375D01*
X986915Y1507307D01*
X986815Y1507276D01*
X986712Y1507263D01*
X986060Y1507044D01*
X985399Y1506842D01*
X985308Y1506792D01*
X985209Y1506759D01*
X984613Y1506416D01*
X984005Y1506087D01*
X983925Y1506020D01*
X983835Y1505968D01*
X982836Y1505121D01*
X933855Y1456140D01*
X933789Y1456059D01*
X933711Y1455992D01*
X933287Y1455446D01*
X932851Y1454913D01*
X932802Y1454822D01*
X932738Y1454739D01*
X932431Y1454122D01*
X932108Y1453513D01*
X932078Y1453413D01*
X932032Y1453320D01*
X931853Y1452655D01*
X931656Y1451993D01*
X931647Y1451889D01*
X931620Y1451789D01*
X931512Y1450484D01*
X931512Y526126D01*
X931519Y526057D01*
X931514Y525988D01*
X931598Y525269D01*
X931670Y524548D01*
X931690Y524482D01*
X931698Y524413D01*
X931922Y523727D01*
X932135Y523033D01*
X932168Y522971D01*
X932189Y522906D01*
X932543Y522278D01*
X932890Y521639D01*
X932934Y521585D01*
X932968Y521525D01*
X933441Y520977D01*
X933904Y520421D01*
X933958Y520377D01*
X934004Y520325D01*
X934577Y519880D01*
X935140Y519427D01*
X935201Y519395D01*
X935256Y519353D01*
X935906Y519029D01*
X936547Y518696D01*
X936613Y518677D01*
X936675Y518646D01*
X937376Y518457D01*
X938070Y518258D01*
X938139Y518252D01*
X938206Y518234D01*
X939512Y518127D01*
X1128436Y518127D01*
X1128540Y518137D01*
X1128644Y518129D01*
X1129327Y518215D01*
X1130014Y518284D01*
X1130114Y518314D01*
X1130217Y518327D01*
X1130869Y518546D01*
X1131530Y518749D01*
X1131621Y518798D01*
X1131720Y518831D01*
X1132316Y519175D01*
X1132924Y519504D01*
X1133004Y519570D01*
X1133094Y519622D01*
X1134093Y520469D01*
X1149515Y535891D01*
X1149581Y535972D01*
X1149659Y536040D01*
X1150083Y536585D01*
X1150519Y537118D01*
X1150568Y537210D01*
X1150632Y537292D01*
X1150939Y537909D01*
X1151262Y538518D01*
X1151291Y538618D01*
X1151338Y538711D01*
X1151517Y539376D01*
X1151714Y540038D01*
X1151723Y540142D01*
X1151750Y540242D01*
X1151858Y541548D01*
X1151858Y546719D01*
X1170603Y565465D01*
X1187089Y565465D01*
X1187192Y565476D01*
X1187296Y565468D01*
X1187979Y565554D01*
X1188666Y565622D01*
X1188766Y565653D01*
X1188869Y565666D01*
X1189521Y565885D01*
X1190182Y566087D01*
X1190274Y566137D01*
X1190372Y566170D01*
X1190969Y566513D01*
X1191576Y566842D01*
X1191656Y566909D01*
X1191746Y566961D01*
X1192745Y567808D01*
X1356843Y731906D01*
X1356844Y731907D01*
X1363032Y738095D01*
X1364142Y738555D01*
X1364234Y738604D01*
X1364333Y738637D01*
X1364934Y738979D01*
X1365540Y739304D01*
X1365620Y739370D01*
X1365711Y739422D01*
X1366230Y739874D01*
X1366762Y740313D01*
X1366828Y740394D01*
X1366906Y740463D01*
X1367326Y741009D01*
X1367761Y741544D01*
X1367809Y741636D01*
X1367873Y741719D01*
X1368472Y742884D01*
X1368614Y743227D01*
X1378741Y753355D01*
X1391973Y758835D01*
X1466295Y758835D01*
X1479526Y753355D01*
X1485372Y747509D01*
X1485453Y747443D01*
X1485521Y747364D01*
X1486066Y746941D01*
X1486599Y746505D01*
X1486691Y746456D01*
X1486773Y746392D01*
X1487390Y746085D01*
X1487999Y745762D01*
X1488099Y745732D01*
X1488192Y745686D01*
X1488857Y745507D01*
X1489519Y745310D01*
X1489623Y745300D01*
X1489723Y745273D01*
X1491029Y745166D01*
X1528263Y745166D01*
X1528366Y745176D01*
X1528470Y745169D01*
X1529153Y745255D01*
X1529840Y745323D01*
X1529940Y745354D01*
X1530043Y745367D01*
X1530695Y745585D01*
X1531356Y745788D01*
X1531448Y745838D01*
X1531546Y745871D01*
X1532142Y746214D01*
X1532750Y746543D01*
X1532830Y746610D01*
X1532920Y746662D01*
X1533919Y747509D01*
X1544095Y757685D01*
X1557327Y763166D01*
X1631649Y763166D01*
X1644881Y757685D01*
X1655008Y747558D01*
X1660489Y734326D01*
X1660489Y720004D01*
X1655008Y706773D01*
X1644881Y696645D01*
X1631649Y691165D01*
X1557327Y691165D01*
X1544095Y696645D01*
X1533919Y706822D01*
X1533838Y706888D01*
X1533771Y706966D01*
X1533225Y707390D01*
X1532692Y707826D01*
X1532601Y707875D01*
X1532518Y707939D01*
X1531901Y708246D01*
X1531292Y708569D01*
X1531192Y708599D01*
X1531099Y708645D01*
X1530434Y708824D01*
X1529772Y709021D01*
X1529668Y709030D01*
X1529568Y709057D01*
X1528263Y709165D01*
X1497783Y709165D01*
X1497697Y709156D01*
X1497611Y709163D01*
X1496909Y709078D01*
X1496206Y709008D01*
X1496123Y708982D01*
X1496037Y708972D01*
X1495367Y708750D01*
X1494690Y708542D01*
X1494614Y708501D01*
X1494532Y708474D01*
X1493917Y708124D01*
X1493296Y707788D01*
X1493230Y707732D01*
X1493154Y707689D01*
X1492620Y707224D01*
X1492078Y706773D01*
X1492024Y706705D01*
X1491959Y706648D01*
X1491526Y706086D01*
X1491085Y705537D01*
X1491045Y705461D01*
X1490992Y705392D01*
X1490393Y704227D01*
X1489654Y702442D01*
X1479526Y692315D01*
X1466295Y686834D01*
X1391973Y686834D01*
X1378586Y692379D01*
X1378445Y692490D01*
X1377883Y692951D01*
X1377821Y692983D01*
X1377767Y693026D01*
X1377125Y693352D01*
X1376482Y693694D01*
X1376415Y693713D01*
X1376354Y693745D01*
X1375660Y693938D01*
X1374963Y694146D01*
X1374893Y694152D01*
X1374827Y694170D01*
X1374109Y694223D01*
X1373384Y694289D01*
X1373314Y694281D01*
X1373246Y694287D01*
X1372531Y694197D01*
X1371808Y694118D01*
X1371741Y694097D01*
X1371673Y694089D01*
X1370987Y693859D01*
X1370296Y693640D01*
X1370236Y693606D01*
X1370170Y693584D01*
X1369542Y693223D01*
X1368909Y692873D01*
X1368856Y692828D01*
X1368796Y692794D01*
X1367797Y691946D01*
X1218202Y542352D01*
X1218136Y542271D01*
X1218057Y542203D01*
X1217634Y541658D01*
X1217197Y541125D01*
X1217149Y541033D01*
X1217085Y540951D01*
X1216778Y540334D01*
X1216455Y539724D01*
X1216425Y539625D01*
X1216379Y539531D01*
X1216199Y538867D01*
X1216003Y538205D01*
X1215993Y538101D01*
X1215966Y538001D01*
X1215859Y536695D01*
X1215859Y520210D01*
X1197113Y501464D01*
X1191941Y501464D01*
X1191838Y501453D01*
X1191734Y501461D01*
X1191051Y501375D01*
X1190364Y501307D01*
X1190264Y501276D01*
X1190161Y501263D01*
X1189509Y501044D01*
X1188848Y500842D01*
X1188757Y500792D01*
X1188658Y500759D01*
X1188062Y500416D01*
X1187454Y500087D01*
X1187374Y500020D01*
X1187284Y499968D01*
X1186285Y499121D01*
X1157248Y470084D01*
X1147692Y466125D01*
X536333Y466125D01*
X536229Y466115D01*
X536125Y466123D01*
X535442Y466037D01*
X534755Y465968D01*
X534655Y465938D01*
X534552Y465925D01*
X533900Y465706D01*
X533239Y465503D01*
X533148Y465453D01*
X533049Y465420D01*
X532453Y465077D01*
X531845Y464748D01*
X531765Y464681D01*
X531675Y464630D01*
X530676Y463782D01*
X527652Y460758D01*
X514053Y455125D01*
X499333Y455125D01*
X485734Y460758D01*
X482710Y463782D01*
X482629Y463848D01*
X482561Y463927D01*
X482016Y464350D01*
X481483Y464787D01*
X481391Y464835D01*
X481309Y464899D01*
X480692Y465206D01*
X480082Y465530D01*
X479983Y465559D01*
X479890Y465606D01*
X479225Y465785D01*
X478563Y465982D01*
X478459Y465991D01*
X478359Y466018D01*
X477053Y466125D01*
X290792Y466125D01*
X290758Y466122D01*
X290723Y466125D01*
X289962Y466043D01*
X289215Y465968D01*
X289182Y465958D01*
X289147Y465954D01*
X288421Y465725D01*
X287699Y465503D01*
X287668Y465486D01*
X287635Y465476D01*
X286973Y465110D01*
X286305Y464748D01*
X286278Y464726D01*
X286248Y464709D01*
X285672Y464221D01*
X285087Y463733D01*
X285065Y463706D01*
X285039Y463684D01*
X284570Y463090D01*
X284093Y462498D01*
X284077Y462467D01*
X284056Y462440D01*
X283710Y461760D01*
X283363Y461091D01*
X283353Y461058D01*
X283337Y461027D01*
X283133Y460295D01*
X282924Y459568D01*
X282921Y459533D01*
X282912Y459500D01*
X282856Y458744D01*
X282794Y457988D01*
X282798Y457953D01*
X282796Y457918D01*
X282890Y457165D01*
X282978Y456413D01*
X282989Y456380D01*
X282993Y456346D01*
X283234Y455627D01*
X283470Y454906D01*
X283487Y454876D01*
X283498Y454843D01*
X283877Y454183D01*
X284248Y453525D01*
X284271Y453499D01*
X284289Y453469D01*
X285136Y452469D01*
X286504Y451101D01*
X291985Y437870D01*
X291985Y423548D01*
X286504Y410316D01*
X276377Y400189D01*
X263145Y394708D01*
X188823Y394708D01*
G37*
%LPD*%
%LPC*%
G36*
X1585125Y1686377D02*
X1585125Y1686377D01*
X1559431Y1693262D01*
X1536395Y1706562D01*
X1517586Y1725371D01*
X1516282Y1727629D01*
X1516114Y1727864D01*
X1515976Y1728117D01*
X1515652Y1728506D01*
X1515357Y1728917D01*
X1515146Y1729113D01*
X1514961Y1729335D01*
X1514567Y1729652D01*
X1514196Y1729997D01*
X1513951Y1730148D01*
X1513726Y1730328D01*
X1513277Y1730562D01*
X1512846Y1730827D01*
X1512575Y1730926D01*
X1512319Y1731059D01*
X1511833Y1731199D01*
X1511358Y1731374D01*
X1511073Y1731418D01*
X1510796Y1731498D01*
X1510292Y1731539D01*
X1509791Y1731617D01*
X1509503Y1731604D01*
X1509216Y1731628D01*
X1508714Y1731569D01*
X1508208Y1731547D01*
X1507927Y1731477D01*
X1507641Y1731444D01*
X1507161Y1731287D01*
X1506669Y1731165D01*
X1506408Y1731041D01*
X1506134Y1730952D01*
X1505694Y1730704D01*
X1505236Y1730487D01*
X1505004Y1730315D01*
X1504753Y1730173D01*
X1504370Y1729842D01*
X1503964Y1729540D01*
X1503772Y1729327D01*
X1503553Y1729138D01*
X1503242Y1728737D01*
X1502904Y1728361D01*
X1502758Y1728113D01*
X1502581Y1727885D01*
X1502355Y1727432D01*
X1502098Y1726996D01*
X1502003Y1726725D01*
X1501875Y1726466D01*
X1501743Y1725977D01*
X1501577Y1725499D01*
X1501537Y1725214D01*
X1501462Y1724935D01*
X1501408Y1724273D01*
X1501360Y1723929D01*
X1501369Y1723797D01*
X1501355Y1723630D01*
X1501355Y1718946D01*
X1480266Y1697858D01*
X1473354Y1697858D01*
X1473354Y1733857D01*
X1473354Y1733858D01*
X1473354Y1733859D01*
X1473354Y1769859D01*
X1480266Y1769859D01*
X1484116Y1766009D01*
X1484339Y1765826D01*
X1484537Y1765617D01*
X1484951Y1765325D01*
X1485342Y1765005D01*
X1485597Y1764870D01*
X1485833Y1764703D01*
X1486296Y1764499D01*
X1486743Y1764262D01*
X1487020Y1764180D01*
X1487283Y1764063D01*
X1487777Y1763954D01*
X1488262Y1763810D01*
X1488550Y1763784D01*
X1488831Y1763722D01*
X1489337Y1763712D01*
X1489841Y1763667D01*
X1490128Y1763698D01*
X1490416Y1763692D01*
X1490914Y1763783D01*
X1491417Y1763837D01*
X1491692Y1763924D01*
X1491976Y1763976D01*
X1492447Y1764163D01*
X1492929Y1764316D01*
X1493181Y1764455D01*
X1493449Y1764562D01*
X1493874Y1764838D01*
X1494316Y1765082D01*
X1494536Y1765269D01*
X1494778Y1765426D01*
X1495141Y1765782D01*
X1495525Y1766108D01*
X1495704Y1766333D01*
X1495910Y1766536D01*
X1496196Y1766956D01*
X1496508Y1767352D01*
X1496639Y1767608D01*
X1496801Y1767847D01*
X1496998Y1768314D01*
X1497227Y1768765D01*
X1497304Y1769043D01*
X1497416Y1769309D01*
X1497517Y1769804D01*
X1497653Y1770292D01*
X1497674Y1770580D01*
X1497731Y1770862D01*
X1497732Y1771368D01*
X1497769Y1771873D01*
X1497733Y1772159D01*
X1497733Y1772448D01*
X1497614Y1773103D01*
X1497571Y1773446D01*
X1497529Y1773571D01*
X1497499Y1773736D01*
X1497401Y1774101D01*
X1497401Y1800701D01*
X1504286Y1826396D01*
X1517585Y1849432D01*
X1536395Y1868241D01*
X1559431Y1881541D01*
X1571920Y1884887D01*
X1572426Y1885078D01*
X1572943Y1885237D01*
X1573166Y1885358D01*
X1573403Y1885447D01*
X1573861Y1885734D01*
X1574337Y1885992D01*
X1574532Y1886154D01*
X1574747Y1886289D01*
X1575140Y1886661D01*
X1575555Y1887007D01*
X1575714Y1887204D01*
X1575898Y1887379D01*
X1576210Y1887822D01*
X1576548Y1888242D01*
X1576665Y1888467D01*
X1576812Y1888674D01*
X1577030Y1889170D01*
X1577279Y1889649D01*
X1577349Y1889893D01*
X1577452Y1890125D01*
X1577568Y1890652D01*
X1577718Y1891172D01*
X1577739Y1891425D01*
X1577793Y1891673D01*
X1577804Y1892213D01*
X1577848Y1892752D01*
X1577818Y1893004D01*
X1577823Y1893258D01*
X1577726Y1893790D01*
X1577664Y1894327D01*
X1577585Y1894568D01*
X1577540Y1894818D01*
X1577340Y1895320D01*
X1577172Y1895834D01*
X1577048Y1896055D01*
X1576954Y1896291D01*
X1576659Y1896744D01*
X1576393Y1897215D01*
X1576228Y1897407D01*
X1576089Y1897620D01*
X1575711Y1898006D01*
X1575358Y1898415D01*
X1575157Y1898571D01*
X1574980Y1898752D01*
X1574533Y1899056D01*
X1574105Y1899387D01*
X1573879Y1899500D01*
X1573669Y1899643D01*
X1573170Y1899853D01*
X1572686Y1900094D01*
X1572441Y1900160D01*
X1572207Y1900258D01*
X1571677Y1900366D01*
X1571155Y1900506D01*
X1570866Y1900530D01*
X1570654Y1900573D01*
X1570337Y1900573D01*
X1569850Y1900613D01*
X1553390Y1900613D01*
X1540158Y1906094D01*
X1530031Y1916221D01*
X1524453Y1929687D01*
X1524393Y1930292D01*
X1524363Y1930391D01*
X1524350Y1930494D01*
X1524131Y1931148D01*
X1523928Y1931807D01*
X1523879Y1931899D01*
X1523846Y1931997D01*
X1523502Y1932594D01*
X1523173Y1933201D01*
X1523107Y1933281D01*
X1523055Y1933371D01*
X1522207Y1934370D01*
X1518197Y1938381D01*
X1518117Y1938446D01*
X1518049Y1938525D01*
X1517503Y1938949D01*
X1516970Y1939385D01*
X1516878Y1939434D01*
X1516796Y1939498D01*
X1516179Y1939805D01*
X1515570Y1940128D01*
X1515470Y1940157D01*
X1515377Y1940204D01*
X1514711Y1940383D01*
X1514050Y1940580D01*
X1513946Y1940589D01*
X1513846Y1940616D01*
X1512541Y1940724D01*
X1291445Y1940724D01*
X1280901Y1951267D01*
X1280900Y1951268D01*
X1260323Y1971845D01*
X1260242Y1971911D01*
X1260175Y1971990D01*
X1259629Y1972413D01*
X1259096Y1972850D01*
X1259005Y1972898D01*
X1258922Y1972962D01*
X1258304Y1973270D01*
X1257696Y1973593D01*
X1257596Y1973622D01*
X1257503Y1973669D01*
X1256838Y1973848D01*
X1256176Y1974045D01*
X1256072Y1974054D01*
X1255972Y1974081D01*
X1254667Y1974188D01*
X1158719Y1974188D01*
X1158615Y1974178D01*
X1158512Y1974186D01*
X1157828Y1974100D01*
X1157141Y1974031D01*
X1157042Y1974000D01*
X1156939Y1973988D01*
X1156287Y1973769D01*
X1155626Y1973566D01*
X1155534Y1973516D01*
X1155436Y1973483D01*
X1154839Y1973140D01*
X1154232Y1972811D01*
X1154152Y1972744D01*
X1154062Y1972693D01*
X1153063Y1971845D01*
X1110832Y1929614D01*
X1110766Y1929534D01*
X1110687Y1929466D01*
X1110264Y1928921D01*
X1109827Y1928388D01*
X1109779Y1928296D01*
X1109715Y1928214D01*
X1109408Y1927597D01*
X1109085Y1926987D01*
X1109055Y1926888D01*
X1109008Y1926794D01*
X1108829Y1926130D01*
X1108633Y1925468D01*
X1108623Y1925364D01*
X1108596Y1925264D01*
X1108489Y1923958D01*
X1108489Y1923335D01*
X1100287Y1915133D01*
X1087148Y1915133D01*
X1087045Y1915123D01*
X1086941Y1915130D01*
X1086258Y1915044D01*
X1085571Y1914976D01*
X1085471Y1914945D01*
X1085368Y1914932D01*
X1084716Y1914714D01*
X1084055Y1914511D01*
X1083963Y1914461D01*
X1083865Y1914428D01*
X1083267Y1914085D01*
X1082661Y1913756D01*
X1082581Y1913690D01*
X1082491Y1913638D01*
X1081492Y1912790D01*
X1069951Y1901249D01*
X1055984Y1895464D01*
X1040866Y1895464D01*
X1026900Y1901249D01*
X1016210Y1911939D01*
X1010424Y1925906D01*
X1010424Y1941023D01*
X1016210Y1954990D01*
X1026900Y1965680D01*
X1040866Y1971465D01*
X1055984Y1971465D01*
X1069951Y1965680D01*
X1080641Y1954990D01*
X1080736Y1954760D01*
X1080760Y1954714D01*
X1080776Y1954665D01*
X1081132Y1954020D01*
X1081484Y1953363D01*
X1081518Y1953322D01*
X1081543Y1953277D01*
X1082020Y1952715D01*
X1082494Y1952141D01*
X1082535Y1952108D01*
X1082568Y1952068D01*
X1083148Y1951610D01*
X1083725Y1951142D01*
X1083771Y1951117D01*
X1083812Y1951085D01*
X1084467Y1950752D01*
X1085129Y1950405D01*
X1085179Y1950390D01*
X1085225Y1950367D01*
X1085934Y1950169D01*
X1086650Y1949959D01*
X1086702Y1949955D01*
X1086752Y1949941D01*
X1087486Y1949887D01*
X1088229Y1949823D01*
X1088282Y1949829D01*
X1088333Y1949825D01*
X1089065Y1949917D01*
X1089805Y1950000D01*
X1089855Y1950016D01*
X1089906Y1950023D01*
X1090607Y1950258D01*
X1091314Y1950485D01*
X1091360Y1950510D01*
X1091409Y1950527D01*
X1092053Y1950897D01*
X1092698Y1951258D01*
X1092738Y1951292D01*
X1092783Y1951318D01*
X1093782Y1952165D01*
X1143807Y2002190D01*
X1269579Y2002190D01*
X1280123Y1991645D01*
X1300700Y1971068D01*
X1300781Y1971002D01*
X1300849Y1970923D01*
X1301394Y1970500D01*
X1301927Y1970064D01*
X1302019Y1970015D01*
X1302101Y1969951D01*
X1302718Y1969644D01*
X1303327Y1969321D01*
X1303427Y1969291D01*
X1303520Y1969245D01*
X1304185Y1969066D01*
X1304847Y1968869D01*
X1304951Y1968859D01*
X1305051Y1968832D01*
X1306357Y1968725D01*
X1527453Y1968725D01*
X1528945Y1967233D01*
X1528999Y1967189D01*
X1529043Y1967136D01*
X1529609Y1966689D01*
X1530171Y1966229D01*
X1530233Y1966196D01*
X1530287Y1966153D01*
X1530930Y1965827D01*
X1531572Y1965486D01*
X1531638Y1965466D01*
X1531700Y1965435D01*
X1532398Y1965240D01*
X1533091Y1965034D01*
X1533160Y1965028D01*
X1533227Y1965009D01*
X1533948Y1964956D01*
X1534670Y1964890D01*
X1534739Y1964898D01*
X1534808Y1964893D01*
X1535524Y1964983D01*
X1536246Y1965061D01*
X1536312Y1965082D01*
X1536381Y1965091D01*
X1537066Y1965320D01*
X1537758Y1965539D01*
X1537819Y1965573D01*
X1537884Y1965595D01*
X1538510Y1965955D01*
X1539145Y1966306D01*
X1539198Y1966351D01*
X1539258Y1966386D01*
X1540124Y1967120D01*
X1553390Y1972615D01*
X1627712Y1972615D01*
X1640944Y1967134D01*
X1651071Y1957007D01*
X1656552Y1943775D01*
X1656552Y1929453D01*
X1651071Y1916221D01*
X1640944Y1906094D01*
X1627712Y1900613D01*
X1627000Y1900613D01*
X1626462Y1900560D01*
X1625922Y1900540D01*
X1625676Y1900481D01*
X1625423Y1900456D01*
X1624906Y1900298D01*
X1624380Y1900172D01*
X1624150Y1900066D01*
X1623907Y1899991D01*
X1623432Y1899734D01*
X1622941Y1899507D01*
X1622736Y1899357D01*
X1622513Y1899236D01*
X1622098Y1898890D01*
X1621662Y1898571D01*
X1621491Y1898384D01*
X1621296Y1898221D01*
X1620956Y1897800D01*
X1620592Y1897401D01*
X1620461Y1897184D01*
X1620302Y1896986D01*
X1620053Y1896506D01*
X1619773Y1896043D01*
X1619688Y1895805D01*
X1619571Y1895579D01*
X1619421Y1895060D01*
X1619239Y1894551D01*
X1619203Y1894300D01*
X1619132Y1894056D01*
X1619088Y1893517D01*
X1619010Y1892982D01*
X1619023Y1892729D01*
X1619002Y1892476D01*
X1619065Y1891939D01*
X1619094Y1891399D01*
X1619157Y1891154D01*
X1619187Y1890901D01*
X1619354Y1890387D01*
X1619489Y1889864D01*
X1619599Y1889635D01*
X1619678Y1889394D01*
X1619943Y1888924D01*
X1620179Y1888436D01*
X1620332Y1888234D01*
X1620457Y1888013D01*
X1620810Y1887604D01*
X1621137Y1887173D01*
X1621327Y1887005D01*
X1621493Y1886813D01*
X1621920Y1886481D01*
X1622325Y1886124D01*
X1622545Y1885996D01*
X1622745Y1885841D01*
X1623229Y1885600D01*
X1623697Y1885329D01*
X1623970Y1885231D01*
X1624164Y1885135D01*
X1624470Y1885052D01*
X1624930Y1884887D01*
X1637419Y1881541D01*
X1660455Y1868241D01*
X1679265Y1849432D01*
X1692565Y1826396D01*
X1699449Y1800701D01*
X1699449Y1774102D01*
X1692565Y1748407D01*
X1679265Y1725371D01*
X1660455Y1706562D01*
X1637419Y1693262D01*
X1611725Y1686377D01*
X1585125Y1686377D01*
G37*
%LPD*%
%LPC*%
G36*
X326509Y1705401D02*
X326509Y1705401D01*
X314852Y1717058D01*
X314771Y1717124D01*
X314703Y1717203D01*
X314158Y1717626D01*
X313625Y1718062D01*
X313533Y1718111D01*
X313451Y1718175D01*
X312834Y1718482D01*
X312225Y1718805D01*
X312125Y1718835D01*
X312032Y1718881D01*
X311367Y1719060D01*
X310705Y1719257D01*
X310601Y1719267D01*
X310501Y1719294D01*
X309195Y1719401D01*
X259805Y1719401D01*
X253189Y1722141D01*
X166430Y1808900D01*
X166350Y1808966D01*
X166282Y1809045D01*
X165736Y1809468D01*
X165203Y1809905D01*
X165112Y1809953D01*
X165029Y1810017D01*
X164412Y1810324D01*
X163803Y1810648D01*
X163703Y1810677D01*
X163610Y1810724D01*
X162945Y1810903D01*
X162283Y1811100D01*
X162180Y1811109D01*
X162079Y1811136D01*
X160774Y1811243D01*
X116382Y1811243D01*
X103151Y1816724D01*
X93023Y1826851D01*
X87543Y1840083D01*
X87543Y1854405D01*
X93023Y1867637D01*
X103151Y1877764D01*
X116382Y1883245D01*
X190704Y1883245D01*
X203936Y1877764D01*
X214112Y1867588D01*
X214193Y1867522D01*
X214261Y1867443D01*
X214806Y1867020D01*
X215339Y1866583D01*
X215431Y1866535D01*
X215513Y1866471D01*
X216130Y1866164D01*
X216739Y1865840D01*
X216839Y1865811D01*
X216932Y1865764D01*
X217597Y1865585D01*
X218259Y1865388D01*
X218363Y1865379D01*
X218463Y1865352D01*
X219769Y1865245D01*
X724258Y1865245D01*
X724379Y1865257D01*
X724500Y1865248D01*
X725166Y1865335D01*
X725835Y1865402D01*
X725951Y1865438D01*
X726072Y1865453D01*
X727319Y1865854D01*
X740866Y1871465D01*
X755984Y1871465D01*
X769951Y1865680D01*
X780641Y1854990D01*
X786426Y1841023D01*
X786426Y1825906D01*
X780641Y1811939D01*
X769951Y1801249D01*
X755984Y1795464D01*
X740866Y1795464D01*
X726900Y1801249D01*
X716210Y1811939D01*
X711087Y1824305D01*
X711046Y1824382D01*
X711020Y1824464D01*
X710673Y1825078D01*
X710339Y1825703D01*
X710283Y1825770D01*
X710241Y1825845D01*
X709780Y1826379D01*
X709329Y1826925D01*
X709262Y1826979D01*
X709205Y1827045D01*
X708646Y1827479D01*
X708098Y1827924D01*
X708021Y1827964D01*
X707953Y1828017D01*
X707319Y1828333D01*
X706694Y1828661D01*
X706612Y1828685D01*
X706533Y1828724D01*
X705849Y1828908D01*
X705173Y1829106D01*
X705086Y1829114D01*
X705003Y1829136D01*
X703697Y1829243D01*
X219769Y1829243D01*
X219665Y1829233D01*
X219561Y1829241D01*
X218878Y1829155D01*
X218191Y1829086D01*
X218092Y1829056D01*
X217988Y1829043D01*
X217336Y1828824D01*
X216676Y1828621D01*
X216584Y1828571D01*
X216485Y1828539D01*
X215889Y1828195D01*
X215281Y1827866D01*
X215202Y1827800D01*
X215111Y1827748D01*
X214112Y1826900D01*
X212384Y1825172D01*
X212340Y1825118D01*
X212287Y1825074D01*
X211841Y1824508D01*
X211380Y1823946D01*
X211347Y1823884D01*
X211304Y1823830D01*
X210978Y1823188D01*
X210637Y1822545D01*
X210617Y1822478D01*
X210586Y1822417D01*
X210392Y1821723D01*
X210185Y1821026D01*
X210179Y1820956D01*
X210160Y1820890D01*
X210107Y1820172D01*
X210042Y1819447D01*
X210049Y1819377D01*
X210044Y1819309D01*
X210134Y1818594D01*
X210212Y1817871D01*
X210233Y1817804D01*
X210242Y1817736D01*
X210472Y1817050D01*
X210691Y1816359D01*
X210724Y1816299D01*
X210746Y1816233D01*
X211108Y1815605D01*
X211457Y1814972D01*
X211502Y1814919D01*
X211537Y1814859D01*
X212384Y1813860D01*
X268499Y1757745D01*
X268579Y1757679D01*
X268647Y1757600D01*
X269193Y1757177D01*
X269726Y1756741D01*
X269817Y1756692D01*
X269900Y1756628D01*
X270517Y1756321D01*
X271126Y1755998D01*
X271226Y1755968D01*
X271319Y1755922D01*
X271984Y1755743D01*
X272646Y1755546D01*
X272750Y1755536D01*
X272850Y1755509D01*
X274155Y1755402D01*
X309195Y1755402D01*
X309299Y1755413D01*
X309403Y1755405D01*
X310086Y1755491D01*
X310773Y1755559D01*
X310872Y1755590D01*
X310976Y1755603D01*
X311628Y1755822D01*
X312288Y1756024D01*
X312380Y1756074D01*
X312478Y1756107D01*
X313075Y1756450D01*
X313682Y1756779D01*
X313762Y1756846D01*
X313852Y1756898D01*
X314852Y1757745D01*
X326509Y1769402D01*
X353019Y1769402D01*
X371764Y1750656D01*
X371764Y1724147D01*
X353019Y1705401D01*
X326509Y1705401D01*
G37*
%LPD*%
%LPC*%
G36*
X1163789Y134196D02*
X1163789Y134196D01*
X1130342Y148050D01*
X1104743Y173649D01*
X1096207Y194258D01*
X1096165Y194335D01*
X1096139Y194417D01*
X1095792Y195032D01*
X1095458Y195655D01*
X1095402Y195722D01*
X1095360Y195798D01*
X1094898Y196332D01*
X1094448Y196878D01*
X1094381Y196932D01*
X1094324Y196998D01*
X1093765Y197432D01*
X1093217Y197877D01*
X1093140Y197917D01*
X1093072Y197970D01*
X1092436Y198286D01*
X1091813Y198613D01*
X1091731Y198637D01*
X1091653Y198676D01*
X1090968Y198861D01*
X1090292Y199059D01*
X1090205Y199066D01*
X1090122Y199089D01*
X1088816Y199196D01*
X967937Y199196D01*
X967868Y199189D01*
X967799Y199195D01*
X967080Y199111D01*
X966359Y199039D01*
X966293Y199019D01*
X966224Y199011D01*
X965538Y198787D01*
X964844Y198574D01*
X964782Y198541D01*
X964717Y198519D01*
X964089Y198165D01*
X963450Y197819D01*
X963396Y197775D01*
X963336Y197741D01*
X962788Y197267D01*
X962232Y196804D01*
X962188Y196750D01*
X962136Y196705D01*
X961691Y196131D01*
X961635Y196062D01*
X956422Y190850D01*
X866412Y190850D01*
X862897Y194365D01*
X862897Y254454D01*
X866412Y257969D01*
X956423Y257969D01*
X960851Y253540D01*
X960931Y253475D01*
X961000Y253396D01*
X961545Y252972D01*
X962078Y252536D01*
X962170Y252487D01*
X962252Y252423D01*
X962868Y252117D01*
X963478Y251793D01*
X963578Y251764D01*
X963671Y251717D01*
X964338Y251537D01*
X964998Y251341D01*
X965101Y251332D01*
X965202Y251305D01*
X966508Y251197D01*
X1088816Y251197D01*
X1088902Y251206D01*
X1088989Y251199D01*
X1089691Y251285D01*
X1090394Y251355D01*
X1090477Y251380D01*
X1090563Y251391D01*
X1091233Y251612D01*
X1091909Y251820D01*
X1091986Y251861D01*
X1092068Y251888D01*
X1092682Y252238D01*
X1093303Y252575D01*
X1093370Y252630D01*
X1093445Y252673D01*
X1093978Y253137D01*
X1094521Y253589D01*
X1094576Y253657D01*
X1094641Y253714D01*
X1095072Y254274D01*
X1095515Y254825D01*
X1095555Y254901D01*
X1095608Y254970D01*
X1096207Y256136D01*
X1104743Y276744D01*
X1130342Y302344D01*
X1163789Y316197D01*
X1199991Y316197D01*
X1233437Y302344D01*
X1259036Y276744D01*
X1272890Y243298D01*
X1272890Y207096D01*
X1259036Y173649D01*
X1233437Y148050D01*
X1199991Y134196D01*
X1163789Y134196D01*
G37*
%LPD*%
%LPC*%
G36*
X1040706Y738913D02*
X1040706Y738913D01*
X1024902Y745459D01*
X1012805Y757555D01*
X1006259Y773360D01*
X1006259Y790467D01*
X1012805Y806271D01*
X1024902Y818368D01*
X1026321Y818955D01*
X1026397Y818996D01*
X1026480Y819023D01*
X1027095Y819370D01*
X1027718Y819704D01*
X1027785Y819759D01*
X1027861Y819802D01*
X1028397Y820265D01*
X1028940Y820714D01*
X1028995Y820781D01*
X1029061Y820838D01*
X1029495Y821397D01*
X1029940Y821945D01*
X1029980Y822022D01*
X1030033Y822090D01*
X1030348Y822723D01*
X1030676Y823348D01*
X1030701Y823431D01*
X1030739Y823509D01*
X1030923Y824190D01*
X1031122Y824870D01*
X1031129Y824957D01*
X1031152Y825040D01*
X1031259Y826346D01*
X1031259Y894098D01*
X1031250Y894184D01*
X1031257Y894271D01*
X1031172Y894974D01*
X1031102Y895676D01*
X1031077Y895758D01*
X1031066Y895845D01*
X1030845Y896515D01*
X1030637Y897191D01*
X1030595Y897268D01*
X1030568Y897350D01*
X1030221Y897960D01*
X1029882Y898586D01*
X1029827Y898652D01*
X1029784Y898727D01*
X1029320Y899260D01*
X1028867Y899803D01*
X1028800Y899857D01*
X1028743Y899923D01*
X1028180Y900356D01*
X1027632Y900797D01*
X1027555Y900837D01*
X1027486Y900890D01*
X1027018Y901130D01*
X1016210Y911939D01*
X1010424Y925906D01*
X1010424Y941023D01*
X1016210Y954990D01*
X1026900Y965680D01*
X1040866Y971465D01*
X1055984Y971465D01*
X1069951Y965680D01*
X1080605Y955025D01*
X1080659Y954981D01*
X1080704Y954928D01*
X1081272Y954480D01*
X1081832Y954021D01*
X1081893Y953988D01*
X1081948Y953945D01*
X1082590Y953619D01*
X1083233Y953278D01*
X1083299Y953258D01*
X1083361Y953227D01*
X1084058Y953032D01*
X1084752Y952826D01*
X1084821Y952820D01*
X1084888Y952801D01*
X1085609Y952748D01*
X1086331Y952682D01*
X1086400Y952690D01*
X1086469Y952685D01*
X1087184Y952775D01*
X1087907Y952853D01*
X1087973Y952874D01*
X1088042Y952883D01*
X1088729Y953113D01*
X1089418Y953331D01*
X1089479Y953365D01*
X1089545Y953387D01*
X1090174Y953749D01*
X1090806Y954098D01*
X1090859Y954143D01*
X1090919Y954178D01*
X1091918Y955025D01*
X1105420Y968527D01*
X1105486Y968608D01*
X1105565Y968676D01*
X1105988Y969221D01*
X1106424Y969754D01*
X1106473Y969845D01*
X1106537Y969928D01*
X1106844Y970545D01*
X1107167Y971154D01*
X1107197Y971254D01*
X1107243Y971347D01*
X1107422Y972012D01*
X1107619Y972674D01*
X1107629Y972778D01*
X1107656Y972878D01*
X1107763Y974183D01*
X1107763Y996326D01*
X1126509Y1015071D01*
X1153019Y1015071D01*
X1171764Y996326D01*
X1171764Y974183D01*
X1171775Y974080D01*
X1171767Y973976D01*
X1171853Y973293D01*
X1171922Y972606D01*
X1171952Y972506D01*
X1171965Y972403D01*
X1172184Y971751D01*
X1172387Y971090D01*
X1172436Y970999D01*
X1172469Y970900D01*
X1172813Y970303D01*
X1173141Y969696D01*
X1173208Y969617D01*
X1173260Y969526D01*
X1174107Y968527D01*
X1187314Y955321D01*
X1187315Y955320D01*
X1197859Y944776D01*
X1197859Y889169D01*
X1197864Y889117D01*
X1197859Y889065D01*
X1197943Y888326D01*
X1198016Y887592D01*
X1198031Y887542D01*
X1198037Y887490D01*
X1198263Y886787D01*
X1198481Y886076D01*
X1198506Y886030D01*
X1198522Y885981D01*
X1198882Y885336D01*
X1199236Y884682D01*
X1199269Y884642D01*
X1199295Y884596D01*
X1199777Y884032D01*
X1200251Y883464D01*
X1200291Y883431D01*
X1200325Y883392D01*
X1200910Y882934D01*
X1201486Y882470D01*
X1201532Y882446D01*
X1201573Y882414D01*
X1202235Y882082D01*
X1202893Y881740D01*
X1202943Y881725D01*
X1202990Y881702D01*
X1203704Y881506D01*
X1204416Y881301D01*
X1204468Y881297D01*
X1204519Y881283D01*
X1205259Y881232D01*
X1205996Y881171D01*
X1206048Y881177D01*
X1206100Y881174D01*
X1206836Y881269D01*
X1207571Y881355D01*
X1207621Y881372D01*
X1207672Y881378D01*
X1208920Y881779D01*
X1211774Y882961D01*
X1262065Y882961D01*
X1262169Y882972D01*
X1262272Y882964D01*
X1262956Y883050D01*
X1263643Y883118D01*
X1263742Y883149D01*
X1263845Y883162D01*
X1264497Y883381D01*
X1265158Y883583D01*
X1265250Y883633D01*
X1265348Y883666D01*
X1265945Y884009D01*
X1266552Y884338D01*
X1266632Y884405D01*
X1266722Y884457D01*
X1267721Y885304D01*
X1320512Y938095D01*
X1327128Y940835D01*
X1362908Y940835D01*
X1363012Y940846D01*
X1363116Y940838D01*
X1363799Y940924D01*
X1364486Y940992D01*
X1364586Y941023D01*
X1364689Y941036D01*
X1365341Y941255D01*
X1366001Y941457D01*
X1366093Y941507D01*
X1366192Y941540D01*
X1366788Y941883D01*
X1367396Y942212D01*
X1367476Y942279D01*
X1367566Y942331D01*
X1368565Y943178D01*
X1378741Y953355D01*
X1391973Y958835D01*
X1466295Y958835D01*
X1479526Y953355D01*
X1489654Y943227D01*
X1495134Y929996D01*
X1495134Y915674D01*
X1489654Y902442D01*
X1479526Y892315D01*
X1466295Y886834D01*
X1391973Y886834D01*
X1378741Y892315D01*
X1368565Y902491D01*
X1368484Y902557D01*
X1368416Y902636D01*
X1367871Y903059D01*
X1367338Y903495D01*
X1367246Y903544D01*
X1367164Y903608D01*
X1366547Y903915D01*
X1365938Y904238D01*
X1365838Y904268D01*
X1365745Y904314D01*
X1365080Y904493D01*
X1364418Y904690D01*
X1364314Y904700D01*
X1364214Y904727D01*
X1362908Y904834D01*
X1341478Y904834D01*
X1341375Y904824D01*
X1341271Y904831D01*
X1340587Y904745D01*
X1339901Y904677D01*
X1339801Y904646D01*
X1339698Y904633D01*
X1339046Y904414D01*
X1338385Y904212D01*
X1338293Y904162D01*
X1338195Y904129D01*
X1337598Y903786D01*
X1336991Y903457D01*
X1336911Y903390D01*
X1336821Y903338D01*
X1335822Y902491D01*
X1283031Y849700D01*
X1276415Y846960D01*
X1226124Y846960D01*
X1226020Y846950D01*
X1225917Y846957D01*
X1225232Y846871D01*
X1224546Y846803D01*
X1224447Y846772D01*
X1224344Y846759D01*
X1223689Y846540D01*
X1223031Y846338D01*
X1222939Y846288D01*
X1222841Y846255D01*
X1222242Y845911D01*
X1221637Y845583D01*
X1221557Y845516D01*
X1221467Y845464D01*
X1220468Y844617D01*
X1218202Y842352D01*
X1218136Y842271D01*
X1218057Y842203D01*
X1217633Y841657D01*
X1217198Y841125D01*
X1217149Y841033D01*
X1217085Y840951D01*
X1216777Y840333D01*
X1216455Y839725D01*
X1216425Y839625D01*
X1216379Y839531D01*
X1216199Y838864D01*
X1216003Y838205D01*
X1215993Y838101D01*
X1215966Y838001D01*
X1215859Y836695D01*
X1215859Y820210D01*
X1197113Y801464D01*
X1170603Y801464D01*
X1151858Y820210D01*
X1151858Y846719D01*
X1167515Y862377D01*
X1167581Y862457D01*
X1167659Y862525D01*
X1168083Y863070D01*
X1168519Y863603D01*
X1168568Y863695D01*
X1168632Y863777D01*
X1168939Y864394D01*
X1169262Y865004D01*
X1169291Y865103D01*
X1169338Y865197D01*
X1169516Y865859D01*
X1169714Y866523D01*
X1169723Y866627D01*
X1169750Y866727D01*
X1169858Y868033D01*
X1169858Y929864D01*
X1169847Y929967D01*
X1169855Y930071D01*
X1169769Y930754D01*
X1169700Y931441D01*
X1169670Y931541D01*
X1169657Y931644D01*
X1169438Y932296D01*
X1169235Y932957D01*
X1169186Y933048D01*
X1169153Y933147D01*
X1168809Y933743D01*
X1168480Y934351D01*
X1168414Y934431D01*
X1168362Y934521D01*
X1167515Y935520D01*
X1154307Y948727D01*
X1154227Y948793D01*
X1154159Y948872D01*
X1153613Y949296D01*
X1153081Y949732D01*
X1152989Y949780D01*
X1152907Y949844D01*
X1152290Y950151D01*
X1151680Y950474D01*
X1151581Y950504D01*
X1151487Y950550D01*
X1150820Y950730D01*
X1150161Y950926D01*
X1150057Y950936D01*
X1149957Y950963D01*
X1148651Y951070D01*
X1130876Y951070D01*
X1130773Y951060D01*
X1130669Y951067D01*
X1129986Y950981D01*
X1129299Y950913D01*
X1129199Y950882D01*
X1129096Y950869D01*
X1128444Y950651D01*
X1127783Y950448D01*
X1127691Y950398D01*
X1127593Y950365D01*
X1126997Y950022D01*
X1126389Y949693D01*
X1126309Y949626D01*
X1126219Y949575D01*
X1125220Y948727D01*
X1095957Y919464D01*
X1089102Y919464D01*
X1089016Y919455D01*
X1088930Y919462D01*
X1088228Y919377D01*
X1087525Y919307D01*
X1087442Y919281D01*
X1087356Y919271D01*
X1086688Y919050D01*
X1086009Y918842D01*
X1085933Y918800D01*
X1085851Y918773D01*
X1085239Y918424D01*
X1084615Y918087D01*
X1084548Y918031D01*
X1084473Y917988D01*
X1083942Y917526D01*
X1083398Y917072D01*
X1083343Y917004D01*
X1083278Y916947D01*
X1082847Y916387D01*
X1082404Y915837D01*
X1082364Y915760D01*
X1082311Y915691D01*
X1081712Y914526D01*
X1080641Y911939D01*
X1069603Y900902D01*
X1069537Y900821D01*
X1069459Y900753D01*
X1069035Y900208D01*
X1068599Y899675D01*
X1068550Y899583D01*
X1068486Y899501D01*
X1068179Y898884D01*
X1067856Y898275D01*
X1067827Y898175D01*
X1067780Y898082D01*
X1067601Y897417D01*
X1067404Y896755D01*
X1067395Y896651D01*
X1067368Y896551D01*
X1067260Y895245D01*
X1067260Y826346D01*
X1067269Y826259D01*
X1067262Y826173D01*
X1067348Y825471D01*
X1067418Y824768D01*
X1067443Y824685D01*
X1067453Y824599D01*
X1067676Y823928D01*
X1067883Y823253D01*
X1067924Y823176D01*
X1067951Y823094D01*
X1068300Y822482D01*
X1068638Y821859D01*
X1068693Y821792D01*
X1068736Y821717D01*
X1069198Y821186D01*
X1069652Y820641D01*
X1069720Y820586D01*
X1069777Y820521D01*
X1070338Y820089D01*
X1070888Y819647D01*
X1070964Y819607D01*
X1071033Y819554D01*
X1072199Y818955D01*
X1073618Y818368D01*
X1085714Y806271D01*
X1092260Y790467D01*
X1092260Y773360D01*
X1085714Y757555D01*
X1073618Y745459D01*
X1057813Y738913D01*
X1040706Y738913D01*
G37*
%LPD*%
%LPC*%
G36*
X499333Y188984D02*
X499333Y188984D01*
X485734Y194616D01*
X477985Y202365D01*
X477905Y202431D01*
X477837Y202510D01*
X477291Y202933D01*
X476758Y203369D01*
X476667Y203418D01*
X476584Y203482D01*
X475967Y203789D01*
X475358Y204112D01*
X475258Y204142D01*
X475165Y204188D01*
X474500Y204367D01*
X473838Y204564D01*
X473734Y204574D01*
X473634Y204601D01*
X472329Y204708D01*
X284210Y204708D01*
X284106Y204698D01*
X284002Y204705D01*
X283319Y204619D01*
X282632Y204551D01*
X282532Y204520D01*
X282429Y204507D01*
X281777Y204289D01*
X281117Y204086D01*
X281025Y204036D01*
X280926Y204003D01*
X280330Y203660D01*
X279722Y203331D01*
X279642Y203264D01*
X279552Y203212D01*
X278553Y202365D01*
X276377Y200189D01*
X263145Y194708D01*
X188823Y194708D01*
X175592Y200189D01*
X165464Y210316D01*
X159984Y223548D01*
X159984Y237870D01*
X165464Y251101D01*
X175592Y261229D01*
X188823Y266709D01*
X263145Y266709D01*
X276377Y261229D01*
X278553Y259052D01*
X278634Y258986D01*
X278702Y258907D01*
X279247Y258484D01*
X279780Y258048D01*
X279872Y257999D01*
X279954Y257935D01*
X280571Y257628D01*
X281180Y257305D01*
X281280Y257275D01*
X281373Y257229D01*
X282038Y257050D01*
X282700Y256853D01*
X282804Y256844D01*
X282904Y256817D01*
X284210Y256709D01*
X482591Y256709D01*
X482712Y256721D01*
X482833Y256713D01*
X483499Y256800D01*
X484169Y256866D01*
X484285Y256902D01*
X484405Y256918D01*
X485652Y257318D01*
X499333Y262985D01*
X514053Y262985D01*
X527652Y257352D01*
X530676Y254328D01*
X530757Y254262D01*
X530825Y254183D01*
X531370Y253760D01*
X531903Y253323D01*
X531995Y253275D01*
X532077Y253211D01*
X532694Y252904D01*
X533303Y252581D01*
X533403Y252551D01*
X533496Y252505D01*
X534161Y252325D01*
X534823Y252129D01*
X534927Y252119D01*
X535027Y252092D01*
X536333Y251985D01*
X711445Y251985D01*
X711549Y251995D01*
X711653Y251988D01*
X712336Y252074D01*
X713023Y252142D01*
X713122Y252173D01*
X713225Y252186D01*
X713878Y252404D01*
X714538Y252607D01*
X714630Y252657D01*
X714728Y252690D01*
X715327Y253034D01*
X715932Y253362D01*
X716012Y253428D01*
X716102Y253480D01*
X717102Y254328D01*
X720743Y257969D01*
X810753Y257969D01*
X814268Y254454D01*
X814268Y194365D01*
X810753Y190850D01*
X720743Y190850D01*
X716645Y194947D01*
X716605Y195077D01*
X716572Y195139D01*
X716551Y195204D01*
X716198Y195831D01*
X715851Y196471D01*
X715806Y196525D01*
X715772Y196585D01*
X715299Y197133D01*
X714836Y197689D01*
X714782Y197733D01*
X714736Y197785D01*
X714163Y198231D01*
X713600Y198683D01*
X713539Y198715D01*
X713484Y198758D01*
X712834Y199081D01*
X712194Y199414D01*
X712127Y199433D01*
X712065Y199464D01*
X711364Y199653D01*
X710670Y199852D01*
X710601Y199858D01*
X710534Y199876D01*
X709228Y199984D01*
X536333Y199984D01*
X536229Y199973D01*
X536125Y199981D01*
X535442Y199895D01*
X534755Y199826D01*
X534655Y199796D01*
X534552Y199783D01*
X533900Y199564D01*
X533239Y199361D01*
X533148Y199312D01*
X533049Y199279D01*
X532453Y198935D01*
X531845Y198606D01*
X531765Y198540D01*
X531675Y198488D01*
X530676Y197641D01*
X527652Y194616D01*
X514053Y188984D01*
X499333Y188984D01*
G37*
%LPD*%
%LPC*%
G36*
X148117Y1528897D02*
X148117Y1528897D01*
X122423Y1535782D01*
X99387Y1549081D01*
X80578Y1567891D01*
X67278Y1590927D01*
X60393Y1616621D01*
X60393Y1643221D01*
X67278Y1668915D01*
X80578Y1691951D01*
X99387Y1710761D01*
X122423Y1724061D01*
X148117Y1730945D01*
X174717Y1730945D01*
X200411Y1724061D01*
X223447Y1710761D01*
X242257Y1691951D01*
X255557Y1668915D01*
X262442Y1643221D01*
X262442Y1616621D01*
X255557Y1590927D01*
X242257Y1567891D01*
X223447Y1549081D01*
X200411Y1535782D01*
X174717Y1528897D01*
X148117Y1528897D01*
G37*
%LPD*%
%LPC*%
G36*
X1577251Y450157D02*
X1577251Y450157D01*
X1551557Y457041D01*
X1528521Y470341D01*
X1509711Y489151D01*
X1496412Y512187D01*
X1489527Y537881D01*
X1489527Y564481D01*
X1496412Y590175D01*
X1509711Y613211D01*
X1528521Y632021D01*
X1551557Y645321D01*
X1577251Y652205D01*
X1603851Y652205D01*
X1629545Y645321D01*
X1652581Y632021D01*
X1671391Y613211D01*
X1684691Y590175D01*
X1691575Y564481D01*
X1691575Y537881D01*
X1684691Y512187D01*
X1671391Y489151D01*
X1652581Y470341D01*
X1629545Y457041D01*
X1603851Y450157D01*
X1577251Y450157D01*
G37*
%LPD*%
%LPC*%
G36*
X152054Y619448D02*
X152054Y619448D01*
X126360Y626333D01*
X103324Y639633D01*
X84515Y658442D01*
X71215Y681478D01*
X64330Y707172D01*
X64330Y733772D01*
X71215Y759467D01*
X84515Y782503D01*
X103324Y801312D01*
X126360Y814612D01*
X152054Y821497D01*
X178654Y821497D01*
X204348Y814612D01*
X227384Y801312D01*
X246194Y782503D01*
X259494Y759467D01*
X266379Y733772D01*
X266379Y707172D01*
X259494Y681478D01*
X246194Y658442D01*
X227384Y639633D01*
X204348Y626333D01*
X178654Y619448D01*
X152054Y619448D01*
G37*
%LPD*%
%LPC*%
G36*
X740866Y995464D02*
X740866Y995464D01*
X726900Y1001249D01*
X716210Y1011939D01*
X713671Y1018069D01*
X713629Y1018146D01*
X713603Y1018228D01*
X713256Y1018843D01*
X712922Y1019466D01*
X712866Y1019533D01*
X712824Y1019609D01*
X712362Y1020143D01*
X711912Y1020689D01*
X711845Y1020743D01*
X711788Y1020809D01*
X711229Y1021243D01*
X710681Y1021688D01*
X710604Y1021728D01*
X710536Y1021781D01*
X709903Y1022096D01*
X709277Y1022424D01*
X709194Y1022449D01*
X709117Y1022487D01*
X708434Y1022671D01*
X707756Y1022870D01*
X707669Y1022877D01*
X707586Y1022900D01*
X706280Y1023007D01*
X215757Y1023007D01*
X215670Y1022999D01*
X215584Y1023005D01*
X214881Y1022920D01*
X214179Y1022850D01*
X214096Y1022825D01*
X214010Y1022814D01*
X213340Y1022593D01*
X212663Y1022385D01*
X212587Y1022344D01*
X212505Y1022316D01*
X211892Y1021967D01*
X211269Y1021630D01*
X211203Y1021574D01*
X211127Y1021531D01*
X210594Y1021067D01*
X210052Y1020615D01*
X209997Y1020548D01*
X209932Y1020491D01*
X209499Y1019928D01*
X209058Y1019380D01*
X209018Y1019303D01*
X208965Y1019234D01*
X208366Y1018069D01*
X207764Y1016615D01*
X197637Y1006488D01*
X184405Y1001007D01*
X110083Y1001007D01*
X96851Y1006488D01*
X86724Y1016615D01*
X81243Y1029847D01*
X81243Y1044169D01*
X86724Y1057400D01*
X96851Y1067528D01*
X110083Y1073008D01*
X184405Y1073008D01*
X197637Y1067528D01*
X207764Y1057400D01*
X208366Y1055947D01*
X208407Y1055870D01*
X208434Y1055788D01*
X208781Y1055173D01*
X209115Y1054549D01*
X209170Y1054482D01*
X209213Y1054407D01*
X209675Y1053872D01*
X210125Y1053327D01*
X210192Y1053272D01*
X210249Y1053207D01*
X210806Y1052774D01*
X211355Y1052328D01*
X211433Y1052288D01*
X211501Y1052234D01*
X212133Y1051920D01*
X212759Y1051591D01*
X212842Y1051567D01*
X212920Y1051528D01*
X213603Y1051344D01*
X214281Y1051146D01*
X214367Y1051138D01*
X214451Y1051116D01*
X215757Y1051008D01*
X709216Y1051008D01*
X709302Y1051017D01*
X709389Y1051010D01*
X710091Y1051096D01*
X710793Y1051166D01*
X710876Y1051191D01*
X710963Y1051202D01*
X711632Y1051423D01*
X712309Y1051631D01*
X712385Y1051672D01*
X712468Y1051699D01*
X713080Y1052048D01*
X713703Y1052386D01*
X713770Y1052441D01*
X713845Y1052484D01*
X714376Y1052947D01*
X714921Y1053400D01*
X714975Y1053468D01*
X715041Y1053525D01*
X715473Y1054087D01*
X715914Y1054636D01*
X715954Y1054712D01*
X716008Y1054782D01*
X716014Y1054794D01*
X726900Y1065680D01*
X740866Y1071465D01*
X755984Y1071465D01*
X769951Y1065680D01*
X780641Y1054990D01*
X786426Y1041023D01*
X786426Y1025906D01*
X780641Y1011939D01*
X769951Y1001249D01*
X755984Y995464D01*
X740866Y995464D01*
G37*
%LPD*%
%LPC*%
G36*
X740866Y1395464D02*
X740866Y1395464D01*
X726900Y1401249D01*
X716210Y1411939D01*
X713671Y1418069D01*
X713629Y1418146D01*
X713603Y1418228D01*
X713256Y1418843D01*
X712922Y1419466D01*
X712866Y1419533D01*
X712824Y1419609D01*
X712362Y1420143D01*
X711912Y1420689D01*
X711845Y1420743D01*
X711788Y1420809D01*
X711229Y1421243D01*
X710681Y1421688D01*
X710604Y1421728D01*
X710536Y1421781D01*
X709903Y1422096D01*
X709277Y1422424D01*
X709194Y1422449D01*
X709117Y1422487D01*
X708434Y1422671D01*
X707756Y1422870D01*
X707669Y1422877D01*
X707586Y1422900D01*
X706280Y1423007D01*
X215757Y1423007D01*
X215670Y1422999D01*
X215584Y1423005D01*
X214881Y1422920D01*
X214179Y1422850D01*
X214096Y1422825D01*
X214010Y1422814D01*
X213340Y1422593D01*
X212663Y1422385D01*
X212587Y1422344D01*
X212505Y1422316D01*
X211892Y1421967D01*
X211269Y1421630D01*
X211203Y1421574D01*
X211127Y1421531D01*
X210594Y1421067D01*
X210052Y1420615D01*
X209997Y1420548D01*
X209932Y1420491D01*
X209499Y1419928D01*
X209058Y1419380D01*
X209018Y1419303D01*
X208965Y1419234D01*
X208366Y1418069D01*
X207764Y1416615D01*
X197637Y1406488D01*
X184405Y1401007D01*
X110083Y1401007D01*
X96851Y1406488D01*
X86724Y1416615D01*
X81243Y1429847D01*
X81243Y1444169D01*
X86724Y1457400D01*
X96851Y1467528D01*
X110083Y1473008D01*
X184405Y1473008D01*
X197637Y1467528D01*
X207764Y1457400D01*
X208366Y1455947D01*
X208407Y1455870D01*
X208434Y1455788D01*
X208781Y1455173D01*
X209115Y1454549D01*
X209170Y1454482D01*
X209213Y1454407D01*
X209674Y1453873D01*
X210125Y1453327D01*
X210192Y1453272D01*
X210249Y1453207D01*
X210806Y1452774D01*
X211355Y1452328D01*
X211433Y1452288D01*
X211501Y1452234D01*
X212133Y1451920D01*
X212759Y1451591D01*
X212842Y1451567D01*
X212920Y1451528D01*
X213603Y1451344D01*
X214281Y1451146D01*
X214367Y1451138D01*
X214451Y1451116D01*
X215757Y1451008D01*
X709216Y1451008D01*
X709302Y1451017D01*
X709389Y1451010D01*
X710091Y1451096D01*
X710793Y1451166D01*
X710876Y1451191D01*
X710963Y1451202D01*
X711632Y1451423D01*
X712309Y1451631D01*
X712385Y1451672D01*
X712468Y1451699D01*
X713080Y1452048D01*
X713703Y1452386D01*
X713770Y1452441D01*
X713845Y1452484D01*
X714376Y1452947D01*
X714921Y1453400D01*
X714975Y1453468D01*
X715041Y1453525D01*
X715473Y1454087D01*
X715914Y1454636D01*
X715954Y1454712D01*
X716008Y1454782D01*
X716014Y1454794D01*
X726900Y1465680D01*
X740866Y1471465D01*
X755984Y1471465D01*
X769951Y1465680D01*
X780641Y1454990D01*
X786426Y1441023D01*
X786426Y1425906D01*
X780641Y1411939D01*
X769951Y1401249D01*
X755984Y1395464D01*
X740866Y1395464D01*
G37*
%LPD*%
%LPC*%
G36*
X740866Y895464D02*
X740866Y895464D01*
X726900Y901249D01*
X716210Y911939D01*
X713671Y918069D01*
X713629Y918146D01*
X713603Y918228D01*
X713256Y918843D01*
X712922Y919466D01*
X712866Y919533D01*
X712824Y919609D01*
X712362Y920143D01*
X711912Y920689D01*
X711845Y920743D01*
X711788Y920809D01*
X711229Y921243D01*
X710681Y921688D01*
X710604Y921728D01*
X710536Y921781D01*
X709903Y922096D01*
X709277Y922424D01*
X709194Y922449D01*
X709117Y922487D01*
X708434Y922671D01*
X707756Y922870D01*
X707669Y922877D01*
X707586Y922900D01*
X706280Y923007D01*
X215757Y923007D01*
X215670Y922999D01*
X215584Y923005D01*
X214881Y922920D01*
X214179Y922850D01*
X214096Y922825D01*
X214010Y922814D01*
X213340Y922593D01*
X212663Y922385D01*
X212587Y922344D01*
X212505Y922316D01*
X211892Y921967D01*
X211269Y921630D01*
X211203Y921574D01*
X211127Y921531D01*
X210594Y921067D01*
X210052Y920615D01*
X209997Y920548D01*
X209932Y920491D01*
X209499Y919928D01*
X209058Y919380D01*
X209018Y919303D01*
X208965Y919234D01*
X208366Y918069D01*
X207764Y916615D01*
X197637Y906488D01*
X184405Y901007D01*
X110083Y901007D01*
X96851Y906488D01*
X86724Y916615D01*
X81243Y929847D01*
X81243Y944169D01*
X86724Y957400D01*
X96851Y967528D01*
X110083Y973008D01*
X184405Y973008D01*
X197637Y967528D01*
X207764Y957400D01*
X208366Y955947D01*
X208407Y955870D01*
X208434Y955788D01*
X208781Y955173D01*
X209115Y954549D01*
X209170Y954482D01*
X209213Y954407D01*
X209674Y953873D01*
X210125Y953327D01*
X210192Y953272D01*
X210249Y953207D01*
X210806Y952774D01*
X211355Y952328D01*
X211433Y952288D01*
X211501Y952234D01*
X212133Y951920D01*
X212759Y951591D01*
X212842Y951567D01*
X212920Y951528D01*
X213603Y951344D01*
X214281Y951146D01*
X214367Y951138D01*
X214451Y951116D01*
X215757Y951008D01*
X709216Y951008D01*
X709302Y951017D01*
X709389Y951010D01*
X710091Y951096D01*
X710793Y951166D01*
X710876Y951191D01*
X710963Y951202D01*
X711632Y951423D01*
X712309Y951631D01*
X712385Y951672D01*
X712468Y951699D01*
X713080Y952048D01*
X713703Y952386D01*
X713770Y952441D01*
X713845Y952484D01*
X714376Y952947D01*
X714921Y953400D01*
X714975Y953468D01*
X715041Y953525D01*
X715473Y954087D01*
X715914Y954636D01*
X715954Y954712D01*
X716008Y954782D01*
X716014Y954794D01*
X726900Y965680D01*
X740866Y971465D01*
X755984Y971465D01*
X769951Y965680D01*
X780641Y954990D01*
X786426Y941023D01*
X786426Y925906D01*
X780641Y911939D01*
X769951Y901249D01*
X755984Y895464D01*
X740866Y895464D01*
G37*
%LPD*%
%LPC*%
G36*
X740866Y1295464D02*
X740866Y1295464D01*
X726900Y1301249D01*
X716210Y1311939D01*
X713671Y1318069D01*
X713629Y1318146D01*
X713603Y1318228D01*
X713256Y1318843D01*
X712922Y1319466D01*
X712866Y1319533D01*
X712824Y1319609D01*
X712362Y1320143D01*
X711912Y1320689D01*
X711845Y1320743D01*
X711788Y1320809D01*
X711229Y1321243D01*
X710681Y1321688D01*
X710604Y1321728D01*
X710536Y1321781D01*
X709903Y1322096D01*
X709277Y1322424D01*
X709194Y1322449D01*
X709117Y1322487D01*
X708434Y1322671D01*
X707756Y1322870D01*
X707669Y1322877D01*
X707586Y1322900D01*
X706280Y1323007D01*
X215757Y1323007D01*
X215670Y1322999D01*
X215584Y1323005D01*
X214881Y1322920D01*
X214179Y1322850D01*
X214096Y1322825D01*
X214010Y1322814D01*
X213340Y1322593D01*
X212663Y1322385D01*
X212587Y1322344D01*
X212505Y1322316D01*
X211892Y1321967D01*
X211269Y1321630D01*
X211203Y1321574D01*
X211127Y1321531D01*
X210594Y1321067D01*
X210052Y1320615D01*
X209997Y1320548D01*
X209932Y1320491D01*
X209499Y1319928D01*
X209058Y1319380D01*
X209018Y1319303D01*
X208965Y1319234D01*
X208366Y1318069D01*
X207764Y1316615D01*
X197637Y1306488D01*
X184405Y1301007D01*
X110083Y1301007D01*
X96851Y1306488D01*
X86724Y1316615D01*
X81243Y1329847D01*
X81243Y1344169D01*
X86724Y1357400D01*
X96851Y1367528D01*
X110083Y1373008D01*
X184405Y1373008D01*
X197637Y1367528D01*
X207764Y1357400D01*
X208366Y1355947D01*
X208407Y1355870D01*
X208434Y1355788D01*
X208781Y1355173D01*
X209115Y1354549D01*
X209170Y1354482D01*
X209213Y1354407D01*
X209674Y1353873D01*
X210125Y1353327D01*
X210192Y1353272D01*
X210249Y1353207D01*
X210806Y1352774D01*
X211355Y1352328D01*
X211433Y1352288D01*
X211501Y1352234D01*
X212133Y1351920D01*
X212759Y1351591D01*
X212842Y1351567D01*
X212920Y1351528D01*
X213603Y1351344D01*
X214281Y1351146D01*
X214367Y1351138D01*
X214451Y1351116D01*
X215757Y1351008D01*
X709216Y1351008D01*
X709302Y1351017D01*
X709389Y1351010D01*
X710091Y1351096D01*
X710793Y1351166D01*
X710876Y1351191D01*
X710963Y1351202D01*
X711632Y1351423D01*
X712309Y1351631D01*
X712385Y1351672D01*
X712468Y1351699D01*
X713080Y1352048D01*
X713703Y1352386D01*
X713770Y1352441D01*
X713845Y1352484D01*
X714376Y1352947D01*
X714921Y1353400D01*
X714975Y1353468D01*
X715041Y1353525D01*
X715473Y1354087D01*
X715914Y1354636D01*
X715954Y1354712D01*
X716008Y1354782D01*
X716014Y1354794D01*
X726900Y1365680D01*
X740866Y1371465D01*
X755984Y1371465D01*
X769951Y1365680D01*
X780641Y1354990D01*
X786426Y1341023D01*
X786426Y1325906D01*
X780641Y1311939D01*
X769951Y1301249D01*
X755984Y1295464D01*
X740866Y1295464D01*
G37*
%LPD*%
%LPC*%
G36*
X740866Y1195464D02*
X740866Y1195464D01*
X726900Y1201249D01*
X716210Y1211939D01*
X713671Y1218069D01*
X713629Y1218146D01*
X713603Y1218228D01*
X713256Y1218843D01*
X712922Y1219466D01*
X712866Y1219533D01*
X712824Y1219609D01*
X712362Y1220143D01*
X711912Y1220689D01*
X711845Y1220743D01*
X711788Y1220809D01*
X711229Y1221243D01*
X710681Y1221688D01*
X710604Y1221728D01*
X710536Y1221781D01*
X709903Y1222096D01*
X709277Y1222424D01*
X709194Y1222449D01*
X709117Y1222487D01*
X708434Y1222671D01*
X707756Y1222870D01*
X707669Y1222877D01*
X707586Y1222900D01*
X706280Y1223007D01*
X215757Y1223007D01*
X215670Y1222999D01*
X215584Y1223005D01*
X214881Y1222920D01*
X214179Y1222850D01*
X214096Y1222825D01*
X214010Y1222814D01*
X213340Y1222593D01*
X212663Y1222385D01*
X212587Y1222344D01*
X212505Y1222316D01*
X211892Y1221967D01*
X211269Y1221630D01*
X211203Y1221574D01*
X211127Y1221531D01*
X210594Y1221067D01*
X210052Y1220615D01*
X209997Y1220548D01*
X209932Y1220491D01*
X209499Y1219928D01*
X209058Y1219380D01*
X209018Y1219303D01*
X208965Y1219234D01*
X208366Y1218069D01*
X207764Y1216615D01*
X197637Y1206488D01*
X184405Y1201007D01*
X110083Y1201007D01*
X96851Y1206488D01*
X86724Y1216615D01*
X81243Y1229847D01*
X81243Y1244169D01*
X86724Y1257400D01*
X96851Y1267528D01*
X110083Y1273008D01*
X184405Y1273008D01*
X197637Y1267528D01*
X207764Y1257400D01*
X208366Y1255947D01*
X208407Y1255870D01*
X208434Y1255788D01*
X208781Y1255173D01*
X209115Y1254549D01*
X209170Y1254482D01*
X209213Y1254407D01*
X209674Y1253873D01*
X210125Y1253327D01*
X210192Y1253272D01*
X210249Y1253207D01*
X210806Y1252774D01*
X211355Y1252328D01*
X211433Y1252288D01*
X211501Y1252234D01*
X212133Y1251920D01*
X212759Y1251591D01*
X212842Y1251567D01*
X212920Y1251528D01*
X213603Y1251344D01*
X214281Y1251146D01*
X214367Y1251138D01*
X214451Y1251116D01*
X215757Y1251008D01*
X709216Y1251008D01*
X709302Y1251017D01*
X709389Y1251010D01*
X710091Y1251096D01*
X710793Y1251166D01*
X710876Y1251191D01*
X710963Y1251202D01*
X711632Y1251423D01*
X712309Y1251631D01*
X712385Y1251672D01*
X712468Y1251699D01*
X713080Y1252048D01*
X713703Y1252386D01*
X713770Y1252441D01*
X713845Y1252484D01*
X714376Y1252947D01*
X714921Y1253400D01*
X714975Y1253468D01*
X715041Y1253525D01*
X715473Y1254087D01*
X715914Y1254636D01*
X715954Y1254712D01*
X716008Y1254782D01*
X716014Y1254794D01*
X726900Y1265680D01*
X740866Y1271465D01*
X755984Y1271465D01*
X769951Y1265680D01*
X780641Y1254990D01*
X786426Y1241023D01*
X786426Y1225906D01*
X780641Y1211939D01*
X769951Y1201249D01*
X755984Y1195464D01*
X740866Y1195464D01*
G37*
%LPD*%
%LPC*%
G36*
X740866Y1095464D02*
X740866Y1095464D01*
X726900Y1101249D01*
X716210Y1111939D01*
X713671Y1118069D01*
X713629Y1118146D01*
X713603Y1118228D01*
X713256Y1118843D01*
X712922Y1119466D01*
X712866Y1119533D01*
X712824Y1119609D01*
X712362Y1120143D01*
X711912Y1120689D01*
X711845Y1120743D01*
X711788Y1120809D01*
X711229Y1121243D01*
X710681Y1121688D01*
X710604Y1121728D01*
X710536Y1121781D01*
X709903Y1122096D01*
X709277Y1122424D01*
X709194Y1122449D01*
X709117Y1122487D01*
X708434Y1122671D01*
X707756Y1122870D01*
X707669Y1122877D01*
X707586Y1122900D01*
X706280Y1123007D01*
X215757Y1123007D01*
X215670Y1122999D01*
X215584Y1123005D01*
X214881Y1122920D01*
X214179Y1122850D01*
X214096Y1122825D01*
X214010Y1122814D01*
X213340Y1122593D01*
X212663Y1122385D01*
X212587Y1122344D01*
X212505Y1122316D01*
X211892Y1121967D01*
X211269Y1121630D01*
X211203Y1121574D01*
X211127Y1121531D01*
X210594Y1121067D01*
X210052Y1120615D01*
X209997Y1120548D01*
X209932Y1120491D01*
X209499Y1119928D01*
X209058Y1119380D01*
X209018Y1119303D01*
X208965Y1119234D01*
X208366Y1118069D01*
X207764Y1116615D01*
X197637Y1106488D01*
X184405Y1101007D01*
X110083Y1101007D01*
X96851Y1106488D01*
X86724Y1116615D01*
X81243Y1129847D01*
X81243Y1144169D01*
X86724Y1157400D01*
X96851Y1167528D01*
X110083Y1173008D01*
X184405Y1173008D01*
X197637Y1167528D01*
X207764Y1157400D01*
X208366Y1155947D01*
X208407Y1155870D01*
X208434Y1155788D01*
X208781Y1155173D01*
X209115Y1154549D01*
X209170Y1154482D01*
X209213Y1154407D01*
X209674Y1153873D01*
X210125Y1153327D01*
X210192Y1153272D01*
X210249Y1153207D01*
X210806Y1152774D01*
X211355Y1152328D01*
X211433Y1152288D01*
X211501Y1152234D01*
X212133Y1151920D01*
X212759Y1151591D01*
X212842Y1151567D01*
X212920Y1151528D01*
X213603Y1151344D01*
X214281Y1151146D01*
X214367Y1151138D01*
X214451Y1151116D01*
X215757Y1151008D01*
X709216Y1151008D01*
X709302Y1151017D01*
X709389Y1151010D01*
X710091Y1151096D01*
X710793Y1151166D01*
X710876Y1151191D01*
X710963Y1151202D01*
X711632Y1151423D01*
X712309Y1151631D01*
X712385Y1151672D01*
X712468Y1151699D01*
X713080Y1152048D01*
X713703Y1152386D01*
X713770Y1152441D01*
X713845Y1152484D01*
X714376Y1152947D01*
X714921Y1153400D01*
X714975Y1153468D01*
X715041Y1153525D01*
X715473Y1154087D01*
X715914Y1154636D01*
X715954Y1154712D01*
X716008Y1154782D01*
X716014Y1154794D01*
X726900Y1165680D01*
X740866Y1171465D01*
X755984Y1171465D01*
X769951Y1165680D01*
X780641Y1154990D01*
X786426Y1141023D01*
X786426Y1125906D01*
X780641Y1111939D01*
X769951Y1101249D01*
X755984Y1095464D01*
X740866Y1095464D01*
G37*
%LPD*%
%LPC*%
G36*
X740866Y1895464D02*
X740866Y1895464D01*
X726900Y1901249D01*
X716210Y1911939D01*
X710338Y1926115D01*
X710267Y1926822D01*
X710247Y1926888D01*
X710239Y1926957D01*
X710015Y1927643D01*
X709802Y1928337D01*
X709769Y1928399D01*
X709748Y1928464D01*
X709393Y1929092D01*
X709047Y1929731D01*
X709003Y1929785D01*
X708969Y1929845D01*
X708496Y1930393D01*
X708032Y1930949D01*
X707979Y1930992D01*
X707933Y1931045D01*
X707360Y1931490D01*
X706797Y1931943D01*
X706736Y1931975D01*
X706681Y1932017D01*
X706031Y1932341D01*
X705390Y1932673D01*
X705324Y1932693D01*
X705262Y1932724D01*
X704561Y1932913D01*
X703867Y1933112D01*
X703798Y1933118D01*
X703731Y1933136D01*
X702425Y1933243D01*
X222056Y1933243D01*
X221969Y1933235D01*
X221883Y1933242D01*
X221180Y1933156D01*
X220478Y1933086D01*
X220395Y1933061D01*
X220309Y1933050D01*
X219640Y1932829D01*
X218963Y1932621D01*
X218886Y1932580D01*
X218804Y1932553D01*
X218191Y1932203D01*
X217569Y1931866D01*
X217502Y1931811D01*
X217426Y1931768D01*
X216893Y1931303D01*
X216351Y1930851D01*
X216297Y1930784D01*
X216231Y1930727D01*
X215798Y1930164D01*
X215357Y1929616D01*
X215317Y1929539D01*
X215264Y1929470D01*
X214665Y1928305D01*
X214063Y1926851D01*
X203936Y1916724D01*
X190704Y1911243D01*
X116382Y1911243D01*
X103151Y1916724D01*
X93023Y1926851D01*
X87543Y1940083D01*
X87543Y1954405D01*
X93023Y1967637D01*
X103151Y1977764D01*
X116382Y1983245D01*
X190704Y1983245D01*
X203936Y1977764D01*
X214063Y1967637D01*
X214665Y1966183D01*
X214706Y1966106D01*
X214733Y1966024D01*
X215080Y1965409D01*
X215414Y1964786D01*
X215469Y1964719D01*
X215512Y1964643D01*
X215973Y1964109D01*
X216424Y1963563D01*
X216491Y1963509D01*
X216548Y1963443D01*
X217105Y1963010D01*
X217655Y1962564D01*
X217732Y1962524D01*
X217800Y1962471D01*
X218432Y1962156D01*
X219058Y1961828D01*
X219141Y1961803D01*
X219219Y1961764D01*
X219902Y1961580D01*
X220580Y1961382D01*
X220667Y1961375D01*
X220750Y1961352D01*
X222056Y1961245D01*
X719151Y1961245D01*
X719255Y1961255D01*
X719358Y1961247D01*
X720042Y1961333D01*
X720728Y1961402D01*
X720828Y1961432D01*
X720931Y1961445D01*
X721585Y1961665D01*
X722244Y1961867D01*
X722336Y1961916D01*
X722434Y1961950D01*
X723031Y1962293D01*
X723638Y1962622D01*
X723718Y1962689D01*
X723808Y1962740D01*
X724807Y1963588D01*
X726900Y1965680D01*
X740866Y1971465D01*
X755984Y1971465D01*
X769951Y1965680D01*
X780641Y1954990D01*
X786426Y1941023D01*
X786426Y1925906D01*
X780641Y1911939D01*
X769951Y1901249D01*
X755984Y1895464D01*
X740866Y1895464D01*
G37*
%LPD*%
%LPC*%
G36*
X740866Y2195464D02*
X740866Y2195464D01*
X726900Y2201249D01*
X716210Y2211939D01*
X710338Y2226115D01*
X710267Y2226822D01*
X710247Y2226888D01*
X710239Y2226957D01*
X710015Y2227643D01*
X709802Y2228337D01*
X709769Y2228399D01*
X709748Y2228464D01*
X709393Y2229092D01*
X709047Y2229731D01*
X709003Y2229785D01*
X708969Y2229845D01*
X708496Y2230393D01*
X708032Y2230949D01*
X707979Y2230992D01*
X707933Y2231045D01*
X707360Y2231490D01*
X706797Y2231943D01*
X706736Y2231975D01*
X706681Y2232017D01*
X706031Y2232341D01*
X705390Y2232673D01*
X705324Y2232693D01*
X705262Y2232724D01*
X704561Y2232913D01*
X703867Y2233112D01*
X703798Y2233118D01*
X703731Y2233136D01*
X702425Y2233243D01*
X222056Y2233243D01*
X221969Y2233235D01*
X221883Y2233242D01*
X221180Y2233156D01*
X220478Y2233086D01*
X220395Y2233061D01*
X220309Y2233050D01*
X219640Y2232829D01*
X218963Y2232621D01*
X218886Y2232580D01*
X218804Y2232553D01*
X218191Y2232203D01*
X217569Y2231866D01*
X217502Y2231811D01*
X217426Y2231768D01*
X216893Y2231303D01*
X216351Y2230851D01*
X216297Y2230784D01*
X216231Y2230727D01*
X215798Y2230164D01*
X215357Y2229616D01*
X215317Y2229539D01*
X215264Y2229470D01*
X214665Y2228305D01*
X214063Y2226851D01*
X203936Y2216724D01*
X190704Y2211243D01*
X116382Y2211243D01*
X103151Y2216724D01*
X93023Y2226851D01*
X87543Y2240083D01*
X87543Y2254405D01*
X93023Y2267637D01*
X103151Y2277764D01*
X116382Y2283245D01*
X190704Y2283245D01*
X203936Y2277764D01*
X214063Y2267637D01*
X214665Y2266183D01*
X214706Y2266106D01*
X214733Y2266024D01*
X215080Y2265409D01*
X215414Y2264786D01*
X215469Y2264719D01*
X215512Y2264643D01*
X215973Y2264109D01*
X216424Y2263563D01*
X216491Y2263509D01*
X216548Y2263443D01*
X217105Y2263010D01*
X217655Y2262564D01*
X217732Y2262524D01*
X217800Y2262471D01*
X218432Y2262156D01*
X219058Y2261828D01*
X219141Y2261803D01*
X219219Y2261764D01*
X219902Y2261580D01*
X220580Y2261382D01*
X220667Y2261375D01*
X220750Y2261352D01*
X222056Y2261245D01*
X719151Y2261245D01*
X719255Y2261255D01*
X719358Y2261247D01*
X720042Y2261333D01*
X720728Y2261402D01*
X720828Y2261432D01*
X720931Y2261445D01*
X721585Y2261665D01*
X722244Y2261867D01*
X722336Y2261916D01*
X722434Y2261950D01*
X723031Y2262293D01*
X723638Y2262622D01*
X723718Y2262689D01*
X723808Y2262740D01*
X724807Y2263588D01*
X726900Y2265680D01*
X740866Y2271465D01*
X755984Y2271465D01*
X769951Y2265680D01*
X780641Y2254990D01*
X786426Y2241023D01*
X786426Y2225906D01*
X780641Y2211939D01*
X769951Y2201249D01*
X755984Y2195464D01*
X740866Y2195464D01*
G37*
%LPD*%
%LPC*%
G36*
X740866Y2095464D02*
X740866Y2095464D01*
X726900Y2101249D01*
X716210Y2111939D01*
X710338Y2126115D01*
X710267Y2126822D01*
X710247Y2126888D01*
X710239Y2126957D01*
X710015Y2127643D01*
X709802Y2128337D01*
X709769Y2128399D01*
X709748Y2128464D01*
X709393Y2129092D01*
X709047Y2129731D01*
X709003Y2129785D01*
X708969Y2129845D01*
X708496Y2130393D01*
X708032Y2130949D01*
X707979Y2130992D01*
X707933Y2131045D01*
X707360Y2131490D01*
X706797Y2131943D01*
X706736Y2131975D01*
X706681Y2132017D01*
X706031Y2132341D01*
X705390Y2132673D01*
X705324Y2132693D01*
X705262Y2132724D01*
X704561Y2132913D01*
X703867Y2133112D01*
X703798Y2133118D01*
X703731Y2133136D01*
X702425Y2133243D01*
X222056Y2133243D01*
X221969Y2133235D01*
X221883Y2133242D01*
X221180Y2133156D01*
X220478Y2133086D01*
X220395Y2133061D01*
X220309Y2133050D01*
X219640Y2132829D01*
X218963Y2132621D01*
X218886Y2132580D01*
X218804Y2132553D01*
X218191Y2132203D01*
X217569Y2131866D01*
X217502Y2131811D01*
X217426Y2131768D01*
X216893Y2131303D01*
X216351Y2130851D01*
X216297Y2130784D01*
X216231Y2130727D01*
X215798Y2130164D01*
X215357Y2129616D01*
X215317Y2129539D01*
X215264Y2129470D01*
X214665Y2128305D01*
X214063Y2126851D01*
X203936Y2116724D01*
X190704Y2111243D01*
X116382Y2111243D01*
X103151Y2116724D01*
X93023Y2126851D01*
X87543Y2140083D01*
X87543Y2154405D01*
X93023Y2167637D01*
X103151Y2177764D01*
X116382Y2183245D01*
X190704Y2183245D01*
X203936Y2177764D01*
X214063Y2167637D01*
X214665Y2166183D01*
X214706Y2166106D01*
X214733Y2166024D01*
X215080Y2165409D01*
X215414Y2164786D01*
X215469Y2164719D01*
X215512Y2164643D01*
X215973Y2164109D01*
X216424Y2163563D01*
X216491Y2163509D01*
X216548Y2163443D01*
X217105Y2163010D01*
X217655Y2162564D01*
X217732Y2162524D01*
X217800Y2162471D01*
X218432Y2162156D01*
X219058Y2161828D01*
X219141Y2161803D01*
X219219Y2161764D01*
X219902Y2161580D01*
X220580Y2161382D01*
X220667Y2161375D01*
X220750Y2161352D01*
X222056Y2161245D01*
X719151Y2161245D01*
X719255Y2161255D01*
X719358Y2161247D01*
X720042Y2161333D01*
X720728Y2161402D01*
X720828Y2161432D01*
X720931Y2161445D01*
X721585Y2161665D01*
X722244Y2161867D01*
X722336Y2161916D01*
X722434Y2161950D01*
X723031Y2162293D01*
X723638Y2162622D01*
X723718Y2162689D01*
X723808Y2162740D01*
X724807Y2163588D01*
X726900Y2165680D01*
X740866Y2171465D01*
X755984Y2171465D01*
X769951Y2165680D01*
X780641Y2154990D01*
X786426Y2141023D01*
X786426Y2125906D01*
X780641Y2111939D01*
X769951Y2101249D01*
X755984Y2095464D01*
X740866Y2095464D01*
G37*
%LPD*%
%LPC*%
G36*
X740866Y1995464D02*
X740866Y1995464D01*
X726900Y2001249D01*
X716210Y2011939D01*
X710338Y2026115D01*
X710267Y2026822D01*
X710247Y2026888D01*
X710239Y2026957D01*
X710015Y2027643D01*
X709802Y2028337D01*
X709769Y2028399D01*
X709748Y2028464D01*
X709393Y2029092D01*
X709047Y2029731D01*
X709003Y2029785D01*
X708969Y2029845D01*
X708496Y2030393D01*
X708032Y2030949D01*
X707979Y2030992D01*
X707933Y2031045D01*
X707360Y2031490D01*
X706797Y2031943D01*
X706736Y2031975D01*
X706681Y2032017D01*
X706031Y2032341D01*
X705390Y2032673D01*
X705324Y2032693D01*
X705262Y2032724D01*
X704561Y2032913D01*
X703867Y2033112D01*
X703798Y2033118D01*
X703731Y2033136D01*
X702425Y2033243D01*
X222056Y2033243D01*
X221969Y2033235D01*
X221883Y2033242D01*
X221180Y2033156D01*
X220478Y2033086D01*
X220395Y2033061D01*
X220309Y2033050D01*
X219640Y2032829D01*
X218963Y2032621D01*
X218886Y2032580D01*
X218804Y2032553D01*
X218191Y2032203D01*
X217569Y2031866D01*
X217502Y2031811D01*
X217426Y2031768D01*
X216893Y2031303D01*
X216351Y2030851D01*
X216297Y2030784D01*
X216231Y2030727D01*
X215798Y2030164D01*
X215357Y2029616D01*
X215317Y2029539D01*
X215264Y2029470D01*
X214665Y2028305D01*
X214063Y2026851D01*
X203936Y2016724D01*
X190704Y2011243D01*
X116382Y2011243D01*
X103151Y2016724D01*
X93023Y2026851D01*
X87543Y2040083D01*
X87543Y2054405D01*
X93023Y2067637D01*
X103151Y2077764D01*
X116382Y2083245D01*
X190704Y2083245D01*
X203936Y2077764D01*
X214063Y2067637D01*
X214665Y2066183D01*
X214706Y2066106D01*
X214733Y2066024D01*
X215080Y2065409D01*
X215414Y2064786D01*
X215469Y2064719D01*
X215512Y2064643D01*
X215973Y2064109D01*
X216424Y2063563D01*
X216491Y2063509D01*
X216548Y2063443D01*
X217105Y2063010D01*
X217655Y2062564D01*
X217732Y2062524D01*
X217800Y2062471D01*
X218432Y2062156D01*
X219058Y2061828D01*
X219141Y2061803D01*
X219219Y2061764D01*
X219902Y2061580D01*
X220580Y2061382D01*
X220667Y2061375D01*
X220750Y2061352D01*
X222056Y2061245D01*
X719151Y2061245D01*
X719255Y2061255D01*
X719358Y2061247D01*
X720042Y2061333D01*
X720728Y2061402D01*
X720828Y2061432D01*
X720931Y2061445D01*
X721585Y2061665D01*
X722244Y2061867D01*
X722336Y2061916D01*
X722434Y2061950D01*
X723031Y2062293D01*
X723638Y2062622D01*
X723718Y2062689D01*
X723808Y2062740D01*
X724807Y2063588D01*
X726900Y2065680D01*
X740866Y2071465D01*
X755984Y2071465D01*
X769951Y2065680D01*
X780641Y2054990D01*
X786426Y2041023D01*
X786426Y2025906D01*
X780641Y2011939D01*
X769951Y2001249D01*
X755984Y1995464D01*
X740866Y1995464D01*
G37*
%LPD*%
%LPC*%
G36*
X1557327Y991165D02*
X1557327Y991165D01*
X1544095Y996645D01*
X1533968Y1006773D01*
X1530338Y1015536D01*
X1530281Y1015643D01*
X1530242Y1015758D01*
X1529908Y1016340D01*
X1529590Y1016933D01*
X1529512Y1017027D01*
X1529452Y1017132D01*
X1528604Y1018131D01*
X1498118Y1048617D01*
X1498038Y1048683D01*
X1497970Y1048762D01*
X1497425Y1049185D01*
X1496892Y1049621D01*
X1496800Y1049670D01*
X1496718Y1049734D01*
X1496099Y1050042D01*
X1495491Y1050364D01*
X1495392Y1050394D01*
X1495298Y1050440D01*
X1494633Y1050619D01*
X1493972Y1050816D01*
X1493868Y1050826D01*
X1493768Y1050853D01*
X1492462Y1050960D01*
X1094282Y1050960D01*
X1094229Y1050955D01*
X1094176Y1050959D01*
X1093442Y1050876D01*
X1092704Y1050803D01*
X1092653Y1050787D01*
X1092601Y1050781D01*
X1091900Y1050556D01*
X1091188Y1050338D01*
X1091141Y1050312D01*
X1091091Y1050296D01*
X1090449Y1049938D01*
X1089794Y1049583D01*
X1089754Y1049549D01*
X1089707Y1049523D01*
X1089147Y1049043D01*
X1088577Y1048568D01*
X1088543Y1048526D01*
X1088503Y1048492D01*
X1088046Y1047909D01*
X1087583Y1047333D01*
X1087559Y1047286D01*
X1087526Y1047244D01*
X1087193Y1046582D01*
X1086852Y1045926D01*
X1086837Y1045875D01*
X1086814Y1045827D01*
X1086619Y1045115D01*
X1086413Y1044402D01*
X1086409Y1044349D01*
X1086395Y1044298D01*
X1086344Y1043559D01*
X1086284Y1042822D01*
X1086290Y1042770D01*
X1086286Y1042717D01*
X1086382Y1041979D01*
X1086426Y1041607D01*
X1086426Y1025906D01*
X1080641Y1011939D01*
X1069951Y1001249D01*
X1055984Y995464D01*
X1040866Y995464D01*
X1026900Y1001249D01*
X1016210Y1011939D01*
X1010424Y1025906D01*
X1010424Y1041023D01*
X1016210Y1054990D01*
X1026900Y1065680D01*
X1040866Y1071465D01*
X1055984Y1071465D01*
X1058571Y1070394D01*
X1058654Y1070369D01*
X1058731Y1070329D01*
X1059411Y1070140D01*
X1060088Y1069935D01*
X1060175Y1069927D01*
X1060258Y1069904D01*
X1060963Y1069852D01*
X1061666Y1069785D01*
X1061753Y1069794D01*
X1061839Y1069787D01*
X1062541Y1069876D01*
X1063243Y1069949D01*
X1063326Y1069975D01*
X1063412Y1069985D01*
X1064083Y1070210D01*
X1064757Y1070420D01*
X1064833Y1070462D01*
X1064915Y1070490D01*
X1065529Y1070843D01*
X1066148Y1071181D01*
X1066214Y1071237D01*
X1066289Y1071280D01*
X1067288Y1072128D01*
X1074122Y1078961D01*
X1507374Y1078961D01*
X1530716Y1055619D01*
X1530771Y1055574D01*
X1530815Y1055522D01*
X1531381Y1055074D01*
X1531943Y1054615D01*
X1532004Y1054582D01*
X1532059Y1054539D01*
X1532704Y1054211D01*
X1533344Y1053872D01*
X1533410Y1053852D01*
X1533472Y1053820D01*
X1534167Y1053627D01*
X1534863Y1053420D01*
X1534933Y1053413D01*
X1534999Y1053395D01*
X1535717Y1053342D01*
X1536442Y1053276D01*
X1536511Y1053284D01*
X1536580Y1053279D01*
X1537296Y1053369D01*
X1538018Y1053447D01*
X1538084Y1053468D01*
X1538153Y1053477D01*
X1538841Y1053707D01*
X1539530Y1053925D01*
X1539590Y1053959D01*
X1539656Y1053981D01*
X1540285Y1054343D01*
X1540917Y1054692D01*
X1540970Y1054737D01*
X1541030Y1054772D01*
X1542029Y1055619D01*
X1544095Y1057685D01*
X1557327Y1063166D01*
X1631649Y1063166D01*
X1644881Y1057685D01*
X1655008Y1047558D01*
X1660489Y1034326D01*
X1660489Y1020004D01*
X1655008Y1006773D01*
X1644881Y996645D01*
X1631649Y991165D01*
X1557327Y991165D01*
G37*
%LPD*%
%LPC*%
G36*
X1557327Y1391165D02*
X1557327Y1391165D01*
X1544095Y1396645D01*
X1533968Y1406773D01*
X1533366Y1408226D01*
X1533325Y1408303D01*
X1533298Y1408385D01*
X1532951Y1409000D01*
X1532617Y1409624D01*
X1532562Y1409691D01*
X1532519Y1409766D01*
X1532058Y1410300D01*
X1531608Y1410846D01*
X1531540Y1410901D01*
X1531484Y1410966D01*
X1530926Y1411399D01*
X1530377Y1411845D01*
X1530300Y1411886D01*
X1530231Y1411939D01*
X1529600Y1412253D01*
X1528973Y1412582D01*
X1528890Y1412606D01*
X1528812Y1412645D01*
X1528129Y1412829D01*
X1527452Y1413027D01*
X1527365Y1413035D01*
X1527281Y1413057D01*
X1525976Y1413165D01*
X1085180Y1413165D01*
X1085076Y1413154D01*
X1084972Y1413162D01*
X1084289Y1413076D01*
X1083602Y1413008D01*
X1083503Y1412977D01*
X1083399Y1412964D01*
X1082747Y1412745D01*
X1082087Y1412542D01*
X1081995Y1412493D01*
X1081897Y1412460D01*
X1081300Y1412117D01*
X1080693Y1411788D01*
X1080613Y1411721D01*
X1080523Y1411669D01*
X1079523Y1410822D01*
X1069951Y1401249D01*
X1055984Y1395464D01*
X1040866Y1395464D01*
X1026900Y1401249D01*
X1016210Y1411939D01*
X1010424Y1425906D01*
X1010424Y1441023D01*
X1016210Y1454990D01*
X1026900Y1465680D01*
X1040866Y1471465D01*
X1055984Y1471465D01*
X1069951Y1465680D01*
X1080641Y1454990D01*
X1084321Y1446104D01*
X1084362Y1446027D01*
X1084389Y1445945D01*
X1084736Y1445330D01*
X1085070Y1444707D01*
X1085125Y1444640D01*
X1085168Y1444564D01*
X1085629Y1444030D01*
X1086080Y1443484D01*
X1086147Y1443430D01*
X1086204Y1443364D01*
X1086762Y1442930D01*
X1087311Y1442485D01*
X1087387Y1442445D01*
X1087456Y1442392D01*
X1088090Y1442076D01*
X1088714Y1441749D01*
X1088797Y1441725D01*
X1088875Y1441686D01*
X1089559Y1441501D01*
X1090236Y1441303D01*
X1090322Y1441296D01*
X1090406Y1441273D01*
X1091712Y1441166D01*
X1525976Y1441166D01*
X1526062Y1441175D01*
X1526149Y1441168D01*
X1526851Y1441253D01*
X1527553Y1441323D01*
X1527636Y1441349D01*
X1527722Y1441359D01*
X1528392Y1441580D01*
X1529069Y1441788D01*
X1529145Y1441830D01*
X1529227Y1441857D01*
X1529840Y1442206D01*
X1530463Y1442543D01*
X1530530Y1442599D01*
X1530605Y1442642D01*
X1531139Y1443106D01*
X1531681Y1443558D01*
X1531735Y1443625D01*
X1531801Y1443683D01*
X1532232Y1444243D01*
X1532674Y1444793D01*
X1532714Y1444870D01*
X1532767Y1444939D01*
X1533366Y1446104D01*
X1533968Y1447558D01*
X1544095Y1457685D01*
X1557327Y1463166D01*
X1631649Y1463166D01*
X1644881Y1457685D01*
X1655008Y1447558D01*
X1660489Y1434326D01*
X1660489Y1420004D01*
X1655008Y1406773D01*
X1644881Y1396645D01*
X1631649Y1391165D01*
X1557327Y1391165D01*
G37*
%LPD*%
%LPC*%
G36*
X1557327Y1291165D02*
X1557327Y1291165D01*
X1544095Y1296645D01*
X1533968Y1306773D01*
X1530757Y1314526D01*
X1530716Y1314602D01*
X1530689Y1314685D01*
X1530342Y1315299D01*
X1530008Y1315923D01*
X1529953Y1315990D01*
X1529910Y1316065D01*
X1529449Y1316600D01*
X1528998Y1317145D01*
X1528931Y1317200D01*
X1528874Y1317266D01*
X1528316Y1317699D01*
X1527767Y1318144D01*
X1527691Y1318185D01*
X1527622Y1318238D01*
X1526988Y1318553D01*
X1526364Y1318881D01*
X1526281Y1318905D01*
X1526203Y1318944D01*
X1525519Y1319128D01*
X1524842Y1319327D01*
X1524756Y1319334D01*
X1524672Y1319357D01*
X1523366Y1319464D01*
X1089102Y1319464D01*
X1089016Y1319455D01*
X1088930Y1319462D01*
X1088228Y1319377D01*
X1087525Y1319307D01*
X1087442Y1319281D01*
X1087356Y1319271D01*
X1086688Y1319050D01*
X1086009Y1318842D01*
X1085933Y1318800D01*
X1085851Y1318773D01*
X1085239Y1318424D01*
X1084615Y1318087D01*
X1084548Y1318031D01*
X1084473Y1317988D01*
X1083942Y1317526D01*
X1083398Y1317072D01*
X1083343Y1317004D01*
X1083278Y1316947D01*
X1082847Y1316387D01*
X1082404Y1315837D01*
X1082364Y1315760D01*
X1082311Y1315691D01*
X1081712Y1314526D01*
X1080641Y1311939D01*
X1069951Y1301249D01*
X1055984Y1295464D01*
X1040866Y1295464D01*
X1026900Y1301249D01*
X1016210Y1311939D01*
X1010424Y1325906D01*
X1010424Y1341023D01*
X1016210Y1354990D01*
X1026900Y1365680D01*
X1040866Y1371465D01*
X1055984Y1371465D01*
X1069951Y1365680D01*
X1080641Y1354990D01*
X1081712Y1352403D01*
X1081753Y1352326D01*
X1081780Y1352244D01*
X1082126Y1351631D01*
X1082461Y1351006D01*
X1082516Y1350939D01*
X1082559Y1350864D01*
X1083022Y1350327D01*
X1083471Y1349784D01*
X1083538Y1349729D01*
X1083595Y1349663D01*
X1084153Y1349230D01*
X1084702Y1348785D01*
X1084779Y1348744D01*
X1084847Y1348691D01*
X1085478Y1348377D01*
X1086105Y1348048D01*
X1086188Y1348023D01*
X1086266Y1347985D01*
X1086949Y1347801D01*
X1087627Y1347602D01*
X1087713Y1347595D01*
X1087797Y1347572D01*
X1089102Y1347465D01*
X1530562Y1347465D01*
X1530665Y1347476D01*
X1530769Y1347468D01*
X1531453Y1347554D01*
X1532139Y1347622D01*
X1532239Y1347653D01*
X1532342Y1347666D01*
X1532994Y1347885D01*
X1533655Y1348087D01*
X1533747Y1348137D01*
X1533845Y1348170D01*
X1534442Y1348513D01*
X1535049Y1348842D01*
X1535129Y1348909D01*
X1535219Y1348961D01*
X1536218Y1349808D01*
X1544095Y1357685D01*
X1557327Y1363166D01*
X1631649Y1363166D01*
X1644881Y1357685D01*
X1655008Y1347558D01*
X1660489Y1334326D01*
X1660489Y1320004D01*
X1655008Y1306773D01*
X1644881Y1296645D01*
X1631649Y1291165D01*
X1557327Y1291165D01*
G37*
%LPD*%
%LPC*%
G36*
X1557327Y1191165D02*
X1557327Y1191165D01*
X1544095Y1196645D01*
X1533968Y1206773D01*
X1530757Y1214526D01*
X1530716Y1214602D01*
X1530689Y1214685D01*
X1530342Y1215299D01*
X1530008Y1215923D01*
X1529953Y1215990D01*
X1529910Y1216065D01*
X1529449Y1216600D01*
X1528998Y1217145D01*
X1528931Y1217200D01*
X1528874Y1217266D01*
X1528316Y1217699D01*
X1527767Y1218144D01*
X1527691Y1218185D01*
X1527622Y1218238D01*
X1526988Y1218553D01*
X1526364Y1218881D01*
X1526281Y1218905D01*
X1526203Y1218944D01*
X1525519Y1219128D01*
X1524842Y1219327D01*
X1524756Y1219334D01*
X1524672Y1219357D01*
X1523366Y1219464D01*
X1089102Y1219464D01*
X1089016Y1219455D01*
X1088930Y1219462D01*
X1088228Y1219377D01*
X1087525Y1219307D01*
X1087442Y1219281D01*
X1087356Y1219271D01*
X1086688Y1219050D01*
X1086009Y1218842D01*
X1085933Y1218800D01*
X1085851Y1218773D01*
X1085239Y1218424D01*
X1084615Y1218087D01*
X1084548Y1218031D01*
X1084473Y1217988D01*
X1083942Y1217526D01*
X1083398Y1217072D01*
X1083343Y1217004D01*
X1083278Y1216947D01*
X1082847Y1216387D01*
X1082404Y1215837D01*
X1082364Y1215760D01*
X1082311Y1215691D01*
X1081712Y1214526D01*
X1080641Y1211939D01*
X1069951Y1201249D01*
X1055984Y1195464D01*
X1040866Y1195464D01*
X1026900Y1201249D01*
X1016210Y1211939D01*
X1010424Y1225906D01*
X1010424Y1241023D01*
X1016210Y1254990D01*
X1026900Y1265680D01*
X1040866Y1271465D01*
X1055984Y1271465D01*
X1069951Y1265680D01*
X1080641Y1254990D01*
X1081712Y1252403D01*
X1081753Y1252326D01*
X1081780Y1252244D01*
X1082126Y1251631D01*
X1082461Y1251006D01*
X1082516Y1250939D01*
X1082559Y1250864D01*
X1083022Y1250327D01*
X1083471Y1249784D01*
X1083538Y1249729D01*
X1083595Y1249663D01*
X1084153Y1249230D01*
X1084702Y1248785D01*
X1084779Y1248744D01*
X1084847Y1248691D01*
X1085478Y1248377D01*
X1086105Y1248048D01*
X1086188Y1248023D01*
X1086266Y1247985D01*
X1086949Y1247801D01*
X1087627Y1247602D01*
X1087713Y1247595D01*
X1087797Y1247572D01*
X1089102Y1247465D01*
X1530562Y1247465D01*
X1530665Y1247476D01*
X1530769Y1247468D01*
X1531453Y1247554D01*
X1532139Y1247622D01*
X1532239Y1247653D01*
X1532342Y1247666D01*
X1532994Y1247885D01*
X1533655Y1248087D01*
X1533747Y1248137D01*
X1533845Y1248170D01*
X1534442Y1248513D01*
X1535049Y1248842D01*
X1535129Y1248909D01*
X1535219Y1248961D01*
X1536218Y1249808D01*
X1544095Y1257685D01*
X1557327Y1263166D01*
X1631649Y1263166D01*
X1644881Y1257685D01*
X1655008Y1247558D01*
X1660489Y1234326D01*
X1660489Y1220004D01*
X1655008Y1206773D01*
X1644881Y1196645D01*
X1631649Y1191165D01*
X1557327Y1191165D01*
G37*
%LPD*%
%LPC*%
G36*
X1557327Y1091165D02*
X1557327Y1091165D01*
X1544095Y1096645D01*
X1533968Y1106773D01*
X1530757Y1114526D01*
X1530716Y1114602D01*
X1530689Y1114685D01*
X1530342Y1115299D01*
X1530008Y1115923D01*
X1529953Y1115990D01*
X1529910Y1116065D01*
X1529449Y1116600D01*
X1528998Y1117145D01*
X1528931Y1117200D01*
X1528874Y1117266D01*
X1528316Y1117699D01*
X1527767Y1118144D01*
X1527691Y1118185D01*
X1527622Y1118238D01*
X1526988Y1118553D01*
X1526364Y1118881D01*
X1526281Y1118905D01*
X1526203Y1118944D01*
X1525519Y1119128D01*
X1524842Y1119327D01*
X1524756Y1119334D01*
X1524672Y1119357D01*
X1523366Y1119464D01*
X1089102Y1119464D01*
X1089016Y1119455D01*
X1088930Y1119462D01*
X1088227Y1119377D01*
X1087525Y1119307D01*
X1087442Y1119281D01*
X1087356Y1119271D01*
X1086686Y1119049D01*
X1086009Y1118842D01*
X1085933Y1118800D01*
X1085851Y1118773D01*
X1085238Y1118424D01*
X1084615Y1118087D01*
X1084548Y1118031D01*
X1084473Y1117988D01*
X1083939Y1117524D01*
X1083397Y1117072D01*
X1083343Y1117004D01*
X1083277Y1116947D01*
X1082844Y1116384D01*
X1082404Y1115837D01*
X1082364Y1115760D01*
X1082311Y1115691D01*
X1081712Y1114526D01*
X1080641Y1111939D01*
X1069951Y1101249D01*
X1055984Y1095464D01*
X1040866Y1095464D01*
X1026900Y1101249D01*
X1016210Y1111939D01*
X1010424Y1125906D01*
X1010424Y1141023D01*
X1016210Y1154990D01*
X1026900Y1165680D01*
X1040866Y1171465D01*
X1055984Y1171465D01*
X1069951Y1165680D01*
X1080641Y1154990D01*
X1081712Y1152403D01*
X1081753Y1152327D01*
X1081780Y1152244D01*
X1082127Y1151630D01*
X1082461Y1151006D01*
X1082516Y1150939D01*
X1082559Y1150864D01*
X1083021Y1150328D01*
X1083470Y1149784D01*
X1083538Y1149729D01*
X1083594Y1149663D01*
X1084153Y1149230D01*
X1084701Y1148785D01*
X1084778Y1148744D01*
X1084847Y1148691D01*
X1085480Y1148376D01*
X1086105Y1148048D01*
X1086188Y1148024D01*
X1086266Y1147985D01*
X1086949Y1147801D01*
X1087626Y1147602D01*
X1087713Y1147595D01*
X1087797Y1147572D01*
X1089102Y1147465D01*
X1530562Y1147465D01*
X1530666Y1147476D01*
X1530769Y1147468D01*
X1531453Y1147554D01*
X1532140Y1147622D01*
X1532239Y1147653D01*
X1532342Y1147666D01*
X1532995Y1147885D01*
X1533655Y1148087D01*
X1533747Y1148137D01*
X1533845Y1148170D01*
X1534444Y1148514D01*
X1535049Y1148842D01*
X1535129Y1148909D01*
X1535219Y1148961D01*
X1536218Y1149808D01*
X1544095Y1157685D01*
X1557327Y1163166D01*
X1631649Y1163166D01*
X1644881Y1157685D01*
X1655008Y1147558D01*
X1660489Y1134326D01*
X1660489Y1120004D01*
X1655008Y1106773D01*
X1644881Y1096645D01*
X1631649Y1091165D01*
X1557327Y1091165D01*
G37*
%LPD*%
%LPC*%
G36*
X1040866Y2195464D02*
X1040866Y2195464D01*
X1026900Y2201249D01*
X1016210Y2211939D01*
X1010424Y2225906D01*
X1010424Y2241023D01*
X1016210Y2254990D01*
X1026900Y2265680D01*
X1040866Y2271465D01*
X1055984Y2271465D01*
X1069951Y2265680D01*
X1080641Y2254990D01*
X1081712Y2252403D01*
X1081753Y2252327D01*
X1081780Y2252244D01*
X1082127Y2251630D01*
X1082461Y2251006D01*
X1082516Y2250939D01*
X1082559Y2250864D01*
X1083021Y2250328D01*
X1083470Y2249784D01*
X1083538Y2249729D01*
X1083594Y2249663D01*
X1084153Y2249230D01*
X1084701Y2248785D01*
X1084778Y2248744D01*
X1084847Y2248691D01*
X1085480Y2248376D01*
X1086105Y2248048D01*
X1086188Y2248024D01*
X1086266Y2247985D01*
X1086949Y2247801D01*
X1087626Y2247602D01*
X1087713Y2247595D01*
X1087797Y2247572D01*
X1089102Y2247465D01*
X1520734Y2247465D01*
X1520820Y2247474D01*
X1520907Y2247467D01*
X1521609Y2247552D01*
X1522312Y2247622D01*
X1522395Y2247648D01*
X1522481Y2247658D01*
X1523151Y2247880D01*
X1523827Y2248087D01*
X1523903Y2248129D01*
X1523986Y2248156D01*
X1524600Y2248506D01*
X1525221Y2248842D01*
X1525288Y2248898D01*
X1525363Y2248941D01*
X1525896Y2249405D01*
X1526439Y2249857D01*
X1526493Y2249925D01*
X1526559Y2249982D01*
X1526990Y2250543D01*
X1527433Y2251092D01*
X1527473Y2251169D01*
X1527526Y2251238D01*
X1528124Y2252403D01*
X1530031Y2257007D01*
X1540158Y2267134D01*
X1553390Y2272615D01*
X1627712Y2272615D01*
X1640944Y2267134D01*
X1651071Y2257007D01*
X1656552Y2243775D01*
X1656552Y2229453D01*
X1651071Y2216221D01*
X1640944Y2206094D01*
X1627712Y2200613D01*
X1553390Y2200613D01*
X1540158Y2206094D01*
X1529132Y2217121D01*
X1529051Y2217187D01*
X1528983Y2217266D01*
X1528438Y2217689D01*
X1527905Y2218125D01*
X1527813Y2218174D01*
X1527731Y2218238D01*
X1527114Y2218545D01*
X1526505Y2218868D01*
X1526405Y2218898D01*
X1526312Y2218944D01*
X1525647Y2219123D01*
X1524985Y2219320D01*
X1524881Y2219330D01*
X1524781Y2219357D01*
X1523475Y2219464D01*
X1089102Y2219464D01*
X1089016Y2219455D01*
X1088930Y2219462D01*
X1088227Y2219377D01*
X1087525Y2219307D01*
X1087442Y2219281D01*
X1087356Y2219271D01*
X1086686Y2219049D01*
X1086009Y2218842D01*
X1085933Y2218800D01*
X1085851Y2218773D01*
X1085238Y2218424D01*
X1084615Y2218087D01*
X1084548Y2218031D01*
X1084473Y2217988D01*
X1083939Y2217524D01*
X1083397Y2217072D01*
X1083343Y2217004D01*
X1083277Y2216947D01*
X1082844Y2216384D01*
X1082404Y2215837D01*
X1082364Y2215760D01*
X1082311Y2215691D01*
X1081712Y2214526D01*
X1080641Y2211939D01*
X1069951Y2201249D01*
X1055984Y2195464D01*
X1040866Y2195464D01*
G37*
%LPD*%
%LPC*%
G36*
X1040866Y2095464D02*
X1040866Y2095464D01*
X1026900Y2101249D01*
X1016210Y2111939D01*
X1010424Y2125906D01*
X1010424Y2141023D01*
X1016210Y2154990D01*
X1026900Y2165680D01*
X1040866Y2171465D01*
X1055984Y2171465D01*
X1069951Y2165680D01*
X1080641Y2154990D01*
X1081712Y2152403D01*
X1081753Y2152327D01*
X1081780Y2152244D01*
X1082127Y2151630D01*
X1082461Y2151006D01*
X1082516Y2150939D01*
X1082559Y2150864D01*
X1083021Y2150328D01*
X1083470Y2149784D01*
X1083538Y2149729D01*
X1083594Y2149663D01*
X1084153Y2149230D01*
X1084701Y2148785D01*
X1084778Y2148744D01*
X1084847Y2148691D01*
X1085480Y2148376D01*
X1086105Y2148048D01*
X1086188Y2148024D01*
X1086266Y2147985D01*
X1086949Y2147801D01*
X1087626Y2147602D01*
X1087713Y2147595D01*
X1087797Y2147572D01*
X1089102Y2147465D01*
X1520734Y2147465D01*
X1520820Y2147474D01*
X1520907Y2147467D01*
X1521609Y2147552D01*
X1522312Y2147622D01*
X1522395Y2147648D01*
X1522481Y2147658D01*
X1523151Y2147880D01*
X1523827Y2148087D01*
X1523903Y2148129D01*
X1523986Y2148156D01*
X1524600Y2148506D01*
X1525221Y2148842D01*
X1525288Y2148898D01*
X1525363Y2148941D01*
X1525896Y2149405D01*
X1526439Y2149857D01*
X1526493Y2149925D01*
X1526559Y2149982D01*
X1526990Y2150543D01*
X1527433Y2151092D01*
X1527473Y2151169D01*
X1527526Y2151238D01*
X1528124Y2152403D01*
X1530031Y2157007D01*
X1540158Y2167134D01*
X1553390Y2172615D01*
X1627712Y2172615D01*
X1640944Y2167134D01*
X1651071Y2157007D01*
X1656552Y2143775D01*
X1656552Y2129453D01*
X1651071Y2116221D01*
X1640944Y2106094D01*
X1627712Y2100613D01*
X1553390Y2100613D01*
X1540158Y2106094D01*
X1529132Y2117121D01*
X1529051Y2117187D01*
X1528983Y2117266D01*
X1528438Y2117689D01*
X1527905Y2118125D01*
X1527813Y2118174D01*
X1527731Y2118238D01*
X1527114Y2118545D01*
X1526505Y2118868D01*
X1526405Y2118898D01*
X1526312Y2118944D01*
X1525647Y2119123D01*
X1524985Y2119320D01*
X1524881Y2119330D01*
X1524781Y2119357D01*
X1523475Y2119464D01*
X1089102Y2119464D01*
X1089016Y2119455D01*
X1088930Y2119462D01*
X1088227Y2119377D01*
X1087525Y2119307D01*
X1087442Y2119281D01*
X1087356Y2119271D01*
X1086686Y2119049D01*
X1086009Y2118842D01*
X1085933Y2118800D01*
X1085851Y2118773D01*
X1085238Y2118424D01*
X1084615Y2118087D01*
X1084548Y2118031D01*
X1084473Y2117988D01*
X1083939Y2117524D01*
X1083397Y2117072D01*
X1083343Y2117004D01*
X1083277Y2116947D01*
X1082844Y2116384D01*
X1082404Y2115837D01*
X1082364Y2115760D01*
X1082311Y2115691D01*
X1081712Y2114526D01*
X1080641Y2111939D01*
X1069951Y2101249D01*
X1055984Y2095464D01*
X1040866Y2095464D01*
G37*
%LPD*%
%LPC*%
G36*
X1040866Y1995464D02*
X1040866Y1995464D01*
X1026900Y2001249D01*
X1016210Y2011939D01*
X1010424Y2025906D01*
X1010424Y2041023D01*
X1016210Y2054990D01*
X1026900Y2065680D01*
X1040866Y2071465D01*
X1055984Y2071465D01*
X1069951Y2065680D01*
X1080641Y2054990D01*
X1081712Y2052403D01*
X1081753Y2052327D01*
X1081780Y2052244D01*
X1082127Y2051630D01*
X1082461Y2051006D01*
X1082516Y2050939D01*
X1082559Y2050864D01*
X1083021Y2050328D01*
X1083470Y2049784D01*
X1083538Y2049729D01*
X1083594Y2049663D01*
X1084153Y2049230D01*
X1084701Y2048785D01*
X1084778Y2048744D01*
X1084847Y2048691D01*
X1085480Y2048376D01*
X1086105Y2048048D01*
X1086188Y2048024D01*
X1086266Y2047985D01*
X1086949Y2047801D01*
X1087626Y2047602D01*
X1087713Y2047595D01*
X1087797Y2047572D01*
X1089102Y2047465D01*
X1520734Y2047465D01*
X1520820Y2047474D01*
X1520907Y2047467D01*
X1521609Y2047552D01*
X1522312Y2047622D01*
X1522395Y2047648D01*
X1522481Y2047658D01*
X1523151Y2047880D01*
X1523827Y2048087D01*
X1523903Y2048129D01*
X1523986Y2048156D01*
X1524600Y2048506D01*
X1525221Y2048842D01*
X1525288Y2048898D01*
X1525363Y2048941D01*
X1525896Y2049405D01*
X1526439Y2049857D01*
X1526493Y2049925D01*
X1526559Y2049982D01*
X1526990Y2050543D01*
X1527433Y2051092D01*
X1527473Y2051169D01*
X1527526Y2051238D01*
X1528124Y2052403D01*
X1530031Y2057007D01*
X1540158Y2067134D01*
X1553390Y2072615D01*
X1627712Y2072615D01*
X1640944Y2067134D01*
X1651071Y2057007D01*
X1656552Y2043775D01*
X1656552Y2029453D01*
X1651071Y2016221D01*
X1640944Y2006094D01*
X1627712Y2000613D01*
X1553390Y2000613D01*
X1540158Y2006094D01*
X1529132Y2017121D01*
X1529051Y2017187D01*
X1528983Y2017266D01*
X1528438Y2017689D01*
X1527905Y2018125D01*
X1527813Y2018174D01*
X1527731Y2018238D01*
X1527114Y2018545D01*
X1526505Y2018868D01*
X1526405Y2018898D01*
X1526312Y2018944D01*
X1525647Y2019123D01*
X1524985Y2019320D01*
X1524881Y2019330D01*
X1524781Y2019357D01*
X1523475Y2019464D01*
X1089102Y2019464D01*
X1089016Y2019455D01*
X1088930Y2019462D01*
X1088227Y2019377D01*
X1087525Y2019307D01*
X1087442Y2019281D01*
X1087356Y2019271D01*
X1086686Y2019049D01*
X1086009Y2018842D01*
X1085933Y2018800D01*
X1085851Y2018773D01*
X1085238Y2018424D01*
X1084615Y2018087D01*
X1084548Y2018031D01*
X1084473Y2017988D01*
X1083939Y2017524D01*
X1083397Y2017072D01*
X1083343Y2017004D01*
X1083277Y2016947D01*
X1082844Y2016384D01*
X1082404Y2015837D01*
X1082364Y2015760D01*
X1082311Y2015691D01*
X1081712Y2014526D01*
X1080641Y2011939D01*
X1069951Y2001249D01*
X1055984Y1995464D01*
X1040866Y1995464D01*
G37*
%LPD*%
%LPC*%
G36*
X1557327Y891165D02*
X1557327Y891165D01*
X1544095Y896645D01*
X1533968Y906773D01*
X1528487Y920004D01*
X1528487Y926745D01*
X1528477Y926849D01*
X1528485Y926953D01*
X1528399Y927636D01*
X1528330Y928323D01*
X1528300Y928423D01*
X1528287Y928526D01*
X1528068Y929178D01*
X1527865Y929839D01*
X1527816Y929930D01*
X1527783Y930029D01*
X1527439Y930625D01*
X1527110Y931233D01*
X1527044Y931313D01*
X1526992Y931403D01*
X1526145Y932402D01*
X1464260Y994286D01*
X1464180Y994352D01*
X1464112Y994431D01*
X1463566Y994854D01*
X1463033Y995291D01*
X1462942Y995339D01*
X1462859Y995403D01*
X1462242Y995710D01*
X1461633Y996033D01*
X1461533Y996063D01*
X1461440Y996109D01*
X1460775Y996289D01*
X1460113Y996485D01*
X1460009Y996495D01*
X1459909Y996522D01*
X1458604Y996629D01*
X1279764Y996629D01*
X1279694Y996622D01*
X1279625Y996628D01*
X1278907Y996544D01*
X1278186Y996472D01*
X1278120Y996452D01*
X1278051Y996444D01*
X1277364Y996220D01*
X1276671Y996007D01*
X1276609Y995974D01*
X1276544Y995952D01*
X1275915Y995598D01*
X1275276Y995252D01*
X1275223Y995208D01*
X1275163Y995174D01*
X1274615Y994701D01*
X1274059Y994237D01*
X1274015Y994183D01*
X1273963Y994138D01*
X1273517Y993564D01*
X1273065Y993002D01*
X1273033Y992940D01*
X1272990Y992886D01*
X1272667Y992236D01*
X1272334Y991595D01*
X1272315Y991529D01*
X1272284Y991466D01*
X1272095Y990765D01*
X1271895Y990072D01*
X1271890Y990003D01*
X1271872Y989936D01*
X1271764Y988630D01*
X1271764Y969816D01*
X1253019Y951070D01*
X1226509Y951070D01*
X1207763Y969816D01*
X1207763Y996326D01*
X1226509Y1015071D01*
X1248651Y1015071D01*
X1248755Y1015082D01*
X1248859Y1015074D01*
X1249542Y1015160D01*
X1250229Y1015229D01*
X1250328Y1015259D01*
X1250431Y1015272D01*
X1251084Y1015491D01*
X1251744Y1015694D01*
X1251836Y1015743D01*
X1251934Y1015776D01*
X1252533Y1016121D01*
X1253138Y1016449D01*
X1253218Y1016515D01*
X1253308Y1016567D01*
X1254307Y1017414D01*
X1261523Y1024631D01*
X1473516Y1024631D01*
X1537746Y960400D01*
X1537813Y960345D01*
X1537870Y960279D01*
X1538427Y959843D01*
X1538973Y959396D01*
X1539049Y959355D01*
X1539118Y959302D01*
X1539750Y958983D01*
X1540373Y958653D01*
X1540456Y958628D01*
X1540534Y958589D01*
X1541215Y958402D01*
X1541893Y958201D01*
X1541979Y958193D01*
X1542063Y958170D01*
X1542766Y958122D01*
X1543472Y958057D01*
X1543558Y958067D01*
X1543644Y958061D01*
X1544343Y958152D01*
X1545048Y958228D01*
X1545130Y958254D01*
X1545216Y958266D01*
X1546464Y958666D01*
X1557327Y963166D01*
X1631649Y963166D01*
X1644881Y957685D01*
X1655008Y947558D01*
X1660489Y934326D01*
X1660489Y920004D01*
X1655008Y906773D01*
X1644881Y896645D01*
X1631649Y891165D01*
X1557327Y891165D01*
G37*
%LPD*%
%LPC*%
G36*
X1214389Y1635121D02*
X1214389Y1635121D01*
X1200238Y1640983D01*
X1189408Y1651813D01*
X1183547Y1665964D01*
X1183547Y1681280D01*
X1185199Y1685269D01*
X1185424Y1686013D01*
X1185649Y1686744D01*
X1185651Y1686765D01*
X1185657Y1686786D01*
X1185730Y1687550D01*
X1185808Y1688321D01*
X1185805Y1688343D01*
X1185807Y1688365D01*
X1185729Y1689118D01*
X1185652Y1689899D01*
X1185646Y1689920D01*
X1185644Y1689941D01*
X1185413Y1690683D01*
X1185189Y1691415D01*
X1185179Y1691434D01*
X1185172Y1691455D01*
X1184801Y1692134D01*
X1184435Y1692810D01*
X1184421Y1692828D01*
X1184411Y1692846D01*
X1184313Y1692963D01*
X1183615Y1693832D01*
X1161699Y1716966D01*
X1161538Y1717105D01*
X1161399Y1717266D01*
X1160940Y1717622D01*
X1160500Y1718003D01*
X1160314Y1718108D01*
X1160147Y1718238D01*
X1159627Y1718497D01*
X1159120Y1718784D01*
X1158918Y1718850D01*
X1158728Y1718944D01*
X1158166Y1719095D01*
X1157613Y1719276D01*
X1157402Y1719301D01*
X1157197Y1719357D01*
X1156337Y1719427D01*
X1156039Y1719462D01*
X1155973Y1719457D01*
X1155891Y1719464D01*
X1089102Y1719464D01*
X1089016Y1719455D01*
X1088930Y1719462D01*
X1088227Y1719377D01*
X1087525Y1719307D01*
X1087442Y1719281D01*
X1087356Y1719271D01*
X1086686Y1719049D01*
X1086009Y1718842D01*
X1085933Y1718800D01*
X1085851Y1718773D01*
X1085238Y1718424D01*
X1084615Y1718087D01*
X1084548Y1718031D01*
X1084473Y1717988D01*
X1083939Y1717524D01*
X1083397Y1717072D01*
X1083343Y1717004D01*
X1083277Y1716947D01*
X1082844Y1716384D01*
X1082404Y1715837D01*
X1082364Y1715760D01*
X1082311Y1715691D01*
X1081712Y1714526D01*
X1080641Y1711939D01*
X1069951Y1701249D01*
X1055984Y1695464D01*
X1040866Y1695464D01*
X1026900Y1701249D01*
X1016210Y1711939D01*
X1010424Y1725906D01*
X1010424Y1741023D01*
X1016210Y1754990D01*
X1026900Y1765680D01*
X1040866Y1771465D01*
X1055984Y1771465D01*
X1069951Y1765680D01*
X1080641Y1754990D01*
X1081712Y1752403D01*
X1081753Y1752327D01*
X1081780Y1752244D01*
X1082127Y1751630D01*
X1082461Y1751006D01*
X1082516Y1750939D01*
X1082559Y1750864D01*
X1083021Y1750328D01*
X1083470Y1749784D01*
X1083538Y1749729D01*
X1083594Y1749663D01*
X1084153Y1749230D01*
X1084701Y1748785D01*
X1084778Y1748744D01*
X1084847Y1748691D01*
X1085480Y1748376D01*
X1086105Y1748048D01*
X1086188Y1748024D01*
X1086266Y1747985D01*
X1086949Y1747801D01*
X1087626Y1747602D01*
X1087713Y1747595D01*
X1087797Y1747572D01*
X1089102Y1747465D01*
X1156588Y1747465D01*
X1157392Y1747545D01*
X1158158Y1747621D01*
X1158162Y1747622D01*
X1158165Y1747622D01*
X1158292Y1747661D01*
X1165437Y1747468D01*
X1165532Y1747475D01*
X1165653Y1747465D01*
X1171377Y1747465D01*
X1175314Y1743309D01*
X1175387Y1743246D01*
X1175465Y1743154D01*
X1180562Y1738057D01*
X1180727Y1737751D01*
X1180730Y1737747D01*
X1180732Y1737744D01*
X1180756Y1737715D01*
X1181547Y1736729D01*
X1203760Y1713282D01*
X1203908Y1713155D01*
X1204034Y1713006D01*
X1204505Y1712637D01*
X1204959Y1712245D01*
X1205129Y1712149D01*
X1205282Y1712029D01*
X1205817Y1711760D01*
X1206339Y1711465D01*
X1206524Y1711404D01*
X1206699Y1711316D01*
X1207276Y1711158D01*
X1207846Y1710972D01*
X1208040Y1710949D01*
X1208228Y1710897D01*
X1208825Y1710856D01*
X1209420Y1710786D01*
X1209615Y1710802D01*
X1209809Y1710788D01*
X1210403Y1710865D01*
X1211000Y1710914D01*
X1211188Y1710968D01*
X1211381Y1710993D01*
X1212264Y1711276D01*
X1212524Y1711351D01*
X1212570Y1711375D01*
X1212628Y1711393D01*
X1214389Y1712123D01*
X1229705Y1712123D01*
X1243856Y1706261D01*
X1254687Y1695431D01*
X1255875Y1692561D01*
X1255916Y1692484D01*
X1255943Y1692402D01*
X1256289Y1691788D01*
X1256624Y1691164D01*
X1256679Y1691096D01*
X1256722Y1691021D01*
X1257183Y1690487D01*
X1257634Y1689941D01*
X1257701Y1689887D01*
X1257758Y1689821D01*
X1258316Y1689387D01*
X1258865Y1688942D01*
X1258941Y1688902D01*
X1259010Y1688849D01*
X1259644Y1688533D01*
X1260268Y1688205D01*
X1260351Y1688181D01*
X1260429Y1688142D01*
X1261113Y1687958D01*
X1261790Y1687760D01*
X1261876Y1687752D01*
X1261960Y1687730D01*
X1263266Y1687623D01*
X1296005Y1687623D01*
X1296109Y1687633D01*
X1296213Y1687625D01*
X1296896Y1687711D01*
X1297583Y1687780D01*
X1297682Y1687810D01*
X1297786Y1687823D01*
X1298438Y1688042D01*
X1299098Y1688245D01*
X1299190Y1688295D01*
X1299289Y1688328D01*
X1299885Y1688671D01*
X1300492Y1689000D01*
X1300572Y1689066D01*
X1300663Y1689118D01*
X1301662Y1689966D01*
X1331011Y1719314D01*
X1331077Y1719395D01*
X1331155Y1719463D01*
X1331579Y1720008D01*
X1332015Y1720541D01*
X1332064Y1720633D01*
X1332128Y1720715D01*
X1332435Y1721332D01*
X1332758Y1721942D01*
X1332788Y1722041D01*
X1332834Y1722134D01*
X1333013Y1722799D01*
X1333210Y1723461D01*
X1333219Y1723565D01*
X1333246Y1723665D01*
X1333354Y1724971D01*
X1333354Y1747113D01*
X1352099Y1765859D01*
X1378609Y1765859D01*
X1397355Y1747113D01*
X1397355Y1720603D01*
X1378609Y1701858D01*
X1356467Y1701858D01*
X1356363Y1701847D01*
X1356260Y1701855D01*
X1355576Y1701769D01*
X1354889Y1701700D01*
X1354790Y1701670D01*
X1354687Y1701657D01*
X1354035Y1701438D01*
X1353374Y1701235D01*
X1353282Y1701186D01*
X1353184Y1701153D01*
X1352587Y1700809D01*
X1351980Y1700480D01*
X1351900Y1700414D01*
X1351810Y1700362D01*
X1350811Y1699515D01*
X1310917Y1659621D01*
X1263266Y1659621D01*
X1263179Y1659613D01*
X1263093Y1659619D01*
X1262391Y1659534D01*
X1261688Y1659464D01*
X1261605Y1659439D01*
X1261519Y1659428D01*
X1260849Y1659207D01*
X1260172Y1658999D01*
X1260096Y1658958D01*
X1260014Y1658931D01*
X1259399Y1658580D01*
X1258778Y1658244D01*
X1258712Y1658189D01*
X1258636Y1658146D01*
X1258104Y1657682D01*
X1257561Y1657229D01*
X1257506Y1657162D01*
X1257441Y1657105D01*
X1257010Y1656544D01*
X1256567Y1655994D01*
X1256527Y1655917D01*
X1256474Y1655848D01*
X1255875Y1654683D01*
X1254687Y1651813D01*
X1243856Y1640983D01*
X1229705Y1635121D01*
X1214389Y1635121D01*
G37*
%LPD*%
%LPC*%
G36*
X1040866Y1795464D02*
X1040866Y1795464D01*
X1026900Y1801249D01*
X1016210Y1811939D01*
X1010424Y1825906D01*
X1010424Y1841023D01*
X1016210Y1854990D01*
X1026900Y1865680D01*
X1040866Y1871465D01*
X1055984Y1871465D01*
X1069951Y1865680D01*
X1080641Y1854990D01*
X1081712Y1852403D01*
X1081753Y1852327D01*
X1081780Y1852244D01*
X1082127Y1851630D01*
X1082461Y1851006D01*
X1082516Y1850939D01*
X1082559Y1850864D01*
X1083021Y1850328D01*
X1083470Y1849784D01*
X1083538Y1849729D01*
X1083594Y1849663D01*
X1084153Y1849230D01*
X1084701Y1848785D01*
X1084778Y1848744D01*
X1084847Y1848691D01*
X1085480Y1848376D01*
X1086105Y1848048D01*
X1086188Y1848024D01*
X1086266Y1847985D01*
X1086949Y1847801D01*
X1087626Y1847602D01*
X1087713Y1847595D01*
X1087797Y1847572D01*
X1089102Y1847465D01*
X1172777Y1847465D01*
X1172881Y1847476D01*
X1172984Y1847468D01*
X1173668Y1847554D01*
X1174354Y1847622D01*
X1174454Y1847653D01*
X1174557Y1847666D01*
X1175209Y1847885D01*
X1175870Y1848087D01*
X1175962Y1848137D01*
X1176060Y1848170D01*
X1176657Y1848513D01*
X1177264Y1848842D01*
X1177344Y1848909D01*
X1177434Y1848961D01*
X1178433Y1849808D01*
X1183001Y1854376D01*
X1183056Y1854443D01*
X1183122Y1854500D01*
X1183558Y1855057D01*
X1184006Y1855603D01*
X1184046Y1855679D01*
X1184100Y1855748D01*
X1184418Y1856380D01*
X1184749Y1857003D01*
X1184773Y1857086D01*
X1184812Y1857164D01*
X1184999Y1857845D01*
X1185201Y1858523D01*
X1185208Y1858609D01*
X1185231Y1858693D01*
X1185280Y1859396D01*
X1185344Y1860102D01*
X1185335Y1860188D01*
X1185341Y1860274D01*
X1185250Y1860973D01*
X1185173Y1861678D01*
X1185147Y1861760D01*
X1185136Y1861846D01*
X1184735Y1863094D01*
X1183547Y1865964D01*
X1183547Y1881280D01*
X1189408Y1895431D01*
X1200238Y1906261D01*
X1214389Y1912123D01*
X1229705Y1912123D01*
X1243856Y1906261D01*
X1254687Y1895431D01*
X1255875Y1892561D01*
X1255916Y1892484D01*
X1255943Y1892402D01*
X1256289Y1891788D01*
X1256624Y1891164D01*
X1256679Y1891096D01*
X1256722Y1891021D01*
X1257183Y1890487D01*
X1257634Y1889941D01*
X1257701Y1889887D01*
X1257758Y1889821D01*
X1258316Y1889387D01*
X1258865Y1888942D01*
X1258941Y1888902D01*
X1259010Y1888849D01*
X1259644Y1888533D01*
X1260268Y1888205D01*
X1260351Y1888181D01*
X1260429Y1888142D01*
X1261113Y1887958D01*
X1261790Y1887760D01*
X1261876Y1887752D01*
X1261960Y1887730D01*
X1263266Y1887623D01*
X1335117Y1887623D01*
X1335220Y1887633D01*
X1335324Y1887625D01*
X1336007Y1887711D01*
X1336694Y1887780D01*
X1336794Y1887810D01*
X1336897Y1887823D01*
X1337549Y1888042D01*
X1338210Y1888245D01*
X1338302Y1888295D01*
X1338400Y1888328D01*
X1338997Y1888671D01*
X1339604Y1889000D01*
X1339684Y1889066D01*
X1339774Y1889118D01*
X1340773Y1889966D01*
X1351705Y1900898D01*
X1378216Y1900898D01*
X1396961Y1882153D01*
X1396961Y1855643D01*
X1378216Y1836897D01*
X1351706Y1836897D01*
X1331324Y1857278D01*
X1331244Y1857344D01*
X1331176Y1857423D01*
X1330631Y1857846D01*
X1330098Y1858283D01*
X1330006Y1858331D01*
X1329923Y1858395D01*
X1329306Y1858702D01*
X1328697Y1859026D01*
X1328597Y1859055D01*
X1328504Y1859102D01*
X1327839Y1859281D01*
X1327178Y1859478D01*
X1327074Y1859487D01*
X1326973Y1859514D01*
X1325668Y1859621D01*
X1263266Y1859621D01*
X1263179Y1859613D01*
X1263093Y1859619D01*
X1262391Y1859534D01*
X1261688Y1859464D01*
X1261605Y1859439D01*
X1261519Y1859428D01*
X1260849Y1859207D01*
X1260172Y1858999D01*
X1260096Y1858958D01*
X1260014Y1858931D01*
X1259399Y1858580D01*
X1258778Y1858244D01*
X1258712Y1858189D01*
X1258636Y1858146D01*
X1258104Y1857682D01*
X1257561Y1857229D01*
X1257506Y1857162D01*
X1257441Y1857105D01*
X1257010Y1856544D01*
X1256567Y1855994D01*
X1256527Y1855917D01*
X1256474Y1855848D01*
X1255875Y1854683D01*
X1254687Y1851813D01*
X1243856Y1840983D01*
X1229705Y1835121D01*
X1214389Y1835121D01*
X1211519Y1836310D01*
X1211435Y1836335D01*
X1211359Y1836375D01*
X1210680Y1836564D01*
X1210001Y1836769D01*
X1209915Y1836777D01*
X1209831Y1836800D01*
X1209126Y1836852D01*
X1208423Y1836919D01*
X1208337Y1836910D01*
X1208250Y1836916D01*
X1207549Y1836828D01*
X1206846Y1836755D01*
X1206763Y1836729D01*
X1206677Y1836718D01*
X1206009Y1836494D01*
X1205333Y1836283D01*
X1205257Y1836242D01*
X1205174Y1836214D01*
X1204563Y1835862D01*
X1203942Y1835523D01*
X1203875Y1835467D01*
X1203800Y1835423D01*
X1202801Y1834576D01*
X1187689Y1819464D01*
X1089102Y1819464D01*
X1089016Y1819455D01*
X1088930Y1819462D01*
X1088227Y1819377D01*
X1087525Y1819307D01*
X1087442Y1819281D01*
X1087356Y1819271D01*
X1086686Y1819049D01*
X1086009Y1818842D01*
X1085933Y1818800D01*
X1085851Y1818773D01*
X1085238Y1818424D01*
X1084615Y1818087D01*
X1084548Y1818031D01*
X1084473Y1817988D01*
X1083939Y1817524D01*
X1083397Y1817072D01*
X1083343Y1817004D01*
X1083277Y1816947D01*
X1082844Y1816384D01*
X1082404Y1815837D01*
X1082364Y1815760D01*
X1082311Y1815691D01*
X1081712Y1814526D01*
X1080641Y1811939D01*
X1069951Y1801249D01*
X1055984Y1795464D01*
X1040866Y1795464D01*
G37*
%LPD*%
%LPC*%
G36*
X313123Y618787D02*
X313123Y618787D01*
X294377Y637532D01*
X294377Y664042D01*
X310034Y679699D01*
X310100Y679780D01*
X310179Y679848D01*
X310602Y680393D01*
X311039Y680926D01*
X311087Y681018D01*
X311151Y681100D01*
X311458Y681717D01*
X311781Y682327D01*
X311811Y682426D01*
X311858Y682519D01*
X312037Y683184D01*
X312234Y683846D01*
X312243Y683950D01*
X312270Y684050D01*
X312377Y685356D01*
X312377Y709343D01*
X397633Y794598D01*
X397699Y794679D01*
X397777Y794747D01*
X398201Y795292D01*
X398637Y795825D01*
X398686Y795916D01*
X398750Y795999D01*
X399057Y796616D01*
X399380Y797225D01*
X399410Y797325D01*
X399456Y797418D01*
X399635Y798083D01*
X399832Y798745D01*
X399841Y798849D01*
X399868Y798949D01*
X399976Y800254D01*
X399976Y832296D01*
X422822Y855142D01*
X455131Y855142D01*
X477977Y832296D01*
X477977Y799987D01*
X455131Y777141D01*
X423089Y777141D01*
X422985Y777131D01*
X422882Y777138D01*
X422198Y777052D01*
X421512Y776984D01*
X421412Y776953D01*
X421309Y776940D01*
X420657Y776722D01*
X419996Y776519D01*
X419904Y776469D01*
X419806Y776436D01*
X419209Y776093D01*
X418602Y775764D01*
X418522Y775697D01*
X418432Y775645D01*
X417433Y774798D01*
X342721Y700087D01*
X342656Y700006D01*
X342577Y699938D01*
X342154Y699393D01*
X341717Y698860D01*
X341668Y698768D01*
X341605Y698686D01*
X341297Y698069D01*
X340974Y697460D01*
X340945Y697360D01*
X340898Y697267D01*
X340719Y696602D01*
X340522Y695940D01*
X340513Y695836D01*
X340486Y695736D01*
X340379Y694430D01*
X340379Y685356D01*
X340389Y685252D01*
X340381Y685148D01*
X340467Y684465D01*
X340536Y683778D01*
X340566Y683679D01*
X340579Y683576D01*
X340798Y682923D01*
X341001Y682263D01*
X341050Y682171D01*
X341083Y682073D01*
X341427Y681476D01*
X341756Y680869D01*
X341822Y680789D01*
X341874Y680699D01*
X342721Y679699D01*
X358379Y664042D01*
X358379Y637532D01*
X339633Y618787D01*
X313123Y618787D01*
G37*
%LPD*%
%LPC*%
G36*
X528477Y1531385D02*
X528477Y1531385D01*
X509732Y1550131D01*
X509732Y1576641D01*
X528477Y1595386D01*
X550363Y1595386D01*
X550488Y1595399D01*
X550613Y1595390D01*
X551274Y1595477D01*
X551941Y1595544D01*
X552061Y1595580D01*
X552184Y1595597D01*
X552816Y1595812D01*
X553456Y1596009D01*
X553566Y1596068D01*
X553685Y1596109D01*
X554263Y1596445D01*
X554850Y1596764D01*
X554946Y1596844D01*
X555055Y1596907D01*
X556049Y1597759D01*
X607984Y1650244D01*
X607985Y1650244D01*
X607985Y1650245D01*
X615900Y1658243D01*
X615900Y1658244D01*
X623450Y1665873D01*
X623502Y1665937D01*
X623565Y1665992D01*
X624001Y1666553D01*
X624448Y1667105D01*
X624486Y1667179D01*
X624537Y1667244D01*
X624855Y1667882D01*
X625183Y1668509D01*
X625206Y1668588D01*
X625243Y1668663D01*
X625429Y1669352D01*
X625627Y1670031D01*
X625634Y1670114D01*
X625656Y1670194D01*
X625763Y1671500D01*
X625763Y1702833D01*
X625753Y1702937D01*
X625760Y1703040D01*
X625674Y1703724D01*
X625606Y1704411D01*
X625575Y1704510D01*
X625562Y1704613D01*
X625344Y1705265D01*
X625141Y1705926D01*
X625091Y1706018D01*
X625058Y1706116D01*
X624715Y1706713D01*
X624386Y1707320D01*
X624319Y1707400D01*
X624267Y1707490D01*
X623420Y1708489D01*
X607763Y1724147D01*
X607763Y1750656D01*
X626509Y1769402D01*
X653019Y1769402D01*
X671764Y1750656D01*
X671764Y1724147D01*
X656107Y1708489D01*
X656041Y1708409D01*
X655963Y1708341D01*
X655539Y1707796D01*
X655103Y1707263D01*
X655054Y1707171D01*
X654990Y1707089D01*
X654683Y1706472D01*
X654360Y1705862D01*
X654330Y1705763D01*
X654284Y1705669D01*
X654105Y1705005D01*
X653908Y1704343D01*
X653899Y1704239D01*
X653872Y1704139D01*
X653764Y1702833D01*
X653764Y1662512D01*
X653766Y1662493D01*
X653765Y1662470D01*
X653795Y1656686D01*
X649692Y1652583D01*
X649680Y1652568D01*
X649662Y1652553D01*
X576046Y1578158D01*
X575994Y1578093D01*
X575931Y1578039D01*
X575494Y1577477D01*
X575048Y1576926D01*
X575010Y1576852D01*
X574959Y1576787D01*
X574643Y1576151D01*
X574313Y1575521D01*
X574290Y1575442D01*
X574253Y1575368D01*
X574067Y1574678D01*
X573869Y1574000D01*
X573862Y1573917D01*
X573840Y1573837D01*
X573733Y1572531D01*
X573733Y1550131D01*
X554987Y1531385D01*
X528477Y1531385D01*
G37*
%LPD*%
%LPC*%
G36*
X784706Y738913D02*
X784706Y738913D01*
X768902Y745459D01*
X756805Y757555D01*
X750259Y773360D01*
X750259Y790467D01*
X756805Y806271D01*
X768902Y818368D01*
X784706Y824914D01*
X801813Y824914D01*
X817618Y818368D01*
X829714Y806271D01*
X836260Y790467D01*
X836260Y773360D01*
X829714Y757555D01*
X817618Y745459D01*
X801813Y738913D01*
X784706Y738913D01*
G37*
%LPD*%
%LPC*%
G36*
X784706Y560913D02*
X784706Y560913D01*
X768902Y567459D01*
X756805Y579555D01*
X750259Y595360D01*
X750259Y612467D01*
X756805Y628271D01*
X768902Y640368D01*
X784706Y646914D01*
X801813Y646914D01*
X817618Y640368D01*
X829714Y628271D01*
X836260Y612467D01*
X836260Y595360D01*
X829714Y579555D01*
X817618Y567459D01*
X801813Y560913D01*
X784706Y560913D01*
G37*
%LPD*%
%LPC*%
G36*
X1434109Y241196D02*
X1434109Y241196D01*
X1434109Y318989D01*
X1444452Y316628D01*
X1454523Y313104D01*
X1464136Y308475D01*
X1473171Y302798D01*
X1481513Y296145D01*
X1489059Y288599D01*
X1495711Y280258D01*
X1501388Y271223D01*
X1506018Y261609D01*
X1509542Y251538D01*
X1511902Y241196D01*
X1434109Y241196D01*
G37*
%LPD*%
%LPC*%
G36*
X1315999Y426235D02*
X1315999Y426235D01*
X1315999Y504028D01*
X1326342Y501668D01*
X1336412Y498144D01*
X1346026Y493514D01*
X1355061Y487837D01*
X1363403Y481185D01*
X1370949Y473639D01*
X1377601Y465297D01*
X1383278Y456262D01*
X1387907Y446649D01*
X1391431Y436578D01*
X1393792Y426235D01*
X1315999Y426235D01*
G37*
%LPD*%
%LPC*%
G36*
X1315999Y394237D02*
X1315999Y394237D01*
X1393792Y394237D01*
X1391431Y383895D01*
X1387907Y373824D01*
X1383278Y364210D01*
X1377601Y355175D01*
X1370949Y346834D01*
X1363403Y339288D01*
X1355061Y332635D01*
X1346026Y326958D01*
X1336412Y322329D01*
X1326342Y318805D01*
X1315999Y316444D01*
X1315999Y394237D01*
G37*
%LPD*%
%LPC*%
G36*
X1324318Y241196D02*
X1324318Y241196D01*
X1326679Y251538D01*
X1330203Y261609D01*
X1334832Y271223D01*
X1340509Y280258D01*
X1347162Y288599D01*
X1354708Y296145D01*
X1363049Y302798D01*
X1372084Y308475D01*
X1381698Y313104D01*
X1391769Y316628D01*
X1402111Y318989D01*
X1402111Y241196D01*
X1324318Y241196D01*
G37*
%LPD*%
%LPC*%
G36*
X1206208Y426235D02*
X1206208Y426235D01*
X1208569Y436578D01*
X1212092Y446649D01*
X1216722Y456262D01*
X1222399Y465297D01*
X1229051Y473639D01*
X1236597Y481185D01*
X1244939Y487837D01*
X1253974Y493514D01*
X1263587Y498144D01*
X1273658Y501668D01*
X1284001Y504028D01*
X1284001Y426235D01*
X1206208Y426235D01*
G37*
%LPD*%
%LPC*%
G36*
X1434109Y209198D02*
X1434109Y209198D01*
X1511902Y209198D01*
X1509542Y198855D01*
X1506018Y188784D01*
X1501388Y179171D01*
X1495711Y170136D01*
X1489059Y161794D01*
X1481513Y154248D01*
X1473171Y147596D01*
X1464136Y141919D01*
X1454523Y137289D01*
X1444452Y133765D01*
X1434109Y131405D01*
X1434109Y209198D01*
G37*
%LPD*%
%LPC*%
G36*
X1391769Y133765D02*
X1391769Y133765D01*
X1381698Y137289D01*
X1372084Y141919D01*
X1363049Y147596D01*
X1354708Y154248D01*
X1347162Y161794D01*
X1340509Y170136D01*
X1334832Y179171D01*
X1330203Y188784D01*
X1326679Y198855D01*
X1324318Y209198D01*
X1402111Y209198D01*
X1402111Y131405D01*
X1391769Y133765D01*
G37*
%LPD*%
%LPC*%
G36*
X1273658Y318805D02*
X1273658Y318805D01*
X1263587Y322329D01*
X1253974Y326958D01*
X1244939Y332635D01*
X1236597Y339288D01*
X1229051Y346834D01*
X1222399Y355175D01*
X1216722Y364210D01*
X1212092Y373824D01*
X1208569Y383895D01*
X1206208Y394237D01*
X1284001Y394237D01*
X1284001Y316444D01*
X1273658Y318805D01*
G37*
%LPD*%
%LPC*%
G36*
X1604487Y1637165D02*
X1604487Y1637165D01*
X1604487Y1667166D01*
X1627637Y1667166D01*
X1633855Y1666181D01*
X1639843Y1664235D01*
X1645453Y1661377D01*
X1650547Y1657676D01*
X1654999Y1653224D01*
X1658700Y1648130D01*
X1661558Y1642520D01*
X1663298Y1637165D01*
X1604487Y1637165D01*
G37*
%LPD*%
%LPC*%
G36*
X235984Y340708D02*
X235984Y340708D01*
X235984Y370709D01*
X259133Y370709D01*
X265351Y369724D01*
X271339Y367779D01*
X276949Y364921D01*
X282043Y361219D01*
X286495Y356767D01*
X290196Y351673D01*
X293054Y346064D01*
X294794Y340708D01*
X235984Y340708D01*
G37*
%LPD*%
%LPC*%
G36*
X1604487Y837165D02*
X1604487Y837165D01*
X1604487Y867166D01*
X1627637Y867166D01*
X1633855Y866181D01*
X1639843Y864235D01*
X1645453Y861377D01*
X1650547Y857676D01*
X1654999Y853224D01*
X1658700Y848130D01*
X1661558Y842520D01*
X1663298Y837165D01*
X1604487Y837165D01*
G37*
%LPD*%
%LPC*%
G36*
X1439133Y832834D02*
X1439133Y832834D01*
X1439133Y862835D01*
X1462282Y862835D01*
X1468500Y861850D01*
X1474489Y859905D01*
X1480098Y857047D01*
X1485192Y853345D01*
X1489645Y848893D01*
X1493346Y843799D01*
X1496204Y838190D01*
X1497944Y832834D01*
X1439133Y832834D01*
G37*
%LPD*%
%LPC*%
G36*
X157174Y340708D02*
X157174Y340708D01*
X158914Y346064D01*
X161772Y351673D01*
X165473Y356767D01*
X169926Y361219D01*
X175020Y364921D01*
X180629Y367779D01*
X186618Y369724D01*
X192836Y370709D01*
X215985Y370709D01*
X215985Y340708D01*
X157174Y340708D01*
G37*
%LPD*%
%LPC*%
G36*
X1360324Y832834D02*
X1360324Y832834D01*
X1362064Y838190D01*
X1364922Y843799D01*
X1368623Y848893D01*
X1373075Y853345D01*
X1378169Y857047D01*
X1383779Y859905D01*
X1389767Y861850D01*
X1395985Y862835D01*
X1419134Y862835D01*
X1419134Y832834D01*
X1360324Y832834D01*
G37*
%LPD*%
%LPC*%
G36*
X1525678Y837165D02*
X1525678Y837165D01*
X1527418Y842520D01*
X1530276Y848130D01*
X1533977Y853224D01*
X1538430Y857676D01*
X1543524Y861377D01*
X1549133Y864235D01*
X1555122Y866181D01*
X1561340Y867166D01*
X1584489Y867166D01*
X1584489Y837165D01*
X1525678Y837165D01*
G37*
%LPD*%
%LPC*%
G36*
X1525678Y1637165D02*
X1525678Y1637165D01*
X1527418Y1642520D01*
X1530276Y1648130D01*
X1533977Y1653224D01*
X1538430Y1657676D01*
X1543524Y1661377D01*
X1549133Y1664235D01*
X1555122Y1666181D01*
X1561340Y1667166D01*
X1584489Y1667166D01*
X1584489Y1637165D01*
X1525678Y1637165D01*
G37*
%LPD*%
%LPC*%
G36*
X1439133Y782834D02*
X1439133Y782834D01*
X1439133Y812835D01*
X1497944Y812835D01*
X1496204Y807479D01*
X1493346Y801870D01*
X1489645Y796776D01*
X1485192Y792324D01*
X1480098Y788623D01*
X1474489Y785765D01*
X1468500Y783819D01*
X1462282Y782834D01*
X1439133Y782834D01*
G37*
%LPD*%
%LPC*%
G36*
X1604487Y787165D02*
X1604487Y787165D01*
X1604487Y817166D01*
X1663298Y817166D01*
X1661558Y811810D01*
X1658700Y806201D01*
X1654999Y801107D01*
X1650547Y796655D01*
X1645453Y792953D01*
X1639843Y790095D01*
X1633855Y788149D01*
X1627637Y787165D01*
X1604487Y787165D01*
G37*
%LPD*%
%LPC*%
G36*
X1604487Y1587165D02*
X1604487Y1587165D01*
X1604487Y1617166D01*
X1663298Y1617166D01*
X1661558Y1611810D01*
X1658700Y1606201D01*
X1654999Y1601107D01*
X1650547Y1596655D01*
X1645453Y1592953D01*
X1639843Y1590095D01*
X1633855Y1588149D01*
X1627637Y1587165D01*
X1604487Y1587165D01*
G37*
%LPD*%
%LPC*%
G36*
X235984Y290708D02*
X235984Y290708D01*
X235984Y320709D01*
X294794Y320709D01*
X293054Y315353D01*
X290196Y309744D01*
X286495Y304650D01*
X282043Y300198D01*
X276949Y296497D01*
X271339Y293639D01*
X265351Y291693D01*
X259133Y290708D01*
X235984Y290708D01*
G37*
%LPD*%
%LPC*%
G36*
X192836Y290708D02*
X192836Y290708D01*
X186618Y291693D01*
X180629Y293639D01*
X175020Y296497D01*
X169926Y300198D01*
X165473Y304650D01*
X161772Y309744D01*
X158914Y315353D01*
X157174Y320709D01*
X215985Y320709D01*
X215985Y290708D01*
X192836Y290708D01*
G37*
%LPD*%
%LPC*%
G36*
X1561340Y787165D02*
X1561340Y787165D01*
X1555122Y788149D01*
X1549133Y790095D01*
X1543524Y792953D01*
X1538430Y796655D01*
X1533977Y801107D01*
X1530276Y806201D01*
X1527418Y811810D01*
X1525678Y817166D01*
X1584489Y817166D01*
X1584489Y787164D01*
X1561340Y787165D01*
G37*
%LPD*%
%LPC*%
G36*
X1395985Y782834D02*
X1395985Y782834D01*
X1389767Y783819D01*
X1383779Y785765D01*
X1378169Y788623D01*
X1373075Y792324D01*
X1368623Y796776D01*
X1364922Y801870D01*
X1362064Y807479D01*
X1360324Y812835D01*
X1419134Y812835D01*
X1419134Y782834D01*
X1395985Y782834D01*
G37*
%LPD*%
%LPC*%
G36*
X1561340Y1587165D02*
X1561340Y1587165D01*
X1555122Y1588149D01*
X1549133Y1590095D01*
X1543524Y1592953D01*
X1538430Y1596655D01*
X1533977Y1601107D01*
X1530276Y1606201D01*
X1527418Y1611810D01*
X1525678Y1617166D01*
X1584489Y1617166D01*
X1584489Y1587164D01*
X1561340Y1587165D01*
G37*
%LPD*%
%LPC*%
G36*
X546976Y824141D02*
X546976Y824141D01*
X546976Y859142D01*
X556788Y859142D01*
X581977Y833953D01*
X581977Y824141D01*
X546976Y824141D01*
G37*
%LPD*%
%LPC*%
G36*
X495976Y824141D02*
X495976Y824141D01*
X495976Y833953D01*
X521165Y859142D01*
X530976Y859142D01*
X530976Y824141D01*
X495976Y824141D01*
G37*
%LPD*%
%LPC*%
G36*
X546976Y773141D02*
X546976Y773141D01*
X546976Y808142D01*
X581977Y808142D01*
X581977Y798330D01*
X556788Y773141D01*
X546976Y773141D01*
G37*
%LPD*%
%LPC*%
G36*
X521165Y773141D02*
X521165Y773141D01*
X495976Y798330D01*
X495976Y808142D01*
X530976Y808142D01*
X530976Y773141D01*
X521165Y773141D01*
G37*
%LPD*%
%LPC*%
G36*
X1059259Y613913D02*
X1059259Y613913D01*
X1059259Y649916D01*
X1060265Y649757D01*
X1067302Y647470D01*
X1073894Y644112D01*
X1079878Y639764D01*
X1085110Y634532D01*
X1089458Y628547D01*
X1092817Y621955D01*
X1095103Y614919D01*
X1095263Y613913D01*
X1059259Y613913D01*
G37*
%LPD*%
%LPC*%
G36*
X1003257Y613913D02*
X1003257Y613913D01*
X1003416Y614919D01*
X1005703Y621955D01*
X1009061Y628547D01*
X1013409Y634532D01*
X1018641Y639764D01*
X1024626Y644112D01*
X1031218Y647470D01*
X1038254Y649757D01*
X1039260Y649916D01*
X1039260Y613913D01*
X1003257Y613913D01*
G37*
%LPD*%
%LPC*%
G36*
X1059259Y593914D02*
X1059259Y593914D01*
X1095263Y593914D01*
X1095103Y592908D01*
X1092817Y585871D01*
X1089458Y579279D01*
X1085110Y573295D01*
X1079878Y568063D01*
X1073894Y563715D01*
X1067302Y560356D01*
X1060265Y558070D01*
X1059259Y557910D01*
X1059259Y593914D01*
G37*
%LPD*%
%LPC*%
G36*
X1038254Y558070D02*
X1038254Y558070D01*
X1031218Y560356D01*
X1024626Y563715D01*
X1018641Y568063D01*
X1013409Y573295D01*
X1009061Y579279D01*
X1005703Y585871D01*
X1003416Y592908D01*
X1003257Y593914D01*
X1039260Y593914D01*
X1039260Y557911D01*
X1038254Y558070D01*
G37*
%LPD*%
%LPC*%
G36*
X514693Y133984D02*
X514693Y133984D01*
X514693Y166985D01*
X523676Y166985D01*
X547694Y142967D01*
X547694Y133984D01*
X514693Y133984D01*
G37*
%LPD*%
%LPC*%
G36*
X514693Y400126D02*
X514693Y400126D01*
X514693Y433126D01*
X523676Y433127D01*
X547694Y409109D01*
X547694Y400126D01*
X514693Y400126D01*
G37*
%LPD*%
%LPC*%
G36*
X465692Y400126D02*
X465692Y400126D01*
X465692Y409109D01*
X489710Y433127D01*
X498693Y433127D01*
X498693Y400126D01*
X465692Y400126D01*
G37*
%LPD*%
%LPC*%
G36*
X465692Y133984D02*
X465692Y133984D01*
X465692Y142967D01*
X489710Y166985D01*
X498693Y166985D01*
X498693Y133984D01*
X465692Y133984D01*
G37*
%LPD*%
%LPC*%
G36*
X514693Y84984D02*
X514693Y84984D01*
X514693Y117984D01*
X547693Y117984D01*
X547694Y109001D01*
X523676Y84984D01*
X514693Y84984D01*
G37*
%LPD*%
%LPC*%
G36*
X514693Y351125D02*
X514693Y351125D01*
X514693Y384126D01*
X547693Y384126D01*
X547694Y375143D01*
X523676Y351125D01*
X514693Y351125D01*
G37*
%LPD*%
%LPC*%
G36*
X489710Y351125D02*
X489710Y351125D01*
X465692Y375143D01*
X465692Y384126D01*
X498693Y384126D01*
X498693Y351125D01*
X489710Y351125D01*
G37*
%LPD*%
%LPC*%
G36*
X489710Y84984D02*
X489710Y84984D01*
X465692Y109001D01*
X465692Y117984D01*
X498693Y117984D01*
X498693Y84984D01*
X489710Y84984D01*
G37*
%LPD*%
%LPC*%
G36*
X1056425Y1641464D02*
X1056425Y1641464D01*
X1056425Y1674722D01*
X1058261Y1674431D01*
X1064548Y1672388D01*
X1070439Y1669387D01*
X1075786Y1665501D01*
X1080462Y1660826D01*
X1084347Y1655478D01*
X1087349Y1649587D01*
X1089391Y1643300D01*
X1089682Y1641464D01*
X1056425Y1641464D01*
G37*
%LPD*%
%LPC*%
G36*
X756425Y1541464D02*
X756425Y1541464D01*
X756425Y1574722D01*
X758261Y1574431D01*
X764548Y1572388D01*
X770439Y1569387D01*
X775786Y1565501D01*
X780462Y1560826D01*
X784347Y1555478D01*
X787349Y1549587D01*
X789391Y1543300D01*
X789682Y1541464D01*
X756425Y1541464D01*
G37*
%LPD*%
%LPC*%
G36*
X756425Y1525465D02*
X756425Y1525465D01*
X789682Y1525465D01*
X789391Y1523629D01*
X787349Y1517342D01*
X784347Y1511451D01*
X780462Y1506103D01*
X775786Y1501428D01*
X770439Y1497542D01*
X764548Y1494541D01*
X758261Y1492498D01*
X756425Y1492207D01*
X756425Y1525465D01*
G37*
%LPD*%
%LPC*%
G36*
X1007168Y1641464D02*
X1007168Y1641464D01*
X1007459Y1643300D01*
X1009501Y1649587D01*
X1012503Y1655478D01*
X1016388Y1660826D01*
X1021064Y1665501D01*
X1026412Y1669387D01*
X1032303Y1672388D01*
X1038590Y1674431D01*
X1040425Y1674722D01*
X1040425Y1641464D01*
X1007168Y1641464D01*
G37*
%LPD*%
%LPC*%
G36*
X707168Y1541464D02*
X707168Y1541464D01*
X707459Y1543300D01*
X709501Y1549587D01*
X712503Y1555478D01*
X716388Y1560826D01*
X721064Y1565501D01*
X726412Y1569387D01*
X732303Y1572388D01*
X738590Y1574431D01*
X740425Y1574722D01*
X740425Y1541464D01*
X707168Y1541464D01*
G37*
%LPD*%
%LPC*%
G36*
X1056425Y1625465D02*
X1056425Y1625465D01*
X1089682Y1625465D01*
X1089391Y1623629D01*
X1087349Y1617342D01*
X1084347Y1611451D01*
X1080462Y1606103D01*
X1075786Y1601428D01*
X1070439Y1597542D01*
X1064548Y1594541D01*
X1058261Y1592498D01*
X1056425Y1592207D01*
X1056425Y1625465D01*
G37*
%LPD*%
%LPC*%
G36*
X738590Y1492498D02*
X738590Y1492498D01*
X732303Y1494541D01*
X726412Y1497542D01*
X721064Y1501428D01*
X716388Y1506103D01*
X712503Y1511451D01*
X709501Y1517342D01*
X707459Y1523629D01*
X707168Y1525465D01*
X740425Y1525465D01*
X740425Y1492207D01*
X738590Y1492498D01*
G37*
%LPD*%
%LPC*%
G36*
X1038590Y1592498D02*
X1038590Y1592498D01*
X1032303Y1594541D01*
X1026412Y1597542D01*
X1021064Y1601428D01*
X1016388Y1606103D01*
X1012503Y1611451D01*
X1009501Y1617342D01*
X1007459Y1623629D01*
X1007168Y1625465D01*
X1040425Y1625465D01*
X1040425Y1592207D01*
X1038590Y1592498D01*
G37*
%LPD*%
%LPC*%
G36*
X449732Y1571386D02*
X449732Y1571386D01*
X449732Y1599386D01*
X456644Y1599386D01*
X477733Y1578298D01*
X477733Y1571386D01*
X449732Y1571386D01*
G37*
%LPD*%
%LPC*%
G36*
X1472960Y1876897D02*
X1472960Y1876897D01*
X1472960Y1904898D01*
X1479872Y1904898D01*
X1500961Y1883809D01*
X1500961Y1876897D01*
X1472960Y1876897D01*
G37*
%LPD*%
%LPC*%
G36*
X1428960Y1876897D02*
X1428960Y1876897D01*
X1428960Y1883809D01*
X1450049Y1904898D01*
X1456961Y1904898D01*
X1456961Y1876897D01*
X1428960Y1876897D01*
G37*
%LPD*%
%LPC*%
G36*
X405731Y1571386D02*
X405731Y1571386D01*
X405732Y1578298D01*
X426820Y1599386D01*
X433732Y1599386D01*
X433732Y1571386D01*
X405731Y1571386D01*
G37*
%LPD*%
%LPC*%
G36*
X1429353Y1741858D02*
X1429353Y1741858D01*
X1429354Y1748770D01*
X1450442Y1769859D01*
X1457354Y1769859D01*
X1457354Y1741858D01*
X1429353Y1741858D01*
G37*
%LPD*%
%LPC*%
G36*
X1472960Y1832897D02*
X1472960Y1832897D01*
X1472960Y1860898D01*
X1500961Y1860898D01*
X1500961Y1853986D01*
X1479872Y1832897D01*
X1472960Y1832897D01*
G37*
%LPD*%
%LPC*%
G36*
X449732Y1527385D02*
X449732Y1527385D01*
X449732Y1555386D01*
X477733Y1555386D01*
X477733Y1548474D01*
X456644Y1527385D01*
X449732Y1527385D01*
G37*
%LPD*%
%LPC*%
G36*
X1450442Y1697858D02*
X1450442Y1697858D01*
X1429354Y1718946D01*
X1429354Y1725858D01*
X1457354Y1725858D01*
X1457354Y1697858D01*
X1450442Y1697858D01*
G37*
%LPD*%
%LPC*%
G36*
X426820Y1527385D02*
X426820Y1527385D01*
X405732Y1548474D01*
X405732Y1555386D01*
X433732Y1555386D01*
X433732Y1527385D01*
X426820Y1527385D01*
G37*
%LPD*%
%LPC*%
G36*
X1450049Y1832897D02*
X1450049Y1832897D01*
X1428960Y1853986D01*
X1428960Y1860898D01*
X1456961Y1860898D01*
X1456961Y1832897D01*
X1450049Y1832897D01*
G37*
%LPD*%
%LPC*%
G36*
X1418109Y225195D02*
X1418109Y225195D01*
X1418109Y225198D01*
X1418111Y225198D01*
X1418111Y225195D01*
X1418109Y225195D01*
G37*
%LPD*%
%LPC*%
G36*
X1299999Y410235D02*
X1299999Y410235D01*
X1299999Y410237D01*
X1300001Y410237D01*
X1300001Y410235D01*
X1299999Y410235D01*
G37*
%LPD*%
D10*
X506693Y125984D03*
D11*
X506693Y225984D03*
D10*
X506693Y392126D03*
D11*
X506693Y492126D03*
D12*
X1364961Y1868898D03*
X1464961Y1868898D03*
X1365354Y1733858D03*
X1465354Y1733858D03*
X1139764Y983071D03*
X1239764Y983071D03*
D13*
X1181890Y225197D03*
X1418110Y225197D03*
X1300000Y410236D03*
D14*
X177244Y1437008D02*
X117244Y1437008D01*
X117244Y1337008D02*
X177244Y1337008D01*
X177244Y1237008D02*
X117244Y1237008D01*
X117244Y1137008D02*
X177244Y1137008D01*
X177244Y1037008D02*
X117244Y1037008D01*
X117244Y937008D02*
X177244Y937008D01*
D15*
X541732Y1563386D03*
X441732Y1563386D03*
D16*
X1183858Y833465D03*
X1183858Y533465D03*
D15*
X639764Y1737402D03*
X339764Y1737402D03*
D17*
X1048425Y933465D03*
X1048425Y1033465D03*
X1048425Y1133465D03*
X1048425Y1233465D03*
X1048425Y1333465D03*
X1048425Y1433465D03*
X1048425Y1533465D03*
X1048425Y1633465D03*
X1048425Y1733465D03*
X1048425Y1833465D03*
X1048425Y1933465D03*
X1048425Y2033465D03*
X1048425Y2133465D03*
X1048425Y2233465D03*
X748425Y2233465D03*
X748425Y2133465D03*
X748425Y2033465D03*
X748425Y1933465D03*
X748425Y1833465D03*
X748425Y1733465D03*
X748425Y1633465D03*
X748425Y1533465D03*
X748425Y1433465D03*
X748425Y1333465D03*
X748425Y1233465D03*
X748425Y1133465D03*
X748425Y1033465D03*
X748425Y933465D03*
D15*
X626378Y650787D03*
X326378Y650787D03*
D18*
X438976Y816142D03*
X538976Y816142D03*
D19*
X1222047Y1873622D03*
X1222047Y1673622D03*
D14*
X1564488Y727165D02*
X1624488Y727165D01*
X1624488Y827165D02*
X1564488Y827165D01*
X1564488Y927165D02*
X1624488Y927165D01*
X1624488Y1027165D02*
X1564488Y1027165D01*
X1564488Y1127165D02*
X1624488Y1127165D01*
X1624488Y1227165D02*
X1564488Y1227165D01*
X1564488Y1327165D02*
X1624488Y1327165D01*
X1624488Y1427165D02*
X1564488Y1427165D01*
X1564488Y1527165D02*
X1624488Y1527165D01*
X1624488Y1627165D02*
X1564488Y1627165D01*
X183543Y2247244D02*
X123543Y2247244D01*
X123543Y2147244D02*
X183543Y2147244D01*
X183543Y2047244D02*
X123543Y2047244D01*
X123543Y1947244D02*
X183543Y1947244D01*
X183543Y1847244D02*
X123543Y1847244D01*
X1560551Y1936614D02*
X1620551Y1936614D01*
X1620551Y2036614D02*
X1560551Y2036614D01*
X1560551Y2136614D02*
X1620551Y2136614D01*
X1620551Y2236614D02*
X1560551Y2236614D01*
X255984Y230709D02*
X195984Y230709D01*
X195984Y330709D02*
X255984Y330709D01*
X255984Y430709D02*
X195984Y430709D01*
D20*
X1049260Y603913D03*
X793260Y603913D03*
X1049260Y781913D03*
X793260Y781913D03*
D21*
X911417Y224409D03*
X765748Y224409D03*
D14*
X1399134Y722835D02*
X1459134Y722835D01*
X1459134Y822835D02*
X1399134Y822835D01*
X1399134Y922835D02*
X1459134Y922835D01*
D22*
X501969Y230709D02*
X225984Y230709D01*
X501969Y230709D02*
X506693Y225984D01*
X764173Y225984D01*
X765748Y224409D01*
X225984Y430709D02*
X225984Y492126D01*
X506693Y492126D01*
X909449Y492126D01*
X1142520Y492126D01*
X1183858Y533465D01*
D23*
X626378Y611811D02*
X626378Y650787D01*
X626378Y611811D02*
X506693Y492126D01*
D22*
X905512Y496063D02*
X909449Y492126D01*
X905512Y496063D02*
X905512Y1464567D01*
X974409Y1533465D01*
X905512Y1578740D02*
X905512Y1464567D01*
X750787Y1733465D02*
X748425Y1733465D01*
X838583Y1645669D02*
X905512Y1578740D01*
X838583Y1645669D02*
X750787Y1733465D01*
X838583Y1645669D02*
X826378Y1633465D01*
X748425Y1633465D01*
X974409Y1533465D02*
X1048425Y1533465D01*
D24*
X1588189Y1533465D01*
X1594488Y1527165D01*
X1373228Y722835D02*
X1183858Y533465D01*
X1373228Y722835D02*
X1429134Y722835D01*
X1433464Y727165D02*
X1594488Y727165D01*
X1433464Y727165D02*
X1429134Y722835D01*
D25*
X1699698Y692102D02*
X1722543Y714948D01*
X1722543Y747257D01*
X1699698Y770102D01*
D23*
X1165354Y1733465D02*
X1048425Y1733465D01*
X1165354Y1733465D02*
X1222047Y1673622D01*
X1305118Y1673622D01*
X1365354Y1733858D01*
X1267323Y1010630D02*
X1467717Y1010630D01*
X1267323Y1010630D02*
X1239764Y983071D01*
X1551181Y927165D02*
X1594488Y927165D01*
X1551181Y927165D02*
X1467717Y1010630D01*
X1501575Y1064961D02*
X1079921Y1064961D01*
X1048425Y1033465D01*
X1539370Y1027165D02*
X1594488Y1027165D01*
X1539370Y1027165D02*
X1501575Y1064961D01*
X1588189Y1133465D02*
X1048425Y1133465D01*
X1588189Y1133465D02*
X1594488Y1127165D01*
D24*
X339764Y1737402D02*
X263386Y1737402D01*
X153543Y1847244D01*
X734646Y1847244D01*
X748425Y1833465D01*
D23*
X639764Y1737402D02*
X639764Y1662455D01*
X541732Y1563386D01*
X744882Y1437008D02*
X748425Y1433465D01*
X744882Y1437008D02*
X147244Y1437008D01*
X744882Y1337008D02*
X748425Y1333465D01*
X744882Y1337008D02*
X147244Y1337008D01*
X744882Y1237008D02*
X748425Y1233465D01*
X744882Y1237008D02*
X147244Y1237008D01*
X744882Y1137008D02*
X748425Y1133465D01*
X744882Y1137008D02*
X147244Y1137008D01*
X744882Y1037008D02*
X748425Y1033465D01*
X744882Y1037008D02*
X147244Y1037008D01*
X744882Y937008D02*
X748425Y933465D01*
X744882Y937008D02*
X147244Y937008D01*
X1048425Y1233465D02*
X1588189Y1233465D01*
X1594488Y1227165D01*
X1588189Y1333465D02*
X1048425Y1333465D01*
X1588189Y1333465D02*
X1594488Y1327165D01*
X1054724Y1427165D02*
X1048425Y1433465D01*
X1054724Y1427165D02*
X1594488Y1427165D01*
X1297244Y1954724D02*
X1263780Y1988189D01*
X1149606Y1988189D01*
X1094488Y1933071D01*
X1094488Y1929134D01*
X1052756Y1929134D01*
X1048425Y1933465D01*
X1539764Y1936614D02*
X1590551Y1936614D01*
X1521654Y1954724D02*
X1297244Y1954724D01*
X1521654Y1954724D02*
X1539764Y1936614D01*
X1587402Y2033465D02*
X1048425Y2033465D01*
X1587402Y2033465D02*
X1590551Y2036614D01*
X1587402Y2133465D02*
X1048425Y2133465D01*
X1587402Y2133465D02*
X1590551Y2136614D01*
X1587402Y2233465D02*
X1048425Y2233465D01*
X1587402Y2233465D02*
X1590551Y2236614D01*
X734646Y2247244D02*
X153543Y2247244D01*
X734646Y2247244D02*
X748425Y2233465D01*
X734646Y2147244D02*
X153543Y2147244D01*
X734646Y2147244D02*
X748425Y2133465D01*
X734646Y2047244D02*
X153543Y2047244D01*
X734646Y2047244D02*
X748425Y2033465D01*
X734646Y1947244D02*
X153543Y1947244D01*
X734646Y1947244D02*
X748425Y1933465D01*
X438976Y816142D02*
X326378Y703543D01*
X326378Y650787D01*
X1048425Y1833465D02*
X1181890Y1833465D01*
X1222047Y1873622D01*
X1360236Y1873622D02*
X1364961Y1868898D01*
X1360236Y1873622D02*
X1222047Y1873622D01*
D22*
X1181890Y225197D02*
X912205Y225197D01*
X911417Y224409D01*
D23*
X1048425Y933465D02*
X1090157Y933465D01*
X1139764Y983071D01*
X1183858Y938976D01*
X1183858Y833465D01*
X1048866Y933024D02*
X1048425Y933465D01*
D24*
X1049260Y932630D02*
X1049260Y781913D01*
X1049260Y932630D02*
X1048866Y933024D01*
X1183858Y833465D02*
X1215354Y864961D01*
X1272835Y864961D01*
X1330709Y922835D02*
X1429134Y922835D01*
X1330709Y922835D02*
X1272835Y864961D01*
M02*
