G04 EAGLE Gerber X2 export*
%TF.Part,Single*%
%TF.FileFunction,Legend,Bot,1*%
%TF.FilePolarity,Positive*%
%TF.GenerationSoftware,Autodesk,EAGLE,9.6.2*%
%TF.CreationDate,2023-04-01T14:46:51Z*%
G75*
%MOIN*%
%FSLAX36Y36*%
%LPD*%
%INBottom Silkscreen*%
%AMOC8*
5,1,8,0,0,1.08239X$1,22.5*%
G01*
%ADD10C,0.004000*%
%ADD11C,0.005000*%


D10*
X856268Y277591D02*
X856268Y312961D01*
X840548Y312961D01*
X840548Y297241D02*
X856268Y297241D01*
X826820Y305101D02*
X816995Y312961D01*
X816995Y277591D01*
X826820Y277591D02*
X807170Y277591D01*
X905498Y179102D02*
X915323Y171242D01*
X905498Y179102D02*
X905498Y143732D01*
X915323Y143732D02*
X895673Y143732D01*
X869082Y179103D02*
X868868Y179100D01*
X868655Y179093D01*
X868441Y179080D01*
X868229Y179062D01*
X868016Y179039D01*
X867804Y179010D01*
X867593Y178977D01*
X867383Y178938D01*
X867174Y178895D01*
X866966Y178846D01*
X866759Y178792D01*
X866553Y178734D01*
X866349Y178670D01*
X866147Y178602D01*
X865946Y178528D01*
X865747Y178450D01*
X865550Y178367D01*
X865356Y178279D01*
X865163Y178187D01*
X864972Y178090D01*
X864784Y177988D01*
X864599Y177882D01*
X864416Y177772D01*
X864236Y177657D01*
X864059Y177538D01*
X863884Y177414D01*
X863713Y177286D01*
X863545Y177155D01*
X863380Y177019D01*
X863218Y176879D01*
X863060Y176735D01*
X862905Y176588D01*
X862754Y176437D01*
X862607Y176282D01*
X862463Y176124D01*
X862323Y175962D01*
X862187Y175797D01*
X862056Y175629D01*
X861928Y175458D01*
X861804Y175283D01*
X861685Y175106D01*
X861570Y174926D01*
X861460Y174743D01*
X861354Y174558D01*
X861252Y174370D01*
X861155Y174179D01*
X861063Y173986D01*
X860975Y173792D01*
X860892Y173595D01*
X860814Y173396D01*
X860740Y173195D01*
X860672Y172993D01*
X860608Y172789D01*
X860550Y172583D01*
X860496Y172376D01*
X860447Y172168D01*
X860404Y171959D01*
X860365Y171749D01*
X860332Y171538D01*
X860303Y171326D01*
X860280Y171113D01*
X860262Y170901D01*
X860249Y170687D01*
X860242Y170474D01*
X860239Y170260D01*
X869082Y179102D02*
X869357Y179099D01*
X869631Y179089D01*
X869905Y179072D01*
X870179Y179049D01*
X870452Y179019D01*
X870725Y178983D01*
X870996Y178940D01*
X871266Y178890D01*
X871535Y178834D01*
X871803Y178771D01*
X872069Y178702D01*
X872333Y178627D01*
X872595Y178545D01*
X872855Y178457D01*
X873113Y178363D01*
X873369Y178262D01*
X873622Y178155D01*
X873873Y178042D01*
X874120Y177924D01*
X874365Y177799D01*
X874607Y177668D01*
X874845Y177532D01*
X875080Y177389D01*
X875312Y177241D01*
X875540Y177088D01*
X875764Y176929D01*
X875984Y176765D01*
X876200Y176595D01*
X876412Y176421D01*
X876620Y176241D01*
X876823Y176056D01*
X877022Y175866D01*
X877216Y175672D01*
X877406Y175473D01*
X877590Y175269D01*
X877770Y175062D01*
X877944Y174849D01*
X878113Y174633D01*
X878277Y174412D01*
X878436Y174188D01*
X878589Y173960D01*
X878737Y173728D01*
X878879Y173493D01*
X879015Y173255D01*
X879145Y173013D01*
X879270Y172768D01*
X879388Y172520D01*
X879501Y172269D01*
X879607Y172016D01*
X879708Y171760D01*
X879802Y171502D01*
X879889Y171242D01*
X863187Y163382D02*
X863021Y163545D01*
X862858Y163712D01*
X862699Y163883D01*
X862545Y164057D01*
X862395Y164236D01*
X862249Y164418D01*
X862108Y164603D01*
X861972Y164792D01*
X861840Y164984D01*
X861713Y165180D01*
X861591Y165378D01*
X861473Y165579D01*
X861361Y165784D01*
X861254Y165991D01*
X861151Y166200D01*
X861054Y166412D01*
X860963Y166626D01*
X860876Y166842D01*
X860795Y167061D01*
X860719Y167281D01*
X860649Y167503D01*
X860584Y167727D01*
X860525Y167953D01*
X860471Y168179D01*
X860422Y168407D01*
X860380Y168637D01*
X860343Y168867D01*
X860311Y169098D01*
X860286Y169329D01*
X860266Y169561D01*
X860251Y169794D01*
X860243Y170027D01*
X860240Y170260D01*
X863187Y163382D02*
X879890Y143732D01*
X860240Y143732D01*
X844457Y161417D02*
X844449Y162113D01*
X844424Y162808D01*
X844382Y163503D01*
X844324Y164196D01*
X844250Y164888D01*
X844158Y165578D01*
X844051Y166265D01*
X843927Y166950D01*
X843787Y167632D01*
X843630Y168310D01*
X843458Y168984D01*
X843269Y169654D01*
X843064Y170319D01*
X842844Y170979D01*
X842608Y171633D01*
X842356Y172282D01*
X842089Y172925D01*
X841807Y173561D01*
X841509Y174190D01*
X841510Y174190D02*
X841451Y174357D01*
X841387Y174522D01*
X841320Y174685D01*
X841248Y174847D01*
X841173Y175007D01*
X841094Y175165D01*
X841011Y175322D01*
X840924Y175476D01*
X840834Y175628D01*
X840740Y175777D01*
X840642Y175925D01*
X840540Y176070D01*
X840436Y176212D01*
X840327Y176352D01*
X840216Y176489D01*
X840101Y176624D01*
X839983Y176755D01*
X839861Y176884D01*
X839737Y177009D01*
X839610Y177132D01*
X839479Y177252D01*
X839346Y177368D01*
X839210Y177481D01*
X839071Y177591D01*
X838930Y177697D01*
X838786Y177800D01*
X838640Y177899D01*
X838491Y177995D01*
X838340Y178087D01*
X838187Y178175D01*
X838031Y178259D01*
X837874Y178340D01*
X837715Y178417D01*
X837554Y178490D01*
X837391Y178559D01*
X837226Y178624D01*
X837060Y178685D01*
X836893Y178743D01*
X836724Y178795D01*
X836554Y178844D01*
X836383Y178889D01*
X836211Y178929D01*
X836038Y178966D01*
X835864Y178998D01*
X835689Y179026D01*
X835514Y179049D01*
X835338Y179069D01*
X835162Y179084D01*
X834986Y179094D01*
X834809Y179101D01*
X834632Y179103D01*
X834455Y179101D01*
X834278Y179094D01*
X834102Y179084D01*
X833926Y179069D01*
X833750Y179049D01*
X833575Y179026D01*
X833400Y178998D01*
X833226Y178966D01*
X833053Y178929D01*
X832881Y178889D01*
X832710Y178844D01*
X832540Y178795D01*
X832371Y178743D01*
X832204Y178686D01*
X832038Y178624D01*
X831873Y178559D01*
X831710Y178490D01*
X831549Y178417D01*
X831390Y178340D01*
X831233Y178260D01*
X831078Y178175D01*
X830924Y178087D01*
X830773Y177995D01*
X830625Y177899D01*
X830478Y177800D01*
X830334Y177697D01*
X830193Y177591D01*
X830054Y177481D01*
X829918Y177368D01*
X829785Y177252D01*
X829655Y177132D01*
X829527Y177010D01*
X829403Y176884D01*
X829281Y176755D01*
X829163Y176624D01*
X829048Y176489D01*
X828937Y176352D01*
X828828Y176212D01*
X828724Y176070D01*
X828622Y175925D01*
X828525Y175777D01*
X828430Y175628D01*
X828340Y175476D01*
X828253Y175322D01*
X828170Y175165D01*
X828091Y175007D01*
X828016Y174847D01*
X827944Y174686D01*
X827877Y174522D01*
X827813Y174357D01*
X827754Y174190D01*
X827456Y173561D01*
X827174Y172925D01*
X826907Y172282D01*
X826655Y171633D01*
X826419Y170979D01*
X826199Y170319D01*
X825994Y169654D01*
X825805Y168984D01*
X825633Y168310D01*
X825476Y167632D01*
X825336Y166950D01*
X825212Y166265D01*
X825105Y165578D01*
X825013Y164888D01*
X824939Y164196D01*
X824881Y163503D01*
X824839Y162808D01*
X824814Y162113D01*
X824806Y161417D01*
X844456Y161417D02*
X844448Y160721D01*
X844423Y160026D01*
X844381Y159331D01*
X844323Y158638D01*
X844249Y157946D01*
X844157Y157256D01*
X844050Y156569D01*
X843926Y155884D01*
X843786Y155202D01*
X843629Y154524D01*
X843457Y153850D01*
X843268Y153181D01*
X843064Y152515D01*
X842843Y151855D01*
X842607Y151201D01*
X842355Y150552D01*
X842088Y149910D01*
X841806Y149274D01*
X841509Y148645D01*
X841510Y148645D02*
X841451Y148478D01*
X841387Y148313D01*
X841320Y148150D01*
X841248Y147988D01*
X841173Y147828D01*
X841094Y147670D01*
X841011Y147513D01*
X840924Y147359D01*
X840834Y147207D01*
X840739Y147058D01*
X840642Y146910D01*
X840540Y146765D01*
X840436Y146623D01*
X840327Y146483D01*
X840216Y146346D01*
X840101Y146211D01*
X839983Y146080D01*
X839861Y145951D01*
X839737Y145825D01*
X839610Y145703D01*
X839479Y145583D01*
X839346Y145467D01*
X839210Y145354D01*
X839071Y145244D01*
X838930Y145138D01*
X838786Y145035D01*
X838639Y144936D01*
X838491Y144840D01*
X838340Y144748D01*
X838187Y144660D01*
X838031Y144575D01*
X837874Y144495D01*
X837715Y144418D01*
X837554Y144345D01*
X837391Y144276D01*
X837226Y144211D01*
X837060Y144150D01*
X836893Y144092D01*
X836724Y144040D01*
X836554Y143991D01*
X836383Y143946D01*
X836211Y143906D01*
X836038Y143869D01*
X835864Y143837D01*
X835689Y143809D01*
X835514Y143786D01*
X835338Y143766D01*
X835162Y143751D01*
X834986Y143741D01*
X834809Y143734D01*
X834632Y143732D01*
X827754Y148645D02*
X827457Y149274D01*
X827175Y149910D01*
X826908Y150552D01*
X826656Y151201D01*
X826420Y151855D01*
X826199Y152515D01*
X825995Y153181D01*
X825806Y153850D01*
X825634Y154524D01*
X825477Y155202D01*
X825337Y155884D01*
X825213Y156569D01*
X825106Y157256D01*
X825014Y157946D01*
X824940Y158638D01*
X824882Y159331D01*
X824840Y160026D01*
X824815Y160721D01*
X824807Y161417D01*
X827754Y148645D02*
X827814Y148478D01*
X827877Y148313D01*
X827944Y148149D01*
X828016Y147988D01*
X828091Y147828D01*
X828170Y147669D01*
X828253Y147513D01*
X828340Y147359D01*
X828430Y147207D01*
X828525Y147058D01*
X828622Y146910D01*
X828724Y146765D01*
X828828Y146623D01*
X828937Y146483D01*
X829048Y146346D01*
X829163Y146211D01*
X829281Y146080D01*
X829403Y145951D01*
X829527Y145825D01*
X829655Y145703D01*
X829785Y145583D01*
X829918Y145467D01*
X830054Y145354D01*
X830193Y145244D01*
X830334Y145138D01*
X830478Y145035D01*
X830625Y144936D01*
X830773Y144840D01*
X830924Y144748D01*
X831078Y144660D01*
X831233Y144575D01*
X831390Y144495D01*
X831549Y144418D01*
X831710Y144345D01*
X831873Y144276D01*
X832038Y144211D01*
X832204Y144149D01*
X832371Y144092D01*
X832540Y144040D01*
X832710Y143991D01*
X832881Y143946D01*
X833053Y143906D01*
X833226Y143869D01*
X833400Y143837D01*
X833575Y143809D01*
X833750Y143786D01*
X833926Y143766D01*
X834102Y143751D01*
X834278Y143741D01*
X834455Y143734D01*
X834632Y143732D01*
X842492Y151592D02*
X826772Y171242D01*
X809024Y163382D02*
X797234Y163382D01*
X797044Y163380D01*
X796854Y163373D01*
X796665Y163361D01*
X796475Y163345D01*
X796287Y163325D01*
X796098Y163300D01*
X795911Y163270D01*
X795724Y163236D01*
X795538Y163197D01*
X795353Y163154D01*
X795169Y163106D01*
X794986Y163054D01*
X794805Y162997D01*
X794625Y162936D01*
X794447Y162871D01*
X794270Y162802D01*
X794095Y162728D01*
X793922Y162650D01*
X793751Y162568D01*
X793581Y162482D01*
X793414Y162391D01*
X793249Y162297D01*
X793087Y162199D01*
X792927Y162097D01*
X792769Y161991D01*
X792614Y161881D01*
X792462Y161767D01*
X792312Y161650D01*
X792166Y161530D01*
X792022Y161405D01*
X791881Y161278D01*
X791744Y161147D01*
X791609Y161012D01*
X791478Y160875D01*
X791351Y160734D01*
X791226Y160590D01*
X791106Y160444D01*
X790989Y160294D01*
X790875Y160142D01*
X790765Y159987D01*
X790659Y159829D01*
X790557Y159669D01*
X790459Y159507D01*
X790365Y159342D01*
X790274Y159175D01*
X790188Y159005D01*
X790106Y158834D01*
X790028Y158661D01*
X789954Y158486D01*
X789885Y158309D01*
X789820Y158131D01*
X789759Y157951D01*
X789702Y157770D01*
X789650Y157587D01*
X789602Y157403D01*
X789559Y157218D01*
X789520Y157032D01*
X789486Y156845D01*
X789456Y156658D01*
X789431Y156469D01*
X789411Y156281D01*
X789395Y156091D01*
X789383Y155902D01*
X789376Y155712D01*
X789374Y155522D01*
X789374Y153557D01*
X789377Y153318D01*
X789386Y153079D01*
X789400Y152840D01*
X789421Y152601D01*
X789447Y152364D01*
X789479Y152126D01*
X789516Y151890D01*
X789560Y151655D01*
X789609Y151421D01*
X789664Y151188D01*
X789724Y150956D01*
X789791Y150726D01*
X789862Y150498D01*
X789940Y150272D01*
X790022Y150047D01*
X790110Y149825D01*
X790204Y149605D01*
X790303Y149387D01*
X790407Y149171D01*
X790517Y148959D01*
X790631Y148748D01*
X790751Y148541D01*
X790875Y148337D01*
X791005Y148136D01*
X791139Y147938D01*
X791279Y147743D01*
X791423Y147552D01*
X791571Y147365D01*
X791724Y147181D01*
X791882Y147001D01*
X792043Y146824D01*
X792210Y146652D01*
X792380Y146484D01*
X792554Y146320D01*
X792732Y146160D01*
X792914Y146005D01*
X793100Y145854D01*
X793289Y145708D01*
X793482Y145566D01*
X793679Y145430D01*
X793878Y145298D01*
X794081Y145170D01*
X794287Y145048D01*
X794495Y144931D01*
X794707Y144819D01*
X794921Y144712D01*
X795137Y144611D01*
X795356Y144515D01*
X795578Y144424D01*
X795801Y144338D01*
X796027Y144258D01*
X796254Y144184D01*
X796483Y144115D01*
X796714Y144051D01*
X796946Y143994D01*
X797180Y143942D01*
X797414Y143895D01*
X797650Y143855D01*
X797887Y143820D01*
X798124Y143791D01*
X798363Y143768D01*
X798601Y143750D01*
X798840Y143739D01*
X799079Y143733D01*
X799319Y143733D01*
X799558Y143739D01*
X799797Y143750D01*
X800035Y143768D01*
X800274Y143791D01*
X800511Y143820D01*
X800748Y143855D01*
X800984Y143895D01*
X801218Y143942D01*
X801452Y143994D01*
X801684Y144051D01*
X801915Y144115D01*
X802144Y144184D01*
X802371Y144258D01*
X802597Y144338D01*
X802820Y144424D01*
X803042Y144515D01*
X803261Y144611D01*
X803477Y144712D01*
X803691Y144819D01*
X803903Y144931D01*
X804112Y145048D01*
X804317Y145170D01*
X804520Y145298D01*
X804719Y145430D01*
X804916Y145566D01*
X805109Y145708D01*
X805298Y145854D01*
X805484Y146005D01*
X805666Y146160D01*
X805844Y146320D01*
X806018Y146484D01*
X806188Y146652D01*
X806355Y146824D01*
X806516Y147001D01*
X806674Y147181D01*
X806827Y147365D01*
X806975Y147552D01*
X807119Y147743D01*
X807259Y147938D01*
X807393Y148136D01*
X807523Y148337D01*
X807647Y148541D01*
X807767Y148748D01*
X807881Y148959D01*
X807991Y149171D01*
X808095Y149387D01*
X808194Y149605D01*
X808288Y149825D01*
X808376Y150047D01*
X808458Y150272D01*
X808536Y150498D01*
X808607Y150726D01*
X808674Y150956D01*
X808734Y151188D01*
X808789Y151421D01*
X808838Y151655D01*
X808882Y151890D01*
X808919Y152126D01*
X808951Y152364D01*
X808977Y152601D01*
X808998Y152840D01*
X809012Y153079D01*
X809021Y153318D01*
X809024Y153557D01*
X809024Y163382D01*
X809019Y163762D01*
X809006Y164141D01*
X808983Y164521D01*
X808951Y164899D01*
X808909Y165277D01*
X808859Y165653D01*
X808800Y166029D01*
X808731Y166402D01*
X808654Y166774D01*
X808567Y167144D01*
X808472Y167512D01*
X808368Y167877D01*
X808255Y168240D01*
X808133Y168600D01*
X808002Y168956D01*
X807863Y169310D01*
X807716Y169660D01*
X807560Y170006D01*
X807396Y170349D01*
X807223Y170687D01*
X807043Y171022D01*
X806854Y171351D01*
X806658Y171677D01*
X806453Y171997D01*
X806241Y172312D01*
X806022Y172622D01*
X805795Y172927D01*
X805560Y173226D01*
X805319Y173519D01*
X805071Y173806D01*
X804815Y174088D01*
X804553Y174363D01*
X804285Y174631D01*
X804010Y174893D01*
X803728Y175149D01*
X803441Y175397D01*
X803148Y175638D01*
X802849Y175873D01*
X802544Y176100D01*
X802234Y176319D01*
X801919Y176531D01*
X801599Y176736D01*
X801273Y176932D01*
X800944Y177121D01*
X800609Y177301D01*
X800271Y177474D01*
X799928Y177638D01*
X799582Y177794D01*
X799232Y177941D01*
X798878Y178080D01*
X798522Y178211D01*
X798162Y178333D01*
X797799Y178446D01*
X797434Y178550D01*
X797066Y178645D01*
X796696Y178732D01*
X796324Y178809D01*
X795951Y178878D01*
X795575Y178937D01*
X795199Y178987D01*
X794821Y179029D01*
X794443Y179061D01*
X794063Y179084D01*
X793684Y179097D01*
X793304Y179102D01*
X772330Y179102D02*
X772330Y143732D01*
X756610Y143732D01*
D11*
X877953Y255906D02*
X901575Y255906D01*
X877953Y255906D02*
X799213Y255906D01*
X775591Y255906D01*
X775591Y236220D01*
X775591Y212598D02*
X775591Y192913D01*
X799213Y192913D01*
X877953Y192913D01*
X901575Y192913D01*
X901575Y212598D01*
X901575Y236220D02*
X901575Y255906D01*
X901575Y236220D02*
X901287Y236216D01*
X901000Y236206D01*
X900713Y236188D01*
X900426Y236164D01*
X900140Y236133D01*
X899855Y236094D01*
X899571Y236049D01*
X899288Y235997D01*
X899007Y235937D01*
X898727Y235871D01*
X898449Y235799D01*
X898172Y235719D01*
X897898Y235633D01*
X897626Y235540D01*
X897356Y235441D01*
X897088Y235335D01*
X896824Y235222D01*
X896562Y235103D01*
X896303Y234978D01*
X896047Y234846D01*
X895794Y234709D01*
X895545Y234565D01*
X895300Y234415D01*
X895058Y234259D01*
X894820Y234098D01*
X894586Y233930D01*
X894356Y233757D01*
X894131Y233579D01*
X893910Y233395D01*
X893693Y233206D01*
X893481Y233011D01*
X893274Y232811D01*
X893072Y232607D01*
X892875Y232397D01*
X892683Y232183D01*
X892497Y231964D01*
X892315Y231741D01*
X892139Y231513D01*
X891969Y231281D01*
X891805Y231045D01*
X891646Y230806D01*
X891493Y230562D01*
X891346Y230315D01*
X891206Y230064D01*
X891071Y229809D01*
X890943Y229552D01*
X890821Y229292D01*
X890705Y229028D01*
X890596Y228762D01*
X890493Y228494D01*
X890397Y228223D01*
X890307Y227949D01*
X890224Y227674D01*
X890148Y227396D01*
X890079Y227117D01*
X890016Y226837D01*
X889960Y226554D01*
X889912Y226271D01*
X889870Y225986D01*
X889835Y225701D01*
X889807Y225415D01*
X889786Y225128D01*
X889772Y224840D01*
X889765Y224553D01*
X889765Y224265D01*
X889772Y223978D01*
X889786Y223690D01*
X889807Y223403D01*
X889835Y223117D01*
X889870Y222832D01*
X889912Y222547D01*
X889960Y222264D01*
X890016Y221981D01*
X890079Y221701D01*
X890148Y221422D01*
X890224Y221144D01*
X890307Y220869D01*
X890397Y220595D01*
X890493Y220324D01*
X890596Y220056D01*
X890705Y219790D01*
X890821Y219526D01*
X890943Y219266D01*
X891071Y219009D01*
X891206Y218754D01*
X891346Y218503D01*
X891493Y218256D01*
X891646Y218012D01*
X891805Y217773D01*
X891969Y217537D01*
X892139Y217305D01*
X892315Y217077D01*
X892497Y216854D01*
X892683Y216635D01*
X892875Y216421D01*
X893072Y216211D01*
X893274Y216007D01*
X893481Y215807D01*
X893693Y215612D01*
X893910Y215423D01*
X894131Y215239D01*
X894356Y215061D01*
X894586Y214888D01*
X894820Y214720D01*
X895058Y214559D01*
X895300Y214403D01*
X895545Y214253D01*
X895794Y214109D01*
X896047Y213972D01*
X896303Y213840D01*
X896562Y213715D01*
X896824Y213596D01*
X897088Y213483D01*
X897356Y213377D01*
X897626Y213278D01*
X897898Y213185D01*
X898172Y213099D01*
X898449Y213019D01*
X898727Y212947D01*
X899007Y212881D01*
X899288Y212821D01*
X899571Y212769D01*
X899855Y212724D01*
X900140Y212685D01*
X900426Y212654D01*
X900713Y212630D01*
X901000Y212612D01*
X901287Y212602D01*
X901575Y212598D01*
X775591Y212598D02*
X775879Y212602D01*
X776166Y212612D01*
X776453Y212630D01*
X776740Y212654D01*
X777026Y212685D01*
X777311Y212724D01*
X777595Y212769D01*
X777878Y212821D01*
X778159Y212881D01*
X778439Y212947D01*
X778717Y213019D01*
X778994Y213099D01*
X779268Y213185D01*
X779540Y213278D01*
X779810Y213377D01*
X780078Y213483D01*
X780342Y213596D01*
X780604Y213715D01*
X780863Y213840D01*
X781119Y213972D01*
X781372Y214109D01*
X781621Y214253D01*
X781866Y214403D01*
X782108Y214559D01*
X782346Y214720D01*
X782580Y214888D01*
X782810Y215061D01*
X783035Y215239D01*
X783256Y215423D01*
X783473Y215612D01*
X783685Y215807D01*
X783892Y216007D01*
X784094Y216211D01*
X784291Y216421D01*
X784483Y216635D01*
X784669Y216854D01*
X784851Y217077D01*
X785027Y217305D01*
X785197Y217537D01*
X785361Y217773D01*
X785520Y218012D01*
X785673Y218256D01*
X785820Y218504D01*
X785960Y218754D01*
X786095Y219009D01*
X786223Y219266D01*
X786345Y219526D01*
X786461Y219790D01*
X786570Y220056D01*
X786673Y220324D01*
X786769Y220595D01*
X786859Y220869D01*
X786942Y221144D01*
X787018Y221422D01*
X787087Y221701D01*
X787150Y221981D01*
X787206Y222264D01*
X787254Y222547D01*
X787296Y222832D01*
X787331Y223117D01*
X787359Y223403D01*
X787380Y223690D01*
X787394Y223978D01*
X787401Y224265D01*
X787401Y224553D01*
X787394Y224840D01*
X787380Y225128D01*
X787359Y225415D01*
X787331Y225701D01*
X787296Y225986D01*
X787254Y226271D01*
X787206Y226554D01*
X787150Y226837D01*
X787087Y227117D01*
X787018Y227396D01*
X786942Y227674D01*
X786859Y227949D01*
X786769Y228223D01*
X786673Y228494D01*
X786570Y228762D01*
X786461Y229028D01*
X786345Y229292D01*
X786223Y229552D01*
X786095Y229809D01*
X785960Y230064D01*
X785820Y230315D01*
X785673Y230562D01*
X785520Y230806D01*
X785361Y231045D01*
X785197Y231281D01*
X785027Y231513D01*
X784851Y231741D01*
X784669Y231964D01*
X784483Y232183D01*
X784291Y232397D01*
X784094Y232607D01*
X783892Y232811D01*
X783685Y233011D01*
X783473Y233206D01*
X783256Y233395D01*
X783035Y233579D01*
X782810Y233757D01*
X782580Y233930D01*
X782346Y234098D01*
X782108Y234259D01*
X781866Y234415D01*
X781621Y234565D01*
X781372Y234709D01*
X781119Y234846D01*
X780863Y234978D01*
X780604Y235103D01*
X780342Y235222D01*
X780078Y235335D01*
X779810Y235441D01*
X779540Y235540D01*
X779268Y235633D01*
X778994Y235719D01*
X778717Y235799D01*
X778439Y235871D01*
X778159Y235937D01*
X777878Y235997D01*
X777595Y236049D01*
X777311Y236094D01*
X777026Y236133D01*
X776740Y236164D01*
X776453Y236188D01*
X776166Y236206D01*
X775879Y236216D01*
X775591Y236220D01*
X877953Y255906D02*
X877953Y192913D01*
X799213Y192913D02*
X799213Y255906D01*
M02*
